<svg xmlns="http://www.w3.org/2000/svg" viewBox="0 0 62 62" fill="#fff" xmlns:v="https://vecta.io/nano"><path d="M30.88 0C13.69 0 0 13.88 0 31s13.69 31 30.88 31S62 48.12 62 31 48.07 0 30.88 0zM51.3 51.34a28.82 28.82 0 0 1-9.18 6.17c-3.56 1.5-7.34 2.26-11.24 2.26-7.7 0-14.9-2.99-20.29-8.42-2.62-2.64-4.68-5.71-6.11-9.14C2.99 38.66 2.24 34.89 2.24 31s.75-7.66 2.23-11.21c1.43-3.43 3.49-6.5 6.11-9.14 5.39-5.43 12.6-8.42 20.29-8.42 3.9 0 7.68.76 11.24 2.26 3.44 1.45 6.53 3.52 9.18 6.17 2.65 2.64 4.74 5.72 6.19 9.14A28.42 28.42 0 0 1 59.75 31c0 3.89-.75 7.65-2.26 11.2-1.45 3.42-3.54 6.5-6.19 9.14zM24.52 29.66c-.3 1.14-1.33 1.98-2.57 1.98-.41 0-.75.33-.75.74a.74.74 0 0 0 .75.74 4.15 4.15 0 0 0 4.09-3.45 5.92 5.92 0 0 0 3.25-1.45c.31-.27.33-.74.06-1.05s-.75-.33-1.05-.06c-.8.72-1.84 1.11-2.92 1.11-2.42 0-4.39-1.96-4.39-4.37a.74.74 0 0 0-.75-.74.74.74 0 0 0-.75.74c0 2.95 2.19 5.39 5.03 5.81zm1.7 6.05c.41 0 .75-.33.75-.74a.74.74 0 0 0-.75-.74c-2.84 0-5.14 2.3-5.14 5.12l.01.28a4.99 4.99 0 0 0-.98.29c-.38.17-.55.6-.38.98a.74.74 0 0 0 .98.38 3.22 3.22 0 0 1 .67-.2 5.09 5.09 0 0 0 1 1.67c.15.16.35.25.56.25.18 0 .36-.06.5-.19.31-.27.33-.74.06-1.05-.1-.11-.19-.22-.27-.34.46.27.83.65 1.08 1.14a2.72 2.72 0 0 1 .16 2.11c-.13.39.09.81.48.94.08.03.16.04.23.04a.75.75 0 0 0 .71-.51c.35-1.08.27-2.23-.25-3.25a4.26 4.26 0 0 0-2.48-2.12c-.19-.06-.38-.11-.57-.14-.01-.09-.01-.19-.01-.28-.01-2.01 1.63-3.64 3.64-3.64zm15.92 4.21a3.69 3.69 0 0 0-.98-.29c.01-.09.01-.19.01-.28 0-2.82-2.31-5.12-5.14-5.12-.41 0-.75.33-.75.74a.74.74 0 0 0 .75.74c2.01 0 3.65 1.63 3.65 3.63l-.01.28c-.19.03-.38.08-.57.14-1.08.35-1.97 1.11-2.48 2.12-.52 1.01-.61 2.17-.25 3.25a.75.75 0 0 0 .71.51c.08 0 .16-.01.23-.04.39-.13.61-.55.48-.94-.23-.7-.17-1.45.16-2.11.25-.48.62-.87 1.08-1.14-.08.12-.17.23-.27.34-.28.31-.25.78.06 1.05.14.13.32.19.5.19a.73.73 0 0 0 .56-.25 5.09 5.09 0 0 0 1-1.67 2.59 2.59 0 0 1 .67.2.74.74 0 0 0 .98-.38.74.74 0 0 0-.39-.97zm-1.84-6.79c.41 0 .75-.33.75-.74a.74.74 0 0 0-.75-.74 2.66 2.66 0 0 1-2.57-1.98c2.84-.41 5.03-2.85 5.03-5.79a.74.74 0 0 0-.75-.74c-.41 0-.75.33-.75.74 0 2.41-1.97 4.37-4.39 4.37-1.08 0-2.12-.39-2.92-1.11-.31-.27-.78-.25-1.05.06-.28.31-.25.78.06 1.05a5.92 5.92 0 0 0 3.25 1.45c.33 1.93 2.03 3.43 4.09 3.43zm6.71-7.3c.14-.47.2-.97.2-1.46 0-2.68-1.98-4.9-4.56-5.29a3.92 3.92 0 0 0 .45-1.82c0-1.9-1.37-3.48-3.17-3.82-.03-.03-.05-.06-.09-.09-.31-.26-3.12-2.55-5.19-2.61-1.48-.04-2.6.31-3.33 1.03a2.2 2.2 0 0 0-.2.23c-.06-.08-.13-.15-.2-.23-.73-.73-1.85-1.07-3.33-1.03-2.07.06-4.87 2.35-5.19 2.61l-.09.09c-1.8.35-3.17 1.93-3.17 3.82 0 .64.16 1.26.45 1.82-2.58.39-4.56 2.61-4.56 5.29 0 .5.07.99.2 1.46-1.02 1-1.59 2.35-1.59 3.8 0 1.07.32 2.1.91 2.98a5.26 5.26 0 0 0-.91 2.98 5.38 5.38 0 0 0 2.92 4.76 5.52 5.52 0 0 0-.06.81c0 2.63 1.71 4.9 4.21 5.64a5.94 5.94 0 0 0 5.19 3.07c2.25 0 4.21-1.26 5.21-3.1 1 1.85 2.96 3.1 5.21 3.1a5.96 5.96 0 0 0 5.19-3.07c2.5-.74 4.21-3.01 4.21-5.64a5.52 5.52 0 0 0-.06-.81 5.38 5.38 0 0 0 2.92-4.76c0-1.08-.32-2.1-.91-2.98a5.36 5.36 0 0 0 .91-2.98c.01-1.45-.56-2.8-1.57-3.8zM25.92 48.39c-1.71 0-3.28-.99-4-2.53l-.15-.33-.35-.08c-2-.47-3.4-2.23-3.4-4.28 0-.36.04-.72.13-1.07l.16-.65-.63-.23a3.89 3.89 0 0 1-2.53-3.62 3.75 3.75 0 0 1 .47-1.83 5.39 5.39 0 0 0 3.41 1.22c.41 0 .75-.33.75-.74a.74.74 0 0 0-.75-.74c-1.14 0-2.22-.5-2.96-1.36-.59-.7-.92-1.58-.92-2.5 0-1.2.55-2.31 1.5-3.05.33-.25.38-.72.13-1.04-.03-.04-.06-.07-.1-.11a3.77 3.77 0 0 1-.15-1.06c0-2.13 1.74-3.86 3.88-3.86s3.88 1.73 3.88 3.86a.74.74 0 0 0 .75.74c.41 0 .75-.33.75-.74 0-2.6-1.87-4.77-4.34-5.25-.03-.07-.07-.13-.13-.19-.43-.45-.67-1.04-.67-1.67 0-1.33 1.08-2.41 2.42-2.41.97 0 1.85.58 2.23 1.47a.75.75 0 0 0 .98.4.75.75 0 0 0 .4-.98 3.87 3.87 0 0 0-2.16-2.1c.97-.66 2.25-1.39 3.13-1.41 1.05-.03 1.81.17 2.24.6.54.53.52 1.38.5 1.88v.2 7.16c-.46-.28-1-.44-1.57-.44-.41 0-.75.33-.75.74s.33.75.74.75c.87 0 1.58.71 1.58 1.58v14.14a4.6 4.6 0 0 0-3.16-1.24c-.41 0-.75.33-.75.74s.33.75.74.75a3.14 3.14 0 0 1 2.24.93 3.13 3.13 0 0 1 .92 2.24v1.52a.78.78 0 0 0-.03.22c-.02 2.4-2 4.37-4.43 4.37zm18.65-9.17l-.63.23.16.65c.09.35.13.71.13 1.07 0 2.05-1.4 3.81-3.4 4.28l-.35.08-.15.33c-.73 1.54-2.3 2.53-4 2.53-2.44 0-4.42-1.97-4.42-4.4a.78.78 0 0 0-.03-.22v-1.51c0-.84.32-1.64.92-2.24a3.14 3.14 0 0 1 2.24-.93.74.74 0 0 0 .74-.75c0-.41-.34-.74-.75-.74a4.62 4.62 0 0 0-3.16 1.24V22.09a1.9 1.9 0 0 1 1.9-1.9.74.74 0 0 0 .74-.75c0-.41-.34-.74-.75-.74-.7 0-1.35.22-1.89.58v-4.37-.2c-.01-.5-.03-1.35.5-1.88.43-.43 1.18-.63 2.24-.6.88.02 2.16.75 3.13 1.41a3.9 3.9 0 0 0-2.16 2.1.75.75 0 0 0 .4.98.75.75 0 0 0 .98-.4c.38-.89 1.25-1.47 2.23-1.47a2.42 2.42 0 0 1 1.75 4.08c-.06.06-.1.12-.13.19-2.47.48-4.34 2.65-4.34 5.25a.74.74 0 0 0 .75.74.74.74 0 0 0 .75-.74c0-2.13 1.74-3.86 3.88-3.86s3.88 1.73 3.88 3.86a3.77 3.77 0 0 1-.15 1.06c-.04.03-.07.07-.1.11-.25.32-.19.79.13 1.04.95.74 1.5 1.85 1.5 3.05 0 .92-.33 1.8-.92 2.5-.74.87-1.82 1.36-2.96 1.36-.41 0-.75.33-.75.74a.74.74 0 0 0 .75.74 5.37 5.37 0 0 0 3.41-1.22 3.86 3.86 0 0 1 .47 1.83 3.92 3.92 0 0 1-2.54 3.64z"/></svg>