<svg xmlns="http://www.w3.org/2000/svg" viewBox="0 0 72 72" fill="#fff" xmlns:v="https://vecta.io/nano"><path d="M36 0C16.12 0 0 16.12 0 36s16.12 36 36 36 36-16.12 36-36S55.88 0 36 0zm23.62 59.62c-3.07 3.07-6.64 5.48-10.62 7.16-4.12 1.74-8.49 2.62-13 2.62a33.18 33.18 0 0 1-13-2.62c-3.98-1.68-7.55-4.09-10.62-7.16S6.9 52.98 5.22 49C3.48 44.88 2.6 40.51 2.6 36a33.18 33.18 0 0 1 2.62-13c1.68-3.98 4.09-7.55 7.16-10.62S19.02 6.9 23 5.22c4.12-1.74 8.49-2.62 13-2.62a33.18 33.18 0 0 1 13 2.62c3.98 1.68 7.55 4.09 10.62 7.16S65.1 19.02 66.78 23c1.74 4.12 2.62 8.49 2.62 13a33.18 33.18 0 0 1-2.62 13c-1.68 3.98-4.09 7.55-7.16 10.62zM39.02 39.9c-.34-.08-.67.13-.75.46a.62.62 0 0 0 .39.73c5.18 1.61 5.99 6.76 3.75 10.5-.93 1.6-2.88 3.08-4.15 3.9l.22-1.43c.33-3.13.97-6.51-.93-9.31-.19-.26-3.58-4.11-5.1-5.54a36.24 36.24 0 0 1-6.09-6.94c-2.15-3.09-3.2-5.18-5.36-7.63-.83-1.08-2.41-1.08-3.66-1.16-1-.09-2 .27-2.7.99-.76.72-1.6 1.35-2.5 1.88l-2.58 1.43a1.89 1.89 0 0 0-.83 2.4l.59 1.37c.64 1.38 2.09 2.19 3.6 2.01l1.25-.17a.78.78 0 0 1 .85.59c.33 1.03-.13 2.34-.38 3.33a7.3 7.3 0 0 0 1.14 6.08l1.52 2.11c.66 1.77.91 3.67.76 5.56l-.23 2.5c0 .4-.53.79-.76 1.06-.44.35-1.16.68-1.16 1.36v.67c0 .35.28.63.63.63h2.93c.31.04.88-.54 1.13-.69.55-.41.92-1.02 1.02-1.7l1.3-8.26 1.51 2.94c-.1 1.55.58 3.08 1.31 4.42H24.1a1.51 1.51 0 0 0-1.51 1.51v.02l.04 1.19c0 .35.28.63.63.63h14.2c.09 0 .17-.02.25-.05.85-.37 4.32-2.5 5.79-5.01.61-1.11 2.43-4.8.53-8.41a8.45 8.45 0 0 0-5.01-3.97zM17.43 24.7c.68.12 1.91.03 2.41.58l-1.01 3.83a4.82 4.82 0 0 1-.83 1.35 4.06 4.06 0 0 1-.43-1.11c-.49-1.25-.41-2.88-.14-4.65zm19.81 29.21l-.33 2.14H23.86l-.04-.56c0-.15.12-.26.26-.26l2.62.04a.62.62 0 0 0 .63-.62.67.67 0 0 0-.06-.28l-1.06-2.14c-1.29-2.4-.43-6.13 2.58-6.56l2.88-.46c.34-.05.57-.37.52-.71s-.37-.57-.71-.52l-2.88.46c-1.75.28-3.21 1.47-3.82 3.13l-1.65-3.25a.63.63 0 0 0-.84-.28c-.18.09-.3.26-.34.46l-1.57 10.29c-.05.63-.67.99-1.11 1.32h-2.01a5.62 5.62 0 0 0 1.25-1.08 2.11 2.11 0 0 0 .58-1.25l.23-2.5a14.5 14.5 0 0 0-.85-6.19c-.54-1.71-.58-3.53-.13-5.27.09-.33-.11-.68-.45-.76-.33-.09-.68.11-.76.45a10.96 10.96 0 0 0-.33 3.23c-1.03-1.45-1.37-3.28-.93-5.01.29-1.14.75-2.54.43-3.72-.15-1.11-1.16-1.9-2.28-1.76l-1.25.17c-.98.1-1.91-.44-2.3-1.34l-.59-1.38c-.13-.3-.01-.65.28-.81l2.59-1.43c1.25-.63 2.36-1.88 3.39-2.5a9.88 9.88 0 0 0 .26 4.8c.23 1.2 1.11 2.66 2.36 1.76.56-.56.98-1.24 1.25-1.99l.83-3.13c3.02 4.03 5.89 9.48 9.95 12.99 1.55 1.31 5.19 5.46 5.76 6.11 1.58 2.33 1 5.49.69 8.41zm14.03-41.5a.74.74 0 0 0-.58-.21c-.16.02-.3.09-.41.21l-12.36 13.8-4.4-4.4c-.27-.27-.72-.27-.99 0l-3.37 3.37c-.27.27-.27.72 0 .99l8.26 8.26c.27.27.72.27.99 0l16.23-17.67c.27-.27.27-.72 0-.99l-3.37-3.36zM37.92 32.95l-7.27-7.27 2.38-2.38 4.39 4.39c.27.27.71.28.99.01l12.36-13.8 2.37 2.37-15.22 16.68z"/></svg>