<svg xmlns="http://www.w3.org/2000/svg" width="91.166" height="33.523" fill="#fff" xmlns:v="https://vecta.io/nano"><path d="M45.604 33.242h-3.346v-4.077l-3.753-5.876h4.034l1.574 2.924 1.5-2.924h3.936l-3.95 5.876zm-11.936-3.205v3.205h-3.332v-9.953h4.274a6.88 6.88 0 0 1 1.49.162 3.79 3.79 0 0 1 1.307.548 2.89 2.89 0 0 1 .928 1.03c.466 1.008.47 2.169.01 3.18a3.02 3.02 0 0 1-.914 1.054 3.78 3.78 0 0 1-1.307.59c-.494.122-1.002.184-1.511.183zm0-4.147v1.6h.7a1.33 1.33 0 0 0 .7-.19c.217-.137.339-.384.316-.64.006-.134-.023-.267-.084-.387-.055-.097-.135-.177-.232-.232-.103-.058-.214-.098-.33-.119a1.93 1.93 0 0 0-.365-.035zm-9.685 4.147v3.205h-3.332v-9.953h4.274a6.88 6.88 0 0 1 1.49.162 3.79 3.79 0 0 1 1.307.548c.388.262.706.614.928 1.026.466 1.01.469 2.172.007 3.184a3.02 3.02 0 0 1-.914 1.054 3.78 3.78 0 0 1-1.307.59c-.494.122-1.002.184-1.511.183zm0-4.147v1.6h.7a1.33 1.33 0 0 0 .7-.19c.217-.137.339-.384.316-.64.006-.134-.023-.267-.084-.387-.055-.097-.135-.177-.232-.232-.103-.058-.214-.098-.33-.119a1.93 1.93 0 0 0-.366-.035zm-9.827 7.633a5.79 5.79 0 0 1-2.031-.323 4.07 4.07 0 0 1-1.441-.886 3.53 3.53 0 0 1-.858-1.328 4.76 4.76 0 0 1-.276-1.657v-6.04h3.346v5.679a1.66 1.66 0 0 0 .344 1.118 1.39 1.39 0 0 0 1.954 0 1.66 1.66 0 0 0 .344-1.118v-5.679h3.332v6.04a4.46 4.46 0 0 1-.3 1.652c-.196.503-.501.956-.893 1.328a4.2 4.2 0 0 1-1.469.886 5.91 5.91 0 0 1-2.045.323M3.332 30.037v3.205H0v-9.953h4.274a6.88 6.88 0 0 1 1.49.162 3.79 3.79 0 0 1 1.307.548A2.88 2.88 0 0 1 8 25.029c.466 1.01.469 2.172.007 3.184a3.02 3.02 0 0 1-.914 1.054 3.78 3.78 0 0 1-1.307.59c-.494.122-1.002.184-1.511.183zm0-4.147v1.6h.7a1.33 1.33 0 0 0 .7-.19c.217-.137.339-.384.316-.64.006-.134-.023-.267-.084-.387-.055-.097-.135-.177-.232-.232-.104-.055-.216-.093-.332-.112a1.93 1.93 0 0 0-.366-.035zm85.819-15.262v.2h.3v.793h.225v-.795h.3v-.2zm1.787 0l-.261.418-.261-.418h-.238v.992h.213v-.672l.275.435h.019l.273-.435v.67h.213v-.989zm-5.132 1.771a3.17 3.17 0 0 0-2.312 5.375 3.17 3.17 0 0 0 3.442.733c1.19-.474 1.977-1.619 1.994-2.9v-.042a3.15 3.15 0 0 0-3.124-3.167m1.804-4.117a3.1 3.1 0 0 0-6.2.004 3.1 3.1 0 0 0 6.2.003v-.007m-8.662-1.887a3.1 3.1 0 1 0-3.059-3.149v.049c-.009 1.7 1.359 3.087 3.059 3.1m-7.51-.059a3.17 3.17 0 0 0 3.208-3.127A3.17 3.17 0 0 0 71.52 0a3.17 3.17 0 0 0-3.209 3.126v.04a3.15 3.15 0 0 0 3.127 3.169"/><path d="M74.8 6.991c3.634-.044 6.616 2.865 6.661 6.499s-2.864 6.616-6.497 6.662-6.617-2.862-6.664-6.496v-.086a6.54 6.54 0 0 1 6.5-6.58m-15.898.049c-.527-.2-1.191-.775-1.02-1.366a1.14 1.14 0 0 1 1.417-.747c.632.243 1.207.612 1.692 1.084a2.76 2.76 0 0 0 3.065.4 2.4 2.4 0 0 0 .81-3.1 5.39 5.39 0 0 0-3.7-2.8c-2.39-.565-6.34-.783-8.46 2.484a6.66 6.66 0 0 0-.275 5.879c1.044 2.24 3.632 2.949 5.825 3.58.67.2 1.618.662 1.354 1.494-.214.529-.779.825-1.335.7-.838-.172-1.614-.565-2.247-1.14a4.73 4.73 0 0 0-2.613-.866c-1.9.022-2.735 2.247-2.2 3.874.16.488.425.935.775 1.31a10.93 10.93 0 0 0 1.017.835c2.447 1.884 7.75 2.2 10.658-.037a6.31 6.31 0 0 0 2.181-4.393c.336-4.531-3.654-5.9-6.944-7.181m-9.51 8.521L47.493 3.491c-.227-1.42-.78-3.32-3.143-3.336-2.109-.013-2.414.7-3.514 2.85l-2.618 6.2-2.622-6.2C34.492.855 34.189.142 32.081.154c-2.363.013-2.916 1.913-3.147 3.331l-1.9 12.081-.117.964c-.137 1.739 1.161 3.261 2.9 3.4l.259.01a2.87 2.87 0 0 0 3.025-2.47l.807-4.011 1.492 3.888c.552 1.067 1.171 2.592 2.8 2.592 1.617 0 2.334-1.523 2.85-2.592l1.532-3.983.723 4.109a2.89 2.89 0 0 0 3.029 2.469 3.13 3.13 0 0 0 3.16-3.411l-.112-.964m-32.812-2.63c-.88.012-1.602-.692-1.614-1.572s.692-1.602 1.572-1.614 1.602.692 1.614 1.572v.018a1.58 1.58 0 0 1-1.567 1.6h0m8.824 2.806l-4.76-11.333C19.824 2.332 19.158.169 16.612.169c-2.609 0-3.263 2.226-4.122 4.268L7.829 15.743c-.735 1.927-.176 3.443 1.448 4.136.778.329 1.659.316 2.427-.035s1.354-1.009 1.614-1.813l1.019-2.08h4.745l.864 2.08a2.93 2.93 0 0 0 3.636 1.983 3 3 0 0 0 .365-.133c1.621-.694 2.182-2.209 1.449-4.134M3.145.115a3.03 3.03 0 0 0-3.124 2.9V17.15a2.95 2.95 0 0 0 .931 2.1 2.77 2.77 0 0 0 2.193.849 3.16 3.16 0 0 0 3.1-2.937V3.046C6.184 1.387 4.806.083 3.146.113"/></svg>