<svg xmlns="http://www.w3.org/2000/svg" viewBox="0 0 72 72" fill="#fff" xmlns:v="https://vecta.io/nano"><path d="M36 2.59a33.18 33.18 0 0 1 13 2.62c3.98 1.68 7.55 4.09 10.62 7.16s5.48 6.64 7.16 10.62c1.74 4.12 2.62 8.49 2.62 13a33.18 33.18 0 0 1-2.62 13c-1.68 3.98-4.09 7.55-7.16 10.62S52.98 65.09 49 66.77c-4.12 1.74-8.49 2.62-13 2.62a33.18 33.18 0 0 1-13-2.62c-3.98-1.68-7.55-4.09-10.62-7.16C9.31 56.55 6.9 52.98 5.22 49 3.48 44.88 2.6 40.51 2.6 36a33.18 33.18 0 0 1 2.62-13c1.68-3.98 4.09-7.55 7.16-10.62S19.02 6.9 23 5.22c4.11-1.75 8.49-2.63 13-2.63M36 0C16.12 0 0 16.12 0 36s16.12 36 36 36 36-16.12 36-36S55.88 0 36 0h0zm0 15.05a3.06 3.06 0 0 1 .74.09l15.18 3.77c.51.13.87.58.87 1.11v17.73a23.64 23.64 0 0 1-3.42 9.83 23.92 23.92 0 0 1-7.38 7.47l-5.13 3.27c-.26.16-.55.25-.86.25s-.6-.09-.86-.25l-5.13-3.27c-2.97-1.89-5.52-4.48-7.38-7.47-1.84-2.97-3.02-6.36-3.42-9.83V20.02c0-.53.36-.98.87-1.11l15.18-3.77a3.06 3.06 0 0 1 .74-.09m0-1.72c-.39 0-.78.05-1.16.14l-15.18 3.77c-1.28.32-2.18 1.47-2.18 2.79v17.82h0c.84 7.66 5.1 14.52 11.6 18.66l5.13 3.27c.55.35 1.17.52 1.79.52s1.24-.17 1.79-.52l5.13-3.27a25.42 25.42 0 0 0 11.6-18.66h0V20.02c0-1.32-.9-2.47-2.18-2.79l-15.18-3.77c-.38-.09-.77-.13-1.16-.13h0zm-15.03 8a.5.5 0 0 1-.49-.38c-.07-.27.1-.54.37-.61l10.27-2.55c.27-.07.54.1.61.37s-.1.54-.37.61l-10.27 2.55c-.04.01-.08.01-.12.01zm0 2.55a.5.5 0 0 1-.49-.38c-.07-.27.1-.54.37-.61l7.21-1.79c.27-.07.54.1.61.37s-.1.54-.37.61l-7.21 1.79c-.04.01-.08.01-.12.01zm0 2.55a.5.5 0 0 1-.49-.38c-.07-.27.1-.54.37-.61l4.4-1.09c.27-.07.54.1.61.37s-.1.54-.37.61l-4.4 1.09c-.04.01-.08.01-.12.01zm17.13-1.07c.08 0 .15.07.15.15v5.77 1.73h1.73 5.77c.08 0 .15.07.15.15v4.2c0 .08-.07.15-.15.15h-5.77-1.73v1.73 5.77c0 .08-.07.15-.15.15h-4.2c-.08 0-.15-.07-.15-.15v-5.77-1.73h-1.73-5.77c-.08 0-.15-.07-.15-.15v-4.2c0-.08.07-.15.15-.15h5.77 1.73v-1.73-5.77c0-.08.07-.15.15-.15h4.2m0-1.73h-4.2a1.89 1.89 0 0 0-1.88 1.88v5.77h-5.77a1.89 1.89 0 0 0-1.88 1.88v4.2a1.89 1.89 0 0 0 1.88 1.88h5.77v5.77a1.89 1.89 0 0 0 1.88 1.88h4.2a1.89 1.89 0 0 0 1.88-1.88v-5.77h5.77a1.89 1.89 0 0 0 1.88-1.88v-4.2a1.89 1.89 0 0 0-1.88-1.88h-5.77v-5.77c0-1.04-.85-1.88-1.88-1.88h0z"/></svg>