<svg xmlns="http://www.w3.org/2000/svg" xmlns:xlink="http://www.w3.org/1999/xlink" viewBox="0 0 62 62" xmlns:v="https://vecta.io/nano"><path d="M31 2.23c3.88 0 7.65.76 11.2 2.26 3.43 1.45 6.5 3.52 9.14 6.17a28.76 28.76 0 0 1 6.17 9.14c1.5 3.55 2.26 7.31 2.26 11.2s-.76 7.65-2.26 11.2c-1.45 3.43-3.52 6.5-6.17 9.14a28.76 28.76 0 0 1-9.14 6.17c-3.55 1.5-7.31 2.26-11.2 2.26s-7.65-.76-11.2-2.26c-3.43-1.45-6.5-3.52-9.14-6.17a28.76 28.76 0 0 1-6.17-9.14c-1.5-3.55-2.26-7.31-2.26-11.2s.76-7.65 2.26-11.2c1.45-3.43 3.52-6.5 6.17-9.14a28.76 28.76 0 0 1 9.14-6.17c3.55-1.5 7.32-2.26 11.2-2.26M31 0C13.88 0 0 13.88 0 31s13.88 31 31 31 31-13.88 31-31S48.12 0 31 0h0z" fill="#fff"/><defs><path id="A" d="M23.83 27.44l1.11 4.25 1.55 3.22 3.28 2.96 4.83 2.36 2.47.56 13.86.7-15.35 10.5c-.23.05-8.36.51-8.82.51-.47 0-6.12.61-6.82.56s-6.68-.89-6.96-1.07c-.28-.19-1.68.05-2.75-.89-1.07-.93-6.3-13.54-6.3-13.86s.98-11.29.98-11.48 3.17-8.08 3.5-8.36 9.43-1.87 9.43-1.87l5.99 11.91z"/></defs><clipPath id="B"><use xlink:href="#A"/></clipPath><g clip-path="url(#B)"><path d="M37.91 37.78c-.93-1.66-2.48-2.89-4.31-3.42a.54.54 0 0 0-.65.4c-.06.26.08.53.34.63 4.46 1.39 5.16 5.82 3.23 9.05-.8 1.38-2.48 2.66-3.57 3.36l.19-1.23c.29-2.69.84-5.6-.8-8.02-.17-.22-3.09-3.54-4.39-4.77a31.16 31.16 0 0 1-5.25-5.98c-1.85-2.66-2.76-4.46-4.61-6.57-.72-.93-2.07-.93-3.15-1a2.9 2.9 0 0 0-2.33.85c-.65.62-1.38 1.16-2.15 1.62l-2.22 1.23c-.74.4-1.04 1.3-.71 2.06l.51 1.18a3.01 3.01 0 0 0 3.1 1.73l1.08-.15c.34-.04.66.18.73.51.29.88-.11 2.01-.33 2.87-.47 1.81-.1 3.72.99 5.24l1.31 1.82c.56 1.53.79 3.16.65 4.78l-.2 2.15c0 .34-.46.68-.66.91-.38.3-1 .58-1 1.17v.58a.54.54 0 0 0 .54.54h2.53c.27.03.76-.47.97-.59.47-.35.79-.88.88-1.46l1.12-7.11 1.3 2.53c-.09 1.33.5 2.65 1.13 3.8h-1.39a1.3 1.3 0 0 0-1.3 1.3v.02l.03 1.03a.54.54 0 0 0 .54.54h12.22a.57.57 0 0 0 .22-.04c.73-.32 3.72-2.15 4.99-4.31.48-.96 2.06-4.14.42-7.25zM17.09 21.77l-.87 3.3c-.17.43-.41.82-.71 1.16-.17-.3-.29-.62-.37-.96-.43-1.08-.36-2.48-.13-4 .59.1 1.65.03 2.08.5zm3.42 26.01c0-.12.1-.23.23-.23l2.26.03c.3 0 .54-.23.55-.53 0-.08-.02-.17-.05-.24l-.92-1.84c-1.11-2.06-.37-5.28 2.22-5.65l2.48-.39c.29-.05.49-.32.45-.61-.05-.29-.32-.49-.61-.45l-2.48.39c-1.5.24-2.76 1.27-3.29 2.69l-1.42-2.8c-.13-.27-.46-.37-.72-.24-.15.08-.26.22-.29.39l-1.35 8.86c-.04.54-.58.85-.96 1.14h-1.73a5.06 5.06 0 0 0 1.08-.93 1.81 1.81 0 0 0 .5-1.08l.2-2.15c.15-1.81-.1-3.63-.73-5.33-.46-1.47-.5-3.04-.11-4.54a.55.55 0 0 0-.39-.66.55.55 0 0 0-.66.39c-.23.91-.33 1.84-.29 2.78-.89-1.25-1.18-2.83-.8-4.31.25-.99.65-2.19.37-3.2a1.77 1.77 0 0 0-1.96-1.52l-1.08.15c-.84.09-1.64-.38-1.98-1.15l-.53-1.19c-.11-.26-.01-.56.24-.69l2.23-1.23c1.08-.54 2.04-1.62 2.92-2.15-.26 1.38-.19 2.8.22 4.14.2 1.03.96 2.29 2.04 1.52.48-.49.85-1.07 1.08-1.71l.71-2.69c2.6 3.47 5.07 8.16 8.57 11.18 1.33 1.13 4.47 4.7 4.96 5.26 1.37 2.01.87 4.74.61 7.25l-.28 1.84H20.54l-.03-.5z" fill="#fff"/></g><g fill="#fff"><path d="M38.67 11.53a14.31 14.31 0 0 1 10.2 4.23c2.73 2.73 4.23 6.35 4.23 10.2a14.31 14.31 0 0 1-4.23 10.2c-2.73 2.73-6.35 4.23-10.2 4.23a14.31 14.31 0 0 1-10.2-4.23c-2.73-2.73-4.23-6.35-4.23-10.2a14.31 14.31 0 0 1 4.23-10.2 14.31 14.31 0 0 1 10.2-4.23m0-.86c-8.45 0-15.3 6.85-15.3 15.3s6.85 15.3 15.3 15.3 15.3-6.85 15.3-15.3-6.85-15.3-15.3-15.3h0zm-.77 23c-.37 0-1.32-.1-2.1-.98-.73-.83-.9-2.15-.51-3.95-.41.03-.73-.01-1.33-.12.26 1.47-.26 2.19-.32 2.28-.81 1.05-2.21 1.12-3.18.64-1.07-.53-1.3-1.92-1.26-2.81l-.58.17c-.55.18-1.03.33-2.13.32-.17 0-.31-.14-.31-.31s.14-.3.31-.31c1 .01 1.41-.12 1.94-.29.29-.09.61-.2 1.07-.29.1-.02.21.01.28.09.07.07.1.18.08.28-.11.52-.12 2.11.87 2.59 1.09.54 2.04.02 2.42-.46.42-.55.22-1.78.11-2.21a.31.31 0 0 1 .07-.29c.07-.08.18-.11.29-.09 1.12.22 1.33.25 2.03.15.1-.02.21.02.28.1s.1.18.07.28c-.46 1.78-.36 3.1.27 3.82.61.69 1.35.77 1.63.77.06 0 .12 0 .18-.01h.02c.81-.08 1.42-.4 1.87-.99.57-.73.37-2.26 0-3.45-.03-.11-.01-.23.07-.31s.2-.11.31-.08c.67.2.99.15 1.48.07l.43-.06c.11-.01.21.03.28.11a.28.28 0 0 1 .05.29s-.17.54-.14 1.05c.08 1.32.67 1.96 1.82 1.96h.02c.94-.01 1.76-.78 1.76-1.65 0-.56-.12-1.12-.24-1.69-.02-.09 0-.18.05-.25s.13-.12.22-.13l.36-.04c1.34-.15 2.02-.22 3.43.17.17.05.26.22.22.38-.05.16-.22.26-.38.22-1.3-.36-1.9-.29-3.2-.15h-.02c.1.49.18.97.18 1.48 0 1.22-1.09 2.26-2.37 2.27h-.03c-1.47 0-2.34-.9-2.44-2.54-.02-.29.02-.58.06-.81-.37.06-.71.1-1.18.03.25.98.48 2.57-.24 3.5-.55.72-1.33 1.13-2.3 1.22h-.01c-.09.02-.17.03-.26.03zm-.02-1.21c-.42 0-.82-.19-1.12-.54-.43-.51-.6-1.29-.47-2.14.76-4.73 1.53-7 2.22-9.01.45-1.3.87-2.53 1.21-4.26.03-.16.18-.26.34-.25.16.02.28.15.28.31-.04 2.07-.36 3.69-.66 5.25-.49 2.53-.92 4.71-.08 8.2.21.89-.03 1.45-.28 1.76-.39.51-1 .68-1.44.68zm1.47-12.2l-.24.71c-.68 1.98-1.45 4.23-2.2 8.9-.11.67.01 1.27.33 1.64.18.21.41.32.64.32.28 0 .7-.12.95-.44.23-.3.29-.71.16-1.23-.87-3.62-.41-5.97.08-8.46l.28-1.44zm4.82 10.94c-.33 0-.65-.15-.88-.43-.33-.39-.47-.99-.36-1.64.56-3.49 1.13-5.17 1.64-6.65.33-.95.63-1.85.88-3.11a.31.31 0 0 1 .34-.25.31.31 0 0 1 .27.33l-.42 4.03c-.28 2.06-.49 3.69-.12 5.85.13.72-.09 1.16-.29 1.39-.25.3-.65.48-1.06.48zm.93-8.37c-.49 1.42-1.03 3.08-1.56 6.39-.08.47.01.89.22 1.14.12.14.26.21.41.21a.81.81 0 0 0 .59-.26c.17-.2.22-.5.15-.89-.39-2.24-.17-3.92.12-6.03l.07-.56zm-13.53 8.02c-.33 0-.65-.15-.88-.43-.33-.39-.47-.99-.36-1.64.52-3.23 1.08-4.83 1.58-6.23.39-1.09.72-2.02.94-3.51.02-.16.16-.27.32-.26s.29.14.29.3c.07 2.23-.17 3.79-.37 5.18-.23 1.54-.42 2.87-.17 4.74.1.74-.12 1.18-.33 1.41-.25.27-.62.44-1.02.44zm1.18-8.84l-.26.74c-.49 1.38-1.05 2.95-1.56 6.12-.08.47.01.89.22 1.14.12.14.26.21.41.21.08 0 .36-.02.55-.24.17-.2.24-.52.18-.92-.26-1.95-.06-3.32.17-4.91l.29-2.14z"/><circle cx="31.26" cy="32.76" r=".41"/><circle cx="28.16" cy="31.12" r=".41"/><circle cx="46.11" cy="32.3" r=".41"/><circle cx="48.12" cy="29.69" r=".41"/></g></svg>