<svg xmlns="http://www.w3.org/2000/svg" width="91.783" height="33.75" viewBox="0 0 91.783 33.75">
  <g id="IAMS_Puppy_lockup" data-name="IAMS Puppy lockup" transform="translate(0 0)">
    <g id="PUPPY" transform="translate(0 23.447)">
      <path id="Y" d="M72.883,49.78H69.514v-4.1L65.736,39.76H69.8L71.383,42.7,72.9,39.76H76.86l-3.977,5.916Z" transform="translate(-26.971 -39.76)" fill="#fff"/>
      <path id="P" d="M55.145,46.553V49.78H51.791V39.76h4.3a6.927,6.927,0,0,1,1.5.163,3.818,3.818,0,0,1,1.316.552,2.9,2.9,0,0,1,.934,1.033,3.842,3.842,0,0,1,.007,3.206,3.042,3.042,0,0,1-.92,1.061,3.808,3.808,0,0,1-1.316.594,6.306,6.306,0,0,1-1.521.184Zm0-4.175v1.613h.708a1.336,1.336,0,0,0,.7-.191.691.691,0,0,0,.318-.644.78.78,0,0,0-.085-.389.617.617,0,0,0-.234-.234,1.073,1.073,0,0,0-.333-.12,1.944,1.944,0,0,0-.368-.035Z" transform="translate(-21.25 -39.76)" fill="#fff"/>
      <path id="P-2" data-name="P" d="M38.61,46.553V49.78H35.256V39.76h4.3a6.927,6.927,0,0,1,1.5.163,3.818,3.818,0,0,1,1.316.552,2.9,2.9,0,0,1,.934,1.033,3.842,3.842,0,0,1,.007,3.206,3.042,3.042,0,0,1-.92,1.061,3.808,3.808,0,0,1-1.316.594,6.306,6.306,0,0,1-1.521.184Zm0-4.175v1.613h.708a1.336,1.336,0,0,0,.7-.191.691.691,0,0,0,.318-.644.78.78,0,0,0-.085-.389.617.617,0,0,0-.234-.234,1.074,1.074,0,0,0-.333-.12,1.944,1.944,0,0,0-.368-.035Z" transform="translate(-14.465 -39.76)" fill="#fff"/>
      <path id="U" d="M20.937,50.063a5.832,5.832,0,0,1-2.045-.326,4.1,4.1,0,0,1-1.451-.892,3.555,3.555,0,0,1-.863-1.337,4.79,4.79,0,0,1-.283-1.663V39.76h3.368v5.718A1.672,1.672,0,0,0,20.01,46.6a1.4,1.4,0,0,0,1.967,0,1.672,1.672,0,0,0,.347-1.125V39.76h3.354v6.086a4.491,4.491,0,0,1-.3,1.663,3.7,3.7,0,0,1-.9,1.337A4.23,4.23,0,0,1,23,49.738a5.952,5.952,0,0,1-2.059.326" transform="translate(-6.686 -39.76)" fill="#fff"/>
      <path id="P-3" data-name="P" d="M3.354,46.553V49.78H0V39.76H4.3a6.927,6.927,0,0,1,1.5.163,3.818,3.818,0,0,1,1.316.552,2.9,2.9,0,0,1,.934,1.033,3.842,3.842,0,0,1,.007,3.206,3.042,3.042,0,0,1-.92,1.061,3.808,3.808,0,0,1-1.316.594,6.306,6.306,0,0,1-1.521.184Zm0-4.175v1.613h.708a1.336,1.336,0,0,0,.7-.191.691.691,0,0,0,.318-.644A.78.78,0,0,0,5,42.768a.617.617,0,0,0-.234-.234,1.073,1.073,0,0,0-.333-.12,1.944,1.944,0,0,0-.368-.035Z" transform="translate(0 -39.76)" fill="#fff"/>
    </g>
    <g id="IAMS_lockup" data-name="IAMS lockup" transform="translate(0.021 0)">
      <path id="TM" d="M152.2,18.144v.2h.3v.8h.226v-.8h.3v-.2Zm1.8,0-.263.421-.263-.421h-.239v1h.214v-.677l.277.438h.019l.275-.438v.675h.214v-1Z" transform="translate(-62.466 -7.444)" fill="#fff"/>
      <path id="paw_print" data-name="paw print" d="M144.244,21.167a3.189,3.189,0,1,0,3.145,3.231v-.042a3.17,3.17,0,0,0-3.145-3.189" transform="translate(-57.878 -8.684)" fill="#fff"/>
      <path id="paw_print-2" data-name="paw print" d="M145.28,12.019a3.122,3.122,0,1,0,0,.007v-.007" transform="translate(-57.099 -3.684)" fill="#fff"/>
      <path id="paw_print-3" data-name="paw print" d="M132.64,6.567a3.125,3.125,0,1,0-3.079-3.17c0,.017,0,.033,0,.05a3.1,3.1,0,0,0,3.08,3.121" transform="translate(-53.179 -0.13)" fill="#fff"/>
      <path id="paw_print-4" data-name="paw print" d="M119.772,6.377a3.189,3.189,0,1,0-3.148-3.23v.04a3.171,3.171,0,0,0,3.148,3.19" transform="translate(-47.871 0)" fill="#fff"/>
      <path id="paw_print-5" data-name="paw print" d="M123.15,11.935a6.626,6.626,0,1,1-6.54,6.71c0-.029,0-.057,0-.086a6.586,6.586,0,0,1,6.541-6.624" transform="translate(-47.865 -4.896)" fill="#fff"/>
      <path id="S" d="M95.064,7.2c-.531-.206-1.2-.78-1.027-1.375a1.146,1.146,0,0,1,1.426-.752,5.017,5.017,0,0,1,1.7,1.092,2.78,2.78,0,0,0,3.086.4,2.417,2.417,0,0,0,.816-3.125A5.426,5.426,0,0,0,97.342.624c-2.406-.569-6.383-.788-8.518,2.5a6.706,6.706,0,0,0-.277,5.918c1.051,2.256,3.656,2.969,5.864,3.6.675.2,1.629.666,1.363,1.5a1.173,1.173,0,0,1-1.344.708,4.8,4.8,0,0,1-2.262-1.148,4.765,4.765,0,0,0-2.631-.872c-1.91.022-2.754,2.262-2.212,3.9a3.567,3.567,0,0,0,.78,1.319,11.006,11.006,0,0,0,1.024.841c2.464,1.9,7.8,2.219,10.73-.038a6.352,6.352,0,0,0,2.2-4.423c.338-4.562-3.679-5.942-6.991-7.229" transform="translate(-35.784 -0.118)" fill="#fff"/>
      <path id="M" d="M68.573,15.783,66.662,3.622C66.433,2.193,65.876.28,63.5.264c-2.123-.014-2.43.7-3.538,2.869L57.323,9.377l-2.64-6.246C53.572.969,53.268.251,51.145.263c-2.379.014-2.936,1.926-3.168,3.354L46.062,15.779c-.049.3-.069.64-.118.97a3.184,3.184,0,0,0,2.924,3.425c.087.007.174.01.261.01A2.886,2.886,0,0,0,52.174,17.7l.813-4.038,1.5,3.914c.556,1.074,1.179,2.61,2.823,2.61,1.628,0,2.35-1.533,2.869-2.61l1.543-4.01.728,4.137A2.912,2.912,0,0,0,65.5,20.186a3.151,3.151,0,0,0,3.181-3.434c-.054-.33-.059-.661-.113-.97" transform="translate(-18.868 -0.108)" fill="#fff"/>
      <path id="A" d="M21.944,13.142a1.6,1.6,0,1,1,1.582-1.625v.018a1.592,1.592,0,0,1-1.578,1.606h0m8.883,2.825L26.04,4.562c-.821-2.1-1.491-4.274-4.054-4.274-2.627,0-3.285,2.241-4.15,4.3L13.143,15.967c-.739,1.94-.177,3.466,1.458,4.164a3.034,3.034,0,0,0,4.069-1.86L19.7,16.177h4.777l.87,2.094a2.949,2.949,0,0,0,3.661,2,3.024,3.024,0,0,0,.368-.136c1.632-.7,2.2-2.224,1.459-4.162" transform="translate(-5.282 -0.118)" fill="#fff"/>
      <path id="I" d="M3.181.193A3.049,3.049,0,0,0,.036,3.112V17.343a2.972,2.972,0,0,0,.938,2.111,2.791,2.791,0,0,0,2.208.854A3.179,3.179,0,0,0,6.3,17.351l0-14.212A3.066,3.066,0,0,0,3.182.191" transform="translate(-0.036 -0.078)" fill="#fff"/>
    </g>
  </g>
</svg>
