<svg id="IAMS_FOR_LIFE_lockup_-_linear" data-name="IAMS FOR LIFE lockup - linear" xmlns="http://www.w3.org/2000/svg" width="129.931" height="12.161" viewBox="0 0 129.931 12.161">
  <path id="FOR_LIFE" data-name="FOR LIFE" d="M418.851,72.017H427v-3.2h-4.526V67.748h3.993V64.757h-3.993v-.986h4.252v-3.2h-7.873Zm-5.414-8.229H417.4V60.57H409.67V72.017h3.783v-3.88h3.476V64.984h-3.492ZM403.8,72.017h3.88V60.57H403.8Zm-8.631,0h7.679V68.7h-3.8V60.57h-3.88ZM383.6,63.561h.915a3.339,3.339,0,0,1,.385.024,1.146,1.146,0,0,1,.385.113.728.728,0,0,1,.289.267.909.909,0,0,1,.113.486.811.811,0,0,1-.137.493.975.975,0,0,1-.337.291,1.313,1.313,0,0,1-.433.137,3.064,3.064,0,0,1-.426.032H383.6Zm-3.7,8.455h3.734v-4.09h.113l2.193,4.09h4.419l-2.9-4.64a3.242,3.242,0,0,0,2-3.088,3.644,3.644,0,0,0-.4-1.8,3.232,3.232,0,0,0-1.059-1.148,4.241,4.241,0,0,0-1.487-.6,8.4,8.4,0,0,0-1.673-.169H379.9Zm-9.868-6.8a2.231,2.231,0,0,1,.469-.776,2.115,2.115,0,0,1,.72-.494,2.3,2.3,0,0,1,.9-.178,2.218,2.218,0,0,1,1.617.671,2.178,2.178,0,0,1,.477.776,2.913,2.913,0,0,1,.169,1.01,3.027,3.027,0,0,1-.169,1.034,2.424,2.424,0,0,1-.477.808,2.14,2.14,0,0,1-1.617.712,2.21,2.21,0,0,1-.9-.186,2.047,2.047,0,0,1-.72-.525,2.489,2.489,0,0,1-.469-.808,3.026,3.026,0,0,1-.169-1.034,2.912,2.912,0,0,1,.169-1.01m-3.775,3.516a5.71,5.71,0,0,0,1.334,1.932A5.936,5.936,0,0,0,369.6,71.9a7.495,7.495,0,0,0,5.044,0,6.029,6.029,0,0,0,2.021-1.236,5.66,5.66,0,0,0,1.342-1.932,6.3,6.3,0,0,0,.485-2.506,6.121,6.121,0,0,0-.485-2.482,5.472,5.472,0,0,0-1.342-1.883,6.031,6.031,0,0,0-2.021-1.2,7.781,7.781,0,0,0-5.044,0,5.938,5.938,0,0,0-2.013,1.2,5.519,5.519,0,0,0-1.334,1.883,6.124,6.124,0,0,0-.485,2.482,6.3,6.3,0,0,0,.485,2.506m-5.131-4.947h3.96V60.57h-7.727V72.017h3.783v-3.88h3.476V64.984h-3.492Z" transform="translate(-297.068 -60.179)" fill="#fff"/>
  <g id="IAMS_logo" data-name="IAMS logo" transform="translate(0)">
    <path id="Path_3372" data-name="Path 3372" d="M61.793,60.247a1.825,1.825,0,0,0-1.883,1.747v8.518a1.778,1.778,0,0,0,.561,1.263,1.671,1.671,0,0,0,1.322.512,1.9,1.9,0,0,0,1.866-1.77l0-8.505a1.835,1.835,0,0,0-1.868-1.764" transform="translate(-59.91 -60.179)" fill="#fff"/>
    <path id="Path_3373" data-name="Path 3373" d="M153.366,69.655l-1.144-7.279c-.137-.856-.47-2-1.894-2.01-1.271-.008-1.454.422-2.119,1.717l-1.578,3.738-1.578-3.738c-.665-1.295-.846-1.724-2.118-1.717-1.424.008-1.757,1.153-1.9,2.007l-1.146,7.28c-.029.182-.041.383-.069.58a1.907,1.907,0,0,0,1.907,2.056,1.727,1.727,0,0,0,1.823-1.489l.486-2.417.9,2.343c.332.643.706,1.562,1.69,1.562s1.407-.919,1.717-1.562l.923-2.4.435,2.476a1.743,1.743,0,0,0,1.825,1.488,1.886,1.886,0,0,0,1.9-2.055c-.032-.2-.036-.4-.067-.58" transform="translate(-123.617 -60.273)" fill="#fff"/>
    <path id="Path_3374" data-name="Path 3374" d="M216.361,64.546c-.319-.123-.718-.467-.615-.823a.686.686,0,0,1,.854-.45,3,3,0,0,1,1.02.653,1.664,1.664,0,0,0,1.847.242,1.448,1.448,0,0,0,.488-1.872,3.247,3.247,0,0,0-2.231-1.69c-1.439-.341-3.82-.472-5.1,1.5a4.014,4.014,0,0,0-.165,3.542c.629,1.35,2.188,1.777,3.51,2.157.4.118.975.4.816.9a.7.7,0,0,1-.8.423,2.873,2.873,0,0,1-1.354-.687,2.852,2.852,0,0,0-1.574-.522c-1.143.013-1.648,1.354-1.324,2.334a2.137,2.137,0,0,0,.467.79,6.522,6.522,0,0,0,.613.5,5.993,5.993,0,0,0,6.422-.023,3.8,3.8,0,0,0,1.314-2.649c.2-2.731-2.2-3.557-4.184-4.327" transform="translate(-180.881 -60.306)" fill="#fff"/>
    <path id="Path_3375" data-name="Path 3375" d="M266.823,80.692a3.966,3.966,0,1,1-3.915,3.965,3.942,3.942,0,0,1,3.915-3.965" transform="translate(-221.763 -76.48)" fill="#fff"/>
    <path id="Path_3376" data-name="Path 3376" d="M264.818,63.727a1.909,1.909,0,1,0-1.884-1.909,1.9,1.9,0,0,0,1.884,1.909" transform="translate(-221.784 -59.91)" fill="#fff"/>
    <path id="Path_3377" data-name="Path 3377" d="M287.3,64.2a1.871,1.871,0,1,0-1.844-1.868A1.858,1.858,0,0,0,287.3,64.2" transform="translate(-239.745 -60.345)" fill="#fff"/>
    <path id="Path_3378" data-name="Path 3378" d="M305.788,77.179a1.845,1.845,0,1,0-1.846,1.87,1.856,1.856,0,0,0,1.846-1.87" transform="translate(-253.01 -72.189)" fill="#fff"/>
    <path id="Path_3379" data-name="Path 3379" d="M307.52,96.768a1.908,1.908,0,1,0,1.882,1.909,1.9,1.9,0,0,0-1.882-1.909" transform="translate(-255.828 -89.297)" fill="#fff"/>
    <path id="Path_3380" data-name="Path 3380" d="M87.637,68.108a.96.96,0,1,1,.947-.962.954.954,0,0,1-.947.962M92.954,69.8l-2.865-6.826c-.491-1.254-.893-2.558-2.427-2.558-1.572,0-1.966,1.34-2.484,2.572L82.37,69.8a1.758,1.758,0,0,0,.872,2.492,1.816,1.816,0,0,0,2.435-1.113l.614-1.253h2.858l.521,1.253A1.789,1.789,0,1,0,92.954,69.8" transform="translate(-77.665 -60.313)" fill="#fff"/>
    <path id="Path_3381" data-name="Path 3381" d="M324.881,91.5v.12h.178V92.1h.136v-.478h.178V91.5Zm1.076,0-.156.252-.158-.252H325.5v.6h.127v-.4l.165.262h.011l.165-.262v.4h.129v-.6Z" transform="translate(-271.175 -85.096)" fill="#fff"/>
  </g>
</svg>
