<svg xmlns="http://www.w3.org/2000/svg" viewBox="0 0 72 72" fill="#fff" xmlns:v="https://vecta.io/nano"><path d="M36 0C16.12 0 0 16.12 0 36s16.12 36 36 36 36-16.12 36-36S55.88 0 36 0zm23.62 59.62c-3.07 3.07-6.64 5.48-10.62 7.16-4.12 1.74-8.49 2.62-13 2.62a33.18 33.18 0 0 1-13-2.62c-3.98-1.68-7.55-4.09-10.62-7.16S6.9 52.98 5.22 49C3.48 44.88 2.6 40.51 2.6 36a33.18 33.18 0 0 1 2.62-13c1.68-3.98 4.09-7.55 7.16-10.62S19.02 6.9 23 5.22c4.12-1.74 8.49-2.62 13-2.62a33.18 33.18 0 0 1 13 2.62c3.98 1.68 7.55 4.09 10.62 7.16S65.1 19.02 66.78 23c1.74 4.12 2.62 8.49 2.62 13a33.18 33.18 0 0 1-2.62 13c-1.68 3.98-4.09 7.55-7.16 10.62zM46.48 17.04l-5.38 9.31h-9.69l-5.43-9.41H14.23L8.36 27.12l5.4 9.36-5.4 9.36 5.88 10.18h11.75l5.38-9.31h10.7l5.38-9.31h10.79l5.88-10.18-5.88-10.18H46.48zm-31.25 1.63h9.76l4.88 8.45-4.88 8.45h-9.76l-4.88-8.45 4.88-8.45zm9.76 35.62h-9.76l-4.88-8.45 4.88-8.45h9.7l4.9 8.49-4.84 8.41zm16.08-9.31h-9.7l-4.9-8.49 4.85-8.4h9.76l4.88 8.45-4.89 8.44zm16.16-9.32h-9.76l-4.88-8.45 4.88-8.45h9.76l4.88 8.45-4.88 8.45z"/></svg>