<svg xmlns="http://www.w3.org/2000/svg" width="98.502" height="36.221" viewBox="0 0 98.502 36.221">
  <g id="IAMS_Puppy_lockup" data-name="IAMS Puppy lockup" transform="translate(0 0)">
    <g id="PUPPY" transform="translate(0 25.163)">
      <path id="Y" d="M73.406,50.514H69.791v-4.4L65.735,39.76h4.359l1.7,3.159,1.625-3.159h4.253l-4.268,6.349Z" transform="translate(-24.133 -39.76)" fill="#fff"/>
      <path id="P" d="M55.391,47.051v3.463h-3.6V39.76h4.617a7.433,7.433,0,0,1,1.61.175,4.1,4.1,0,0,1,1.413.592,3.118,3.118,0,0,1,1,1.109,4.123,4.123,0,0,1,.008,3.44,3.264,3.264,0,0,1-.987,1.139,4.086,4.086,0,0,1-1.413.638,6.768,6.768,0,0,1-1.633.2Zm0-4.481V44.3h.759A1.434,1.434,0,0,0,56.9,44.1a.741.741,0,0,0,.342-.691.837.837,0,0,0-.091-.418.662.662,0,0,0-.251-.251,1.152,1.152,0,0,0-.357-.129,2.087,2.087,0,0,0-.395-.038Z" transform="translate(-19.014 -39.76)" fill="#fff"/>
      <path id="P-2" data-name="P" d="M38.856,47.051v3.463h-3.6V39.76h4.617a7.433,7.433,0,0,1,1.61.175,4.1,4.1,0,0,1,1.413.592,3.117,3.117,0,0,1,1,1.109,4.124,4.124,0,0,1,.008,3.44,3.265,3.265,0,0,1-.987,1.139,4.086,4.086,0,0,1-1.413.638,6.768,6.768,0,0,1-1.633.2Zm0-4.481V44.3h.759a1.434,1.434,0,0,0,.752-.205.741.741,0,0,0,.342-.691.837.837,0,0,0-.091-.418.662.662,0,0,0-.251-.251,1.152,1.152,0,0,0-.357-.129,2.087,2.087,0,0,0-.395-.038Z" transform="translate(-12.943 -39.76)" fill="#fff"/>
      <path id="U" d="M21.277,50.818a6.258,6.258,0,0,1-2.195-.349,4.4,4.4,0,0,1-1.557-.957,3.815,3.815,0,0,1-.927-1.435,5.141,5.141,0,0,1-.3-1.785V39.76H19.91V45.9a1.8,1.8,0,0,0,.372,1.208,1.5,1.5,0,0,0,2.111,0,1.8,1.8,0,0,0,.372-1.208V39.76h3.6v6.531a4.82,4.82,0,0,1-.327,1.785,3.969,3.969,0,0,1-.965,1.435,4.54,4.54,0,0,1-1.587.957,6.387,6.387,0,0,1-2.21.349" transform="translate(-5.982 -39.76)" fill="#fff"/>
      <path id="P-3" data-name="P" d="M3.6,47.051v3.463H0V39.76H4.617a7.433,7.433,0,0,1,1.61.175,4.1,4.1,0,0,1,1.413.592,3.117,3.117,0,0,1,1,1.109,4.123,4.123,0,0,1,.008,3.44,3.264,3.264,0,0,1-.987,1.139,4.086,4.086,0,0,1-1.413.638,6.768,6.768,0,0,1-1.633.2Zm0-4.481V44.3h.759a1.434,1.434,0,0,0,.752-.205.741.741,0,0,0,.342-.691.837.837,0,0,0-.091-.418.662.662,0,0,0-.251-.251,1.152,1.152,0,0,0-.357-.129,2.087,2.087,0,0,0-.395-.038Z" transform="translate(0 -39.76)" fill="#fff"/>
    </g>
    <g id="IAMS_lockup" data-name="IAMS lockup" transform="translate(0.023 0)">
      <path id="TM" d="M152.2,18.144v.215h.32v.856h.243v-.859h.322v-.213Zm1.931,0-.282.452-.282-.452h-.257v1.071h.23v-.727l.3.47h.02l.295-.47v.724h.23V18.144Z" transform="translate(-55.897 -6.661)" fill="#fff"/>
      <path id="paw_print" data-name="paw print" d="M144.48,21.167a3.422,3.422,0,1,0,3.376,3.468v-.046a3.4,3.4,0,0,0-3.376-3.422" transform="translate(-51.792 -7.77)" fill="#fff"/>
      <path id="paw_print-2" data-name="paw print" d="M145.732,12.242a3.351,3.351,0,1,0,0,.008v-.008" transform="translate(-51.095 -3.296)" fill="#fff"/>
      <path id="paw_print-3" data-name="paw print" d="M132.865,7.025a3.354,3.354,0,1,0-3.3-3.4c0,.018,0,.035,0,.053a3.332,3.332,0,0,0,3.306,3.349" transform="translate(-47.587 -0.116)" fill="#fff"/>
      <path id="paw_print-4" data-name="paw print" d="M120,6.844a3.423,3.423,0,1,0-3.378-3.467v.043A3.4,3.4,0,0,0,120,6.844" transform="translate(-42.838 0)" fill="#fff"/>
      <path id="paw_print-5" data-name="paw print" d="M123.629,11.935a7.111,7.111,0,1,1-7.019,7.2c0-.031,0-.061,0-.092a7.068,7.068,0,0,1,7.02-7.109" transform="translate(-42.832 -4.381)" fill="#fff"/>
      <path id="S" d="M95.642,7.711c-.57-.221-1.287-.837-1.1-1.476a1.23,1.23,0,0,1,1.531-.807A5.384,5.384,0,0,1,97.9,6.6a2.983,2.983,0,0,0,3.312.434,2.594,2.594,0,0,0,.875-3.354,5.823,5.823,0,0,0-4-3.03C95.5.038,91.237-.2,88.946,3.332a7.2,7.2,0,0,0-.3,6.352c1.128,2.421,3.924,3.187,6.293,3.868.724.212,1.749.715,1.463,1.614a1.259,1.259,0,0,1-1.442.759,5.149,5.149,0,0,1-2.428-1.232,5.114,5.114,0,0,0-2.823-.936c-2.05.023-2.956,2.428-2.374,4.185a3.828,3.828,0,0,0,.837,1.416,11.811,11.811,0,0,0,1.1.9c2.644,2.035,8.374,2.382,11.515-.041a6.817,6.817,0,0,0,2.357-4.747c.363-4.9-3.949-6.378-7.5-7.758" transform="translate(-32.023 -0.106)" fill="#fff"/>
      <path id="M" d="M70.23,16.92,68.179,3.868c-.246-1.533-.843-3.587-3.4-3.6-2.278-.015-2.608.756-3.8,3.079l-2.829,6.7-2.833-6.7C54.132,1.02,53.8.25,51.526.263c-2.553.015-3.15,2.067-3.4,3.6L46.071,16.915c-.053.327-.074.687-.127,1.041a3.417,3.417,0,0,0,3.138,3.676c.093.008.187.011.28.011a3.1,3.1,0,0,0,3.268-2.669L53.5,14.64l1.613,4.2c.6,1.153,1.266,2.8,3.03,2.8,1.747,0,2.522-1.645,3.079-2.8l1.656-4.3.781,4.44a3.125,3.125,0,0,0,3.273,2.668,3.382,3.382,0,0,0,3.414-3.685c-.058-.354-.063-.709-.121-1.041" transform="translate(-16.886 -0.096)" fill="#fff"/>
      <path id="A" d="M22.612,14.083a1.721,1.721,0,1,1,1.7-1.744v.02a1.709,1.709,0,0,1-1.694,1.724h0m9.534,3.031L27.008,4.874c-.881-2.249-1.6-4.586-4.351-4.586-2.819,0-3.525,2.4-4.454,4.611L13.166,17.115c-.794,2.082-.19,3.72,1.564,4.469,1.782.749,3.521-.08,4.367-2l1.1-2.247h5.126l.933,2.247a3.165,3.165,0,0,0,3.929,2.143,3.245,3.245,0,0,0,.395-.146c1.752-.75,2.358-2.387,1.566-4.466" transform="translate(-4.73 -0.105)" fill="#fff"/>
      <path id="I" d="M3.412.193A3.272,3.272,0,0,0,.036,3.326V18.6a3.189,3.189,0,0,0,1.006,2.265,3,3,0,0,0,2.369.917,3.411,3.411,0,0,0,3.345-3.173l0-15.252A3.291,3.291,0,0,0,3.412.191" transform="translate(-0.036 -0.069)" fill="#fff"/>
    </g>
  </g>
</svg>
