<svg xmlns="http://www.w3.org/2000/svg" width="137.509" height="50.565" fill="#fff" xmlns:v="https://vecta.io/nano"><path d="M68.784 50.14h-5.043v-6.149l-5.665-8.863h6.086l2.379 4.41 2.269-4.41h5.931l-5.958 8.863zm-18.002-4.834v4.834h-5.025V35.128h6.446a10.38 10.38 0 0 1 2.248.24 5.72 5.72 0 0 1 1.972.827 4.35 4.35 0 0 1 1.4 1.548 5.76 5.76 0 0 1 .011 4.8c-.329.63-.801 1.175-1.378 1.59a5.7 5.7 0 0 1-1.972.891c-.746.184-1.511.277-2.279.276zm0-6.255v2.417h1.06a2 2 0 0 0 1.05-.286c.327-.207.511-.579.477-.965a1.17 1.17 0 0 0-.127-.583c-.083-.146-.204-.267-.35-.35a1.61 1.61 0 0 0-.5-.18c-.182-.035-.366-.053-.551-.053zm-14.609 6.255v4.834h-5.025V35.128h6.444a10.38 10.38 0 0 1 2.25.24 5.72 5.72 0 0 1 1.972.827 4.35 4.35 0 0 1 1.4 1.548 5.76 5.76 0 0 1 .011 4.8c-.329.63-.801 1.175-1.378 1.59a5.7 5.7 0 0 1-1.972.891c-.746.184-1.511.277-2.279.276zm0-6.255v2.417h1.06a2 2 0 0 0 1.05-.286c.327-.207.511-.579.477-.965a1.17 1.17 0 0 0-.127-.583c-.083-.146-.204-.267-.35-.35a1.61 1.61 0 0 0-.5-.18c-.182-.035-.366-.053-.551-.053zM21.352 50.568a8.75 8.75 0 0 1-3.064-.488c-.81-.288-1.55-.744-2.173-1.336a5.34 5.34 0 0 1-1.293-2 7.17 7.17 0 0 1-.424-2.491v-9.125h5.047v8.566c-.037.606.147 1.206.519 1.686a2.1 2.1 0 0 0 2.947 0c.372-.48.556-1.08.519-1.686v-8.566h5.025v9.118a6.73 6.73 0 0 1-.456 2.491 5.54 5.54 0 0 1-1.346 2 6.33 6.33 0 0 1-2.216 1.336 8.92 8.92 0 0 1-3.085.488M5.025 45.306v4.834H0V35.128h6.446a10.38 10.38 0 0 1 2.248.24 5.72 5.72 0 0 1 1.972.827 4.35 4.35 0 0 1 1.4 1.548 5.76 5.76 0 0 1 .011 4.8c-.329.63-.801 1.175-1.378 1.59a5.7 5.7 0 0 1-1.972.891c-.746.184-1.511.277-2.279.276zm0-6.255v2.417h1.06a2 2 0 0 0 1.05-.286c.327-.207.511-.579.477-.965a1.17 1.17 0 0 0-.127-.583c-.083-.146-.204-.267-.35-.35a1.61 1.61 0 0 0-.5-.18c-.182-.035-.366-.053-.551-.053zm129.443-23.02v.3h.446v1.2h.339v-1.2h.449v-.3zm2.7 0l-.394.631-.394-.631h-.359v1.5h.321v-1.018l.414.656h.028l.412-.656v1.011h.321v-1.493zm-7.743 2.67a4.78 4.78 0 0 0-4.84 4.713 4.78 4.78 0 0 0 4.712 4.84 4.78 4.78 0 0 0 4.841-4.712v-.064a4.75 4.75 0 0 0-4.713-4.777m2.719-6.213a4.68 4.68 0 0 0-4.681-4.672 4.68 4.68 0 0 0-4.675 4.678 4.68 4.68 0 0 0 4.675 4.678 4.68 4.68 0 0 0 4.681-4.672v-.011m-13.063-2.844a4.68 4.68 0 0 0 4.368-2.828c.75-1.74.379-3.759-.941-5.118S119.18-.089 117.42.61s-2.926 2.391-2.953 4.285v.074a4.65 4.65 0 0 0 4.615 4.675m-11.329-.089a4.78 4.78 0 0 0 4.839-4.716A4.78 4.78 0 0 0 107.877 0a4.78 4.78 0 0 0-4.84 4.715v.06a4.75 4.75 0 0 0 4.716 4.78"/><path d="M112.824 10.545a9.93 9.93 0 0 1 10.052 9.8 9.93 9.93 0 0 1-9.8 10.053 9.93 9.93 0 0 1-10.053-9.799v-.129a9.87 9.87 0 0 1 9.8-9.924m-23.978.071c-.8-.308-1.8-1.169-1.538-2.06.283-.899 1.237-1.401 2.138-1.127a7.53 7.53 0 0 1 2.552 1.637c1.273 1.126 3.103 1.366 4.623.605 1.545-1.019 2.073-3.039 1.225-4.684A8.13 8.13 0 0 0 92.257.759c-3.6-.853-9.563-1.181-12.761 3.746-1.507 2.731-1.66 6.007-.414 8.867 1.575 3.379 5.478 4.448 8.785 5.4 1.011.3 2.441 1 2.042 2.253a1.76 1.76 0 0 1-2.013 1.06c-1.344-.1-2.328-.995-3.389-1.719a7.14 7.14 0 0 0-3.941-1.307c-2.862.033-4.126 3.389-3.314 5.843.242.736.641 1.41 1.169 1.976a16.49 16.49 0 0 0 1.535 1.26c3.691 2.841 11.689 3.325 16.075-.057a9.52 9.52 0 0 0 3.29-6.626c.507-6.835-5.512-8.9-10.474-10.831M74.5 23.486L71.637 5.27C71.294 3.125 70.46.259 66.896.235c-3.181-.02-3.641 1.055-5.3 4.3l-3.947 9.353-3.958-9.357c-1.664-3.241-2.12-4.317-5.3-4.3-3.564.02-4.4 2.885-4.747 5.024l-2.869 18.224-.177 1.453a4.77 4.77 0 0 0 4.38 5.131l.39.015c2.262.146 4.253-1.48 4.562-3.726l1.217-6.05L53.4 26.17c.832 1.61 1.767 3.91 4.229 3.91 2.439 0 3.521-2.3 4.3-3.91l2.31-6.01 1.09 6.2c.327 2.238 2.311 3.855 4.569 3.724a4.72 4.72 0 0 0 4.766-5.145l-.169-1.453m-49.501-3.973a2.4 2.4 0 1 1 2.37-2.434v.027c.012 1.317-1.047 2.395-2.364 2.407h-.006m13.312 4.232L31.131 6.658c-1.23-3.14-2.234-6.4-6.074-6.4-3.935 0-4.921 3.357-6.218 6.437l-7.033 17.05c-1.108 2.906-.265 5.193 2.184 6.238 2.488 1.045 4.915-.111 6.1-2.787l1.536-3.137h7.156l1.3 3.137a4.42 4.42 0 0 0 5.485 2.992 4.53 4.53 0 0 0 .551-.2c2.446-1.047 3.292-3.333 2.186-6.235M4.745.172A4.57 4.57 0 0 0 .032 4.546v21.32a4.45 4.45 0 0 0 1.4 3.162 4.18 4.18 0 0 0 3.308 1.28c2.47-.042 4.498-1.966 4.67-4.43l.011-21.292C9.325 2.086 7.246.123 4.745.169"/></svg>