<svg xmlns="http://www.w3.org/2000/svg" viewBox="0 0 80 80" fill="#fff" xmlns:v="https://vecta.io/nano"><path d="M40 0C17.91 0 0 17.91 0 40s17.91 40 40 40 40-17.91 40-40S62.09 0 40 0zm26.25 66.25c-3.41 3.41-7.38 6.09-11.8 7.96-4.57 1.93-9.44 2.92-14.45 2.92s-9.87-.98-14.45-2.92c-4.42-1.87-8.39-4.55-11.8-7.96s-6.09-7.38-7.96-11.8C3.86 49.87 2.88 45.01 2.88 40s.98-9.87 2.92-14.45c1.87-4.42 4.55-8.39 7.96-11.8s7.38-6.09 11.8-7.96A36.92 36.92 0 0 1 40 2.88c5.01 0 9.87.98 14.45 2.92 4.42 1.87 8.39 4.55 11.8 7.96s6.09 7.38 7.96 11.8c1.93 4.57 2.92 9.44 2.92 14.45s-.98 9.87-2.92 14.45a37.25 37.25 0 0 1-7.96 11.79zM51.32 18.61l-5.97 10.35H34.59L29.3 19.8l2.96-5.17c.29.09.6.14.92.14 1.77 0 3.2-1.44 3.2-3.2 0-1.77-1.44-3.2-3.2-3.2a3.21 3.21 0 0 0-3.2 3.2 3.17 3.17 0 0 0 .69 1.98l-2.83 4.95H15.5L8.97 29.81l6 10.4-6 10.4 6.53 11.31h13.06l5.97-10.35h10.82c.02.11.06.21.12.31l3.3 5.48c.18.3.5.46.82.46a.87.87 0 0 0 .49-.14.97.97 0 0 0 .33-1.32l-3.3-5.48a1.24 1.24 0 0 0-.18-.22l5.46-9.46h11.99l6.53-11.31-6.53-11.31H51.32zm-18.14-8.32c.71 0 1.28.58 1.28 1.28 0 .71-.58 1.28-1.28 1.28a1.29 1.29 0 0 1-1.28-1.28 1.27 1.27 0 0 1 1.28-1.28zM16.6 20.42h10.84l5.42 9.39-5.42 9.39H16.6l-5.42-9.39 5.42-9.39zM27.44 60H16.6l-5.42-9.39 5.42-9.39h10.78l5.45 9.44L27.44 60zm17.87-10.35H34.53l-5.45-9.44 5.39-9.34h10.84l5.42 9.39-5.42 9.39zM63.27 39.3H52.43l-5.42-9.39 5.42-9.39h10.84l5.42 9.39-5.42 9.39zm-45.1-16.51c-.46-.26-1.05-.1-1.31.36l-3.17 5.55c-.26.46-.1 1.05.36 1.31a.91.91 0 0 0 .48.13c.33 0 .66-.17.83-.48l3.17-5.55c.26-.47.1-1.05-.36-1.32zm25.67 24.87a.91.91 0 0 0 .48.13c.33 0 .66-.17.83-.48l3.17-5.55c.26-.46.1-1.05-.36-1.31s-1.05-.1-1.31.36l-3.17 5.55c-.26.45-.1 1.04.36 1.3zM15.28 50.3a.97.97 0 0 0-1.32-.33.97.97 0 0 0-.33 1.32l3.3 5.48c.18.3.5.46.82.46a.87.87 0 0 0 .49-.14.97.97 0 0 0 .33-1.32l-3.29-5.47zM62 22.84a.97.97 0 0 0-.33 1.32l3.3 5.48c.18.3.5.46.82.46a.87.87 0 0 0 .49-.14.97.97 0 0 0 .33-1.32l-3.3-5.48c-.26-.44-.85-.59-1.31-.32z"/></svg>