<svg id="IAMS_FOR_LIFE_lockup" data-name="IAMS FOR LIFE lockup" xmlns="http://www.w3.org/2000/svg" width="156.638" height="63.556" viewBox="0 0 156.638 63.556">
  <path id="FOR_LIFE" data-name="FOR LIFE" d="M198.221,166.133h18.326v-7.2H206.367v-2.4h8.981v-6.727h-8.981v-2.217h9.562v-7.2H198.221Zm-12.177-18.509h8.91v-7.236H177.572v25.744h8.508v-8.727H193.9v-7.09h-7.856Zm-21.667,18.509H173.1V140.389h-8.727Zm-19.413,0h17.272v-7.455h-8.545v-18.29h-8.727Zm-26.029-19.018h2.057a7.536,7.536,0,0,1,.866.055,2.593,2.593,0,0,1,.866.253,1.637,1.637,0,0,1,.649.6,2.043,2.043,0,0,1,.252,1.092,1.836,1.836,0,0,1-.306,1.109,2.208,2.208,0,0,1-.757.655,2.947,2.947,0,0,1-.976.308,6.853,6.853,0,0,1-.956.073h-1.7Zm-8.326,19.018h8.4v-9.2h.253l4.933,9.2h9.94L127.6,155.7a7.291,7.291,0,0,0,4.5-6.946,8.2,8.2,0,0,0-.91-4.054,7.286,7.286,0,0,0-2.382-2.582,9.534,9.534,0,0,0-3.346-1.346,18.849,18.849,0,0,0-3.762-.381H110.609Zm-22.2-15.29a5.02,5.02,0,0,1,1.054-1.745,4.754,4.754,0,0,1,1.619-1.11,5.172,5.172,0,0,1,2.035-.4,5.047,5.047,0,0,1,2.019.4,4.987,4.987,0,0,1,1.617,1.11,4.873,4.873,0,0,1,1.074,1.745,6.55,6.55,0,0,1,.381,2.272,6.806,6.806,0,0,1-.381,2.327,5.421,5.421,0,0,1-1.074,1.818,4.807,4.807,0,0,1-3.636,1.6,4.969,4.969,0,0,1-2.035-.419,4.6,4.6,0,0,1-1.619-1.182,5.6,5.6,0,0,1-1.054-1.818,6.806,6.806,0,0,1-.381-2.327,6.55,6.55,0,0,1,.381-2.272m-8.49,7.909a12.858,12.858,0,0,0,3,4.345,13.352,13.352,0,0,0,4.528,2.781,16.857,16.857,0,0,0,11.344,0,13.558,13.558,0,0,0,4.546-2.781,12.75,12.75,0,0,0,3.018-4.345,14.162,14.162,0,0,0,1.09-5.637,13.77,13.77,0,0,0-1.09-5.582,12.31,12.31,0,0,0-3.018-4.236,13.564,13.564,0,0,0-4.546-2.692,17.5,17.5,0,0,0-11.344,0,13.356,13.356,0,0,0-4.528,2.692,12.411,12.411,0,0,0-3,4.236,13.77,13.77,0,0,0-1.09,5.582,14.162,14.162,0,0,0,1.09,5.637M68.382,147.624H77.29v-7.236H59.91v25.744h8.509v-8.727h7.817v-7.09H68.382Z" transform="translate(-59.91 -103.304)" fill="#fff"/>
  <g id="IAMS_logo" data-name="IAMS logo" transform="translate(18.071 0)">
    <path id="Path_3361" data-name="Path 3361" d="M103.783,60.247a4.105,4.105,0,0,0-4.234,3.93V83.334a4,4,0,0,0,1.262,2.841,3.757,3.757,0,0,0,2.972,1.151,4.279,4.279,0,0,0,4.2-3.981l.005-19.13a4.128,4.128,0,0,0-4.2-3.968" transform="translate(-99.549 -60.093)" fill="#fff"/>
    <path id="Path_3362" data-name="Path 3362" d="M209.937,81.26l-2.573-16.371c-.308-1.924-1.058-4.5-4.26-4.52-2.859-.018-3.271.948-4.767,3.862l-3.549,8.406-3.549-8.408c-1.5-2.912-1.9-3.879-4.765-3.862-3.2.018-3.952,2.593-4.265,4.515l-2.577,16.373c-.066.41-.093.862-.155,1.306a4.29,4.29,0,0,0,4.289,4.624,3.885,3.885,0,0,0,4.1-3.348l1.094-5.436,2.022,5.27c.748,1.446,1.588,3.514,3.8,3.514,2.192,0,3.164-2.066,3.862-3.514l2.077-5.4.979,5.569a3.92,3.92,0,0,0,4.1,3.346,4.241,4.241,0,0,0,4.282-4.623c-.073-.445-.082-.89-.151-1.306" transform="translate(-143.025 -60.158)" fill="#fff"/>
    <path id="Path_3363" data-name="Path 3363" d="M261.905,69.718c-.718-.277-1.614-1.05-1.382-1.851a1.543,1.543,0,0,1,1.92-1.012,6.754,6.754,0,0,1,2.294,1.47,3.741,3.741,0,0,0,4.154.543,3.256,3.256,0,0,0,1.1-4.21,7.3,7.3,0,0,0-5.018-3.8c-3.239-.766-8.592-1.061-11.466,3.366a9.029,9.029,0,0,0-.372,7.967c1.415,3.036,4.922,4,7.894,4.852.908.266,2.194.9,1.834,2.024a1.58,1.58,0,0,1-1.809.952,6.461,6.461,0,0,1-3.045-1.544,6.415,6.415,0,0,0-3.541-1.174c-2.571.029-3.707,3.045-2.978,5.25a4.807,4.807,0,0,0,1.05,1.776,14.68,14.68,0,0,0,1.379,1.132c3.317,2.553,10.5,2.987,14.444-.051a8.549,8.549,0,0,0,2.956-5.957c.456-6.142-4.953-8-9.411-9.732" transform="translate(-182.104 -60.18)" fill="#fff"/>
    <path id="Path_3364" data-name="Path 3364" d="M311.351,80.692a8.92,8.92,0,1,1-8.806,8.917,8.865,8.865,0,0,1,8.806-8.917" transform="translate(-210.004 -71.218)" fill="#fff"/>
    <path id="Path_3365" data-name="Path 3365" d="M306.81,68.5a4.293,4.293,0,1,0-4.238-4.294A4.27,4.27,0,0,0,306.81,68.5" transform="translate(-210.018 -59.91)" fill="#fff"/>
    <path id="Path_3366" data-name="Path 3366" d="M329.245,68.872a4.208,4.208,0,1,0-4.147-4.2,4.179,4.179,0,0,0,4.147,4.2" transform="translate(-222.275 -60.207)" fill="#fff"/>
    <path id="Path_3367" data-name="Path 3367" d="M350.036,79.513a4.151,4.151,0,1,0-4.152,4.207,4.175,4.175,0,0,0,4.152-4.207" transform="translate(-231.328 -68.289)" fill="#fff"/>
    <path id="Path_3368" data-name="Path 3368" d="M349.515,96.768a4.292,4.292,0,1,0,4.234,4.293,4.268,4.268,0,0,0-4.234-4.293" transform="translate(-233.251 -79.965)" fill="#fff"/>
    <path id="Path_3369" data-name="Path 3369" d="M134.095,77.717a2.158,2.158,0,1,1,2.13-2.163,2.146,2.146,0,0,1-2.13,2.163m11.959,3.806-6.444-15.354c-1.1-2.821-2.008-5.753-5.458-5.753-3.536,0-4.422,3.014-5.587,5.784l-6.317,15.317c-1,2.611-.237,4.666,1.962,5.605,2.236.939,4.417-.1,5.478-2.5l1.38-2.819H137.5l1.171,2.819a3.968,3.968,0,0,0,5.423,2.505c2.2-.941,2.958-2.994,1.964-5.6" transform="translate(-111.665 -60.185)" fill="#fff"/>
    <path id="Path_3370" data-name="Path 3370" d="M364.516,91.5v.27h.4V92.84h.3V91.766h.4V91.5Zm2.422,0-.354.567-.354-.567h-.323V92.84h.288v-.908l.372.589h.025l.37-.589v.908h.288V91.5Z" transform="translate(-243.724 -77.097)" fill="#fff"/>
  </g>
</svg>
