<svg xmlns="http://www.w3.org/2000/svg" viewBox="0 0 70 70" fill="#fff" xmlns:v="https://vecta.io/nano"><path d="M35 0C15.67 0 0 15.67 0 35s15.67 35 35 35 35-15.67 35-35S54.33 0 35 0zm22.97 57.97c-2.98 2.98-6.46 5.33-10.32 6.96-4 1.69-8.26 2.55-12.64 2.55-4.39 0-8.64-.86-12.64-2.55a32.41 32.41 0 0 1-10.32-6.96c-2.98-2.98-5.33-6.46-6.96-10.32-1.69-4-2.55-8.26-2.55-12.64 0-4.39.86-8.64 2.55-12.64a32.41 32.41 0 0 1 6.96-10.32c2.98-2.98 6.46-5.33 10.32-6.96 4-1.69 8.26-2.55 12.64-2.55 4.39 0 8.64.86 12.64 2.55a32.41 32.41 0 0 1 10.32 6.96c2.98 2.98 5.33 6.46 6.96 10.32 1.69 4 2.55 8.26 2.55 12.64 0 4.39-.86 8.64-2.55 12.64a32.63 32.63 0 0 1-6.96 10.32zM45.19 16.56l-5.23 9.05h-9.42l-5.28-9.15H13.84l-5.71 9.89 5.25 9.1-5.25 9.1 5.71 9.89h11.43l5.23-9.05h10.4l5.23-9.05h10.49l5.71-9.89-5.71-9.89H45.19zm-30.38 1.59h9.49l4.74 8.21-4.74 8.21h-9.49l-4.74-8.21 4.74-8.21zm9.48 34.63H14.8l-4.74-8.21 4.74-8.21h9.43L29 44.62l-4.71 8.16zm15.64-9.05H30.5l-4.77-8.26 4.72-8.17h9.49l4.74 8.21-4.75 8.22zm15.71-9.06h-9.49l-4.74-8.21 4.74-8.21h9.49l4.74 8.21-4.74 8.21z"/></svg>