<svg xmlns="http://www.w3.org/2000/svg" width="107.099" height="39.382" fill="#fff" xmlns:v="https://vecta.io/nano"><path d="M53.573 39.051h-3.93v-4.789l-4.409-6.9h4.74l1.85 3.435 1.767-3.435h4.624l-4.641 6.9zm-14.026-3.765v3.765h-3.909V27.359h5.02a8.08 8.08 0 0 1 1.751.19c.548.116 1.069.335 1.536.644a3.39 3.39 0 0 1 1.09 1.206 4.48 4.48 0 0 1 .012 3.74 3.55 3.55 0 0 1-1.073 1.239 4.44 4.44 0 0 1-1.536.694 7.36 7.36 0 0 1-1.775.215zm0-4.872v1.885h.826a1.56 1.56 0 0 0 .817-.223c.255-.161.398-.451.372-.751a.91.91 0 0 0-.1-.454.72.72 0 0 0-.267-.272 1.25 1.25 0 0 0-.388-.14 2.27 2.27 0 0 0-.429-.041zm-11.373 4.872v3.765H24.26V27.359h5.02a8.08 8.08 0 0 1 1.751.19c.548.116 1.069.335 1.536.644a3.39 3.39 0 0 1 1.09 1.206 4.48 4.48 0 0 1 .008 3.741 3.55 3.55 0 0 1-1.073 1.239 4.44 4.44 0 0 1-1.536.694 7.36 7.36 0 0 1-1.775.215zm0-4.872v1.885h.83a1.56 1.56 0 0 0 .817-.223c.255-.161.398-.451.372-.751a.91.91 0 0 0-.1-.454.72.72 0 0 0-.276-.272c-.121-.068-.252-.115-.388-.14a2.27 2.27 0 0 0-.425-.045zM16.63 39.382a6.8 6.8 0 0 1-2.386-.38 4.78 4.78 0 0 1-1.693-1.04 4.15 4.15 0 0 1-1.008-1.563 5.59 5.59 0 0 1-.33-1.94v-7.1h3.93v6.672a1.95 1.95 0 0 0 .4 1.313c.637.63 1.663.63 2.3 0a1.95 1.95 0 0 0 .4-1.313v-6.672h3.914v7.1a5.24 5.24 0 0 1-.355 1.94c-.231.591-.589 1.124-1.049 1.561-.498.462-1.085.816-1.726 1.04-.771.267-1.584.395-2.4.38M3.914 35.286v3.765H0V27.359h5.02a8.08 8.08 0 0 1 1.751.19c.548.116 1.069.335 1.536.644A3.39 3.39 0 0 1 9.4 29.399a4.48 4.48 0 0 1 .008 3.741 3.55 3.55 0 0 1-1.073 1.239 4.44 4.44 0 0 1-1.536.694 7.36 7.36 0 0 1-1.775.215zm0-4.872v1.885h.826a1.56 1.56 0 0 0 .817-.223c.255-.161.398-.451.372-.751a.91.91 0 0 0-.1-.454.72.72 0 0 0-.272-.272c-.121-.068-.252-.115-.388-.14a2.27 2.27 0 0 0-.429-.041zm100.818-17.929v.234h.348v.931h.264v-.934h.35v-.231zm2.1 0l-.307.491-.307-.491h-.286v1.165h.25v-.79l.323.511h.027l.321-.511v.787h.25v-1.162zm-6.029 2.081a3.72 3.72 0 1 0 3.67 3.77v-.05a3.7 3.7 0 0 0-3.67-3.721m2.118-4.838c-.002-2.011-1.634-3.64-3.645-3.639s-3.641 1.632-3.641 3.643 1.63 3.642 3.641 3.643 3.643-1.628 3.645-3.639v-.008M92.746 7.512c1.475.022 2.818-.847 3.402-2.202a3.65 3.65 0 0 0-.732-3.986C94.389.265 92.824-.069 91.454.475s-2.279 1.861-2.3 3.336v.058a3.62 3.62 0 0 0 3.594 3.641m-8.821-.068a3.721 3.721 0 1 0-3.673-3.769v.047a3.7 3.7 0 0 0 3.673 3.722"/><path d="M87.872 8.213a7.73 7.73 0 1 1-7.632 7.83v-.1c-.025-4.242 3.391-7.701 7.633-7.73m-18.676.055c-.619-.24-1.4-.91-1.2-1.6.22-.7.963-1.091 1.665-.877a5.85 5.85 0 0 1 1.99 1.269c.992.877 2.416 1.063 3.6.471a2.82 2.82 0 0 0 .952-3.647A6.33 6.33 0 0 0 71.855.59c-2.807-.664-7.448-.92-9.94 2.92-1.174 2.127-1.293 4.679-.323 6.906 1.227 2.632 4.266 3.465 6.843 4.206.787.231 1.9.778 1.59 1.755a1.37 1.37 0 0 1-1.568.826 5.6 5.6 0 0 1-2.642-1.342 5.56 5.56 0 0 0-3.07-1.018c-2.229.025-3.213 2.64-2.581 4.55a4.16 4.16 0 0 0 .91 1.539 12.96 12.96 0 0 0 1.2.981c2.875 2.213 9.1 2.589 12.52-.044a7.41 7.41 0 0 0 2.563-5.161c.395-5.323-4.293-6.934-8.158-8.436M58.025 18.291L55.794 4.1c-.267-1.667-.92-3.899-3.692-3.918-2.477-.016-2.836.822-4.129 3.348l-3.076 7.288-3.08-7.289C40.521 1.005 40.165.166 37.688.181c-2.776.016-3.425 2.247-3.7 3.913l-2.231 14.193-.138 1.132c-.079.983.237 1.957.877 2.707a3.72 3.72 0 0 0 2.535 1.293l.3.012a3.37 3.37 0 0 0 3.553-2.9l.948-4.712 1.753 4.568c.648 1.254 1.376 3.046 3.294 3.046 1.9 0 2.742-1.789 3.348-3.046l1.8-4.679.849 4.827a3.4 3.4 0 0 0 3.558 2.9 3.68 3.68 0 0 0 2.755-1.179c.709-.766 1.059-1.798.962-2.838l-.131-1.132m-38.553-3.089a1.871 1.871 0 1 1-.052-3.742 1.87 1.87 0 0 1 1.898 1.842v.021a1.86 1.86 0 0 1-1.841 1.874h0m10.366 3.3L24.247 5.185C23.289 2.739 22.506.198 19.516.198c-3.065 0-3.833 2.612-4.843 5.012L9.201 18.494c-.863 2.263-.206 4.045 1.7 4.859 1.938.814 3.828-.087 4.748-2.17l1.2-2.443h5.574l1.015 2.443a3.44 3.44 0 0 0 4.263 2.327 3.53 3.53 0 0 0 .429-.158c1.9-.815 2.564-2.6 1.7-4.856M3.695.134a3.56 3.56 0 0 0-3.67 3.407v16.605a3.47 3.47 0 0 0 1.094 2.463 3.26 3.26 0 0 0 2.576 1 3.71 3.71 0 0 0 3.637-3.45V3.576A3.58 3.58 0 0 0 3.696.132"/></svg>