<svg id="IAMS_Puppy_lockup" data-name="IAMS Puppy lockup" xmlns="http://www.w3.org/2000/svg" width="51.638" height="18.988" viewBox="0 0 51.638 18.988">
  <g id="PUPPY" transform="translate(0 13.192)">
    <path id="Y" d="M69.757,45.4h-1.9V43.088L65.736,39.76h2.285l.892,1.656.852-1.656h2.23l-2.237,3.328Z" transform="translate(-43.926 -39.76)" fill="#fff"/>
    <path id="P" d="M53.678,43.582V45.4H51.791V39.76h2.421a3.9,3.9,0,0,1,.844.092,2.148,2.148,0,0,1,.741.311,1.634,1.634,0,0,1,.526.581,2.162,2.162,0,0,1,0,1.8,1.711,1.711,0,0,1-.518.6,2.142,2.142,0,0,1-.741.334,3.548,3.548,0,0,1-.856.1Zm0-2.349v.908h.4a.752.752,0,0,0,.394-.107.388.388,0,0,0,.179-.362.439.439,0,0,0-.048-.219.347.347,0,0,0-.131-.131.6.6,0,0,0-.187-.068,1.094,1.094,0,0,0-.207-.02Z" transform="translate(-34.608 -39.76)" fill="#fff"/>
    <path id="P-2" data-name="P" d="M37.143,43.582V45.4H35.256V39.76h2.421a3.9,3.9,0,0,1,.844.092,2.148,2.148,0,0,1,.741.311,1.634,1.634,0,0,1,.526.581,2.162,2.162,0,0,1,0,1.8,1.711,1.711,0,0,1-.518.6,2.142,2.142,0,0,1-.741.334,3.548,3.548,0,0,1-.856.1Zm0-2.349v.908h.4a.752.752,0,0,0,.394-.107.388.388,0,0,0,.179-.362.439.439,0,0,0-.048-.219.347.347,0,0,0-.131-.131.6.6,0,0,0-.187-.068,1.094,1.094,0,0,0-.207-.02Z" transform="translate(-23.559 -39.76)" fill="#fff"/>
    <path id="U" d="M18.907,45.557a3.281,3.281,0,0,1-1.151-.183,2.308,2.308,0,0,1-.816-.5,2,2,0,0,1-.486-.752,2.7,2.7,0,0,1-.159-.936V39.76h1.9v3.217a.941.941,0,0,0,.2.633.788.788,0,0,0,1.107,0,.941.941,0,0,0,.2-.633V39.76h1.887v3.424a2.527,2.527,0,0,1-.171.936,2.081,2.081,0,0,1-.506.752,2.38,2.38,0,0,1-.832.5,3.349,3.349,0,0,1-1.159.183" transform="translate(-10.889 -39.76)" fill="#fff"/>
    <path id="P-3" data-name="P" d="M1.887,43.582V45.4H0V39.76H2.421a3.9,3.9,0,0,1,.844.092,2.148,2.148,0,0,1,.741.311,1.634,1.634,0,0,1,.526.581,2.162,2.162,0,0,1,0,1.8,1.711,1.711,0,0,1-.518.6,2.142,2.142,0,0,1-.741.334,3.548,3.548,0,0,1-.856.1Zm0-2.349v.908h.4a.752.752,0,0,0,.394-.107.388.388,0,0,0,.179-.362.439.439,0,0,0-.048-.219.347.347,0,0,0-.131-.131.6.6,0,0,0-.187-.068,1.094,1.094,0,0,0-.207-.02Z" transform="translate(0 -39.76)" fill="#fff"/>
  </g>
  <g id="IAMS_lockup" data-name="IAMS lockup" transform="translate(0.012 0)">
    <path id="TM" d="M152.2,18.144v.113h.168v.449h.127v-.45h.169v-.111Zm1.012,0-.148.237-.148-.237h-.135v.562h.12v-.381l.156.246h.011l.155-.246v.38h.12v-.56Z" transform="translate(-101.713 -12.124)" fill="#fff"/>
    <path id="paw_print" data-name="paw print" d="M142.83,21.167a1.794,1.794,0,1,0,1.77,1.818v-.024a1.784,1.784,0,0,0-1.77-1.794" transform="translate(-94.24 -14.144)" fill="#fff"/>
    <path id="paw_print-2" data-name="paw print" d="M142.583,10.689a1.735,1.735,0,1,0-1.735,1.758,1.735,1.735,0,0,0,1.735-1.758v0" transform="translate(-92.972 -6)" fill="#fff"/>
    <path id="paw_print-3" data-name="paw print" d="M131.293,3.833a1.758,1.758,0,1,0-1.733-1.784c0,.009,0,.019,0,.028a1.747,1.747,0,0,0,1.733,1.756" transform="translate(-86.587 -0.211)" fill="#fff"/>
    <path id="paw_print-4" data-name="paw print" d="M118.395,3.588a1.794,1.794,0,1,0-1.771-1.817v.023a1.784,1.784,0,0,0,1.771,1.795" transform="translate(-77.943 0)" fill="#fff"/>
    <path id="paw_print-5" data-name="paw print" d="M120.289,11.934a3.728,3.728,0,1,1-3.68,3.775c0-.016,0-.032,0-.048a3.705,3.705,0,0,1,3.68-3.727" transform="translate(-77.933 -7.974)" fill="#fff"/>
    <path id="S" d="M91.609,4.18c-.3-.116-.675-.439-.578-.774a.645.645,0,0,1,.8-.423,2.823,2.823,0,0,1,.959.614,1.564,1.564,0,0,0,1.736.227,1.36,1.36,0,0,0,.459-1.758A3.053,3.053,0,0,0,92.89.478C91.537.158,89.3.034,88.1,1.884a3.773,3.773,0,0,0-.156,3.33c.592,1.269,2.057,1.67,3.3,2.028.38.111.917.375.767.846a.66.66,0,0,1-.756.4A2.7,2.7,0,0,1,89.98,7.84,2.681,2.681,0,0,0,88.5,7.35c-1.075.012-1.549,1.273-1.244,2.194a2.007,2.007,0,0,0,.439.742,6.192,6.192,0,0,0,.576.473,5.634,5.634,0,0,0,6.037-.021,3.573,3.573,0,0,0,1.236-2.488c.19-2.567-2.07-3.343-3.933-4.067" transform="translate(-58.257 -0.193)" fill="#fff"/>
    <path id="M" d="M58.671,8.995,57.6,2.153c-.129-.8-.442-1.88-1.78-1.889-1.194-.008-1.367.4-1.991,1.614L52.342,5.391,50.856,1.877C50.231.66,50.06.256,48.866.263,47.527.27,47.214,1.346,47.083,2.15L46.006,8.992c-.028.172-.039.36-.066.546a1.791,1.791,0,0,0,1.645,1.927c.049,0,.1.006.147.006a1.624,1.624,0,0,0,1.713-1.4L49.9,7.8l.845,2.2c.313.6.664,1.468,1.588,1.468s1.322-.863,1.614-1.468l.868-2.256.409,2.327a1.638,1.638,0,0,0,1.716,1.4,1.773,1.773,0,0,0,1.79-1.932c-.031-.186-.033-.372-.063-.546" transform="translate(-30.706 -0.175)" fill="#fff"/>
    <path id="A" d="M17.954,7.52a.9.9,0,1,1,.89-.914v.01a.9.9,0,0,1-.888.9h0m5,1.589L20.259,2.692c-.462-1.179-.839-2.4-2.281-2.4-1.478,0-1.848,1.261-2.335,2.417L13,9.109a1.652,1.652,0,0,0,.82,2.343,1.707,1.707,0,0,0,2.289-1.046l.577-1.178h2.687l.489,1.178a1.659,1.659,0,0,0,2.06,1.123,1.7,1.7,0,0,0,.207-.076,1.653,1.653,0,0,0,.821-2.341" transform="translate(-8.58 -0.192)" fill="#fff"/>
    <path id="I" d="M1.806.192A1.715,1.715,0,0,0,.036,1.834V9.84a1.672,1.672,0,0,0,.528,1.187,1.57,1.57,0,0,0,1.242.481A1.788,1.788,0,0,0,3.559,9.845l0-8A1.725,1.725,0,0,0,1.806.19" transform="translate(-0.036 -0.127)" fill="#fff"/>
  </g>
</svg>

