<svg xmlns="http://www.w3.org/2000/svg" viewBox="0 0 62 62" fill="#fff" xmlns:v="https://vecta.io/nano"><path d="M31 0C13.88 0 0 13.88 0 31s13.88 31 31 31 31-13.88 31-31S48.12 0 31 0zm20.34 51.34a28.76 28.76 0 0 1-9.14 6.17c-3.55 1.5-7.31 2.26-11.2 2.26-3.88 0-7.65-.76-11.2-2.26-3.43-1.45-6.5-3.52-9.14-6.17a28.76 28.76 0 0 1-6.17-9.14c-1.5-3.55-2.26-7.31-2.26-11.2 0-3.88.76-7.65 2.26-11.2 1.45-3.43 3.52-6.5 6.17-9.14a28.76 28.76 0 0 1 9.14-6.17c3.55-1.5 7.31-2.26 11.2-2.26 3.88 0 7.65.76 11.2 2.26 3.43 1.45 6.5 3.52 9.14 6.17a28.76 28.76 0 0 1 6.17 9.14c1.5 3.55 2.26 7.31 2.26 11.2 0 3.88-.76 7.65-2.26 11.2a28.76 28.76 0 0 1-6.17 9.14zM40.02 14.67l-4.63 8.02h-8.34l-4.68-8.1H12.26L7.2 23.35l4.65 8.06-4.65 8.06 5.06 8.76h10.12l4.63-8.02h9.22l4.63-8.02h9.29l5.06-8.76-5.06-8.76H40.02zm-26.9 1.41h8.4l4.2 7.28-4.2 7.28h-8.4l-4.2-7.28 4.2-7.28zm8.4 30.67h-8.4l-4.2-7.28 4.2-7.28h8.36l4.22 7.31-4.18 7.25zm13.84-8.02H27l-4.22-7.31 4.18-7.24h8.4l4.2 7.28-4.2 7.27zm13.92-8.02h-8.4l-4.2-7.28 4.2-7.28h8.4l4.2 7.28-4.2 7.28z"/></svg>