<svg xmlns="http://www.w3.org/2000/svg" width="269.715" height="109.438" fill="#fff" xmlns:v="https://vecta.io/nano"><path d="M238.159 108.185h31.556v-12.4h-17.53v-4.132h15.464V80.07h-15.464v-3.818h16.465v-12.4h-30.491zm-20.969-31.87h15.342V63.856h-29.93v44.329h14.651V93.157h13.464V80.949H217.19zm-37.308 31.87h15.028V63.856h-15.028zm-33.427 0h29.741V95.349h-14.714V63.856h-15.027zm-44.819-32.743h3.542c.498.003.996.034 1.491.094a4.47 4.47 0 0 1 1.491.436 2.82 2.82 0 0 1 1.118 1.033 3.52 3.52 0 0 1 .433 1.881 3.16 3.16 0 0 1-.527 1.909 3.8 3.8 0 0 1-1.3 1.127 5.07 5.07 0 0 1-1.68.531 11.8 11.8 0 0 1-1.645.126h-2.92zm-14.337 32.746h14.462V92.342h.436l8.493 15.841h17.116l-11.247-17.97c4.812-1.994 7.893-6.753 7.743-11.96a14.11 14.11 0 0 0-1.567-6.98c-.984-1.794-2.391-3.321-4.1-4.446a16.42 16.42 0 0 0-5.762-2.317 32.46 32.46 0 0 0-6.478-.656h-19.1zM49.08 81.857a8.65 8.65 0 0 1 1.815-3 8.19 8.19 0 0 1 2.788-1.915 8.91 8.91 0 0 1 3.5-.688 8.68 8.68 0 0 1 3.476.688 8.59 8.59 0 0 1 2.785 1.912 8.39 8.39 0 0 1 1.849 3 11.28 11.28 0 0 1 .656 3.912 11.72 11.72 0 0 1-.656 4.007 9.32 9.32 0 0 1-1.849 3.131c-1.592 1.779-3.874 2.784-6.261 2.757a8.57 8.57 0 0 1-3.5-.722 7.91 7.91 0 0 1-2.788-2.035 9.64 9.64 0 0 1-1.815-3.131 11.72 11.72 0 0 1-.656-4.007 11.28 11.28 0 0 1 .656-3.912M34.461 95.475a22.14 22.14 0 0 0 5.165 7.482 22.99 22.99 0 0 0 7.8 4.788c6.315 2.256 13.218 2.256 19.533 0 2.9-1.062 5.561-2.69 7.828-4.788 2.237-2.103 4.009-4.652 5.2-7.482a24.39 24.39 0 0 0 1.878-9.706 23.71 23.71 0 0 0-1.878-9.611 21.2 21.2 0 0 0-5.2-7.294c-2.28-2.043-4.94-3.618-7.828-4.635a30.14 30.14 0 0 0-19.533 0 23 23 0 0 0-7.8 4.635 21.37 21.37 0 0 0-5.165 7.294 23.71 23.71 0 0 0-1.878 9.611 24.39 24.39 0 0 0 1.878 9.706M14.59 76.315h15.337V63.856H0v44.329h14.651V93.157h13.461V80.949H14.59zM38.407.265a7.07 7.07 0 0 0-7.291 6.767v32.986a6.89 6.89 0 0 0 2.173 4.892 6.47 6.47 0 0 0 5.118 1.981 7.37 7.37 0 0 0 7.225-6.854l.009-32.941A7.11 7.11 0 0 0 38.407.264m107.926 36.071l-4.431-28.19c-.531-3.313-1.821-7.746-7.335-7.784-4.923-.031-5.633 1.633-8.208 6.65l-6.11 14.475-6.11-14.478c-2.575-5.014-3.275-6.679-8.2-6.65-5.514.031-6.8 4.465-7.344 7.774l-4.437 28.193c-.113.706-.16 1.485-.267 2.248-.518 4.054 3.011 7.96 7.385 7.963a6.69 6.69 0 0 0 7.058-5.765l1.884-9.36 3.482 9.074c1.287 2.49 2.735 6.051 6.544 6.051 3.774 0 5.448-3.558 6.65-6.051l3.573-9.293 1.686 9.589a6.75 6.75 0 0 0 7.068 5.762c4.374 0 8.013-3.909 7.373-7.96-.126-.766-.141-1.532-.261-2.248m22.193-19.911c-1.237-.477-2.779-1.809-2.38-3.187.438-1.389 1.912-2.167 3.306-1.743 1.539.364 2.726 1.611 3.95 2.531 2.016 1.517 4.732 2.336 7.153.936 2.487-1.444 3.055-4.647 1.89-7.25-1.627-3.649-5.124-5.57-8.641-6.544-5.577-1.319-14.8-1.827-19.744 5.8-1.529 2.207-3.162 8.672-.641 13.718 2.437 5.228 8.475 6.883 13.593 8.355 1.564.458 3.777 1.545 3.159 3.485-.436 1.391-1.821 1.743-3.115 1.639-2.079-.16-3.6-1.539-5.244-2.659-1.788-1.264-3.911-1.967-6.1-2.022-4.427.05-6.383 5.244-5.127 9.04a8.28 8.28 0 0 0 1.809 3.058 25.27 25.27 0 0 0 2.374 1.95c5.711 4.4 18.086 5.143 24.871-.088a14.72 14.72 0 0 0 5.09-10.258c.785-10.575-8.528-13.775-16.205-16.758m37.101-.114a15.36 15.36 0 1 1-15.162 15.354 15.27 15.27 0 0 1 15.162-15.354"/><path d="M197.781 14.783a7.39 7.39 0 1 0-7.3-7.395c-.024 4.057 3.243 7.366 7.3 7.395m17.526.137c2.941.043 5.616-1.696 6.771-4.402s.559-5.84-1.508-7.934-5.193-2.73-7.913-1.611a7.25 7.25 0 0 0-4.49 6.713 7.2 7.2 0 0 0 7.14 7.234m20.212 4.406a7.15 7.15 0 0 0-7.21-7.05 7.15 7.15 0 0 0-7.083 7.177 7.15 7.15 0 0 0 7.143 7.117 7.19 7.19 0 0 0 7.15-7.244m-4.208 9.607a7.39 7.39 0 1 0 7.291 7.391 7.35 7.35 0 0 0-7.291-7.391M69.738 30.188c-1.506.019-2.876-.873-3.466-2.259a3.72 3.72 0 0 1 .771-4.065c1.057-1.074 2.658-1.402 4.053-.832s2.307 1.925 2.311 3.432a3.7 3.7 0 0 1-3.668 3.724m20.591 6.553l-11.1-26.438c-1.9-4.857-3.457-9.906-9.4-9.906-6.088 0-7.614 5.19-9.621 9.96l-10.87 26.375c-1.714 4.5-.408 8.035 3.379 9.652 3.85 1.617 7.6-.173 9.432-4.311l2.377-4.854h11.068l2.016 4.854c1.476 4.138 5.486 5.934 9.338 4.314 3.783-1.62 5.093-5.156 3.382-9.646m148.778-11.943v.465h.691v1.845h.524v-1.849h.694v-.461zm4.17 0l-.609.976-.609-.976h-.555v2.31h.5v-1.564l.641 1.014h.044l.638-1.014v1.564h.5v-2.31z"/></svg>