<svg xmlns="http://www.w3.org/2000/svg" viewBox="0 0 80 80" fill="#fff" xmlns:v="https://vecta.io/nano"><path d="M39.84 0C17.66 0 0 17.91 0 40s17.66 40 39.84 40S80 62.09 80 40 62.02 0 39.84 0zm26.35 66.25a37.12 37.12 0 0 1-11.85 7.96c-4.59 1.93-9.47 2.92-14.51 2.92-9.93 0-19.23-3.86-26.18-10.86a36.73 36.73 0 0 1-7.88-11.8C3.86 49.89 2.89 45.02 2.89 40s.97-9.89 2.88-14.46a36.95 36.95 0 0 1 7.88-11.8c6.95-7 16.25-10.86 26.18-10.86 5.03 0 9.91.98 14.51 2.92a37.23 37.23 0 0 1 11.85 7.96c3.42 3.41 6.11 7.38 7.99 11.8 1.94 4.57 2.93 9.44 2.93 14.45s-.99 9.87-2.93 14.45a37.01 37.01 0 0 1-7.99 11.79zM42.73 53.3c-2.74.89-8.33.35-10.05-.69-.27-.16-.61-.07-.77.19a.56.56 0 0 0 .19.77c1.36.82 4.25 1.29 6.91 1.29 1.54 0 3.01-.16 4.06-.5.3-.1.46-.41.36-.71-.08-.28-.4-.44-.7-.35zm20.08-18.12c-.1-.02-2.61-.53-5.79.05-2.78.51-6.59 1.98-9.38 6.02-1.58-.97-3.54-1.61-5.67-1.79-2.44-.21-4.79.21-6.77 1.16-.31-1.43-1.02-3.81-2.66-6.14.01-1.4.24-4.35 1.15-6.17l.17.08c1.08.47 2.25.71 3.41.71a8.42 8.42 0 0 0 2.39-.34l2.43-.71a2.5 2.5 0 0 0 1.55-1.33 2.46 2.46 0 0 0 .01-2.04l-.58-1.31a3.3 3.3 0 0 0 .45-.8l.37-.95a2.73 2.73 0 0 0-1.13-3.34l-3.85-2.35c-.69-.42-1.48-.64-2.29-.64h-5.98a5.01 5.01 0 0 0-4.66 3.21L21.8 29.54c-.97 2.57-1.61 5.26-1.88 7.99l-1.04 10.29c-.21 2.04.83 4 2.64 4.99l5.93 3.24c3.5 1.91 7.41 2.9 11.35 2.9 1.65 0 3.31-.17 4.94-.52l8.08-1.73c.27.69.45 1.52.49 2.52a.96.96 0 0 0 .96.92h.04c.53-.02.95-.47.92-1-.23-5.53-4.13-7.48-6.17-7.73a.95.95 0 0 0-1.07.83c-.07.52.3 1 .83 1.08.11.01 1.68.26 2.94 1.65l-7.43 1.59a21.73 21.73 0 0 1-14.96-2.18l-5.93-3.24c-1.13-.62-1.77-1.84-1.65-3.12l1.04-10.29c.26-2.57.86-5.09 1.77-7.5l4.19-11.05a3.07 3.07 0 0 1 2.86-1.97h5.98c.45 0 .9.12 1.28.36l3.85 2.35c.34.21.49.63.34 1.01l-.37.95a1.27 1.27 0 0 1-1.19.81h-2.03c-.33 0-.59-.26-.59-.59v-1a.96.96 0 1 0-1.92 0v1a2.52 2.52 0 0 0 2.52 2.51h2.03a3.39 3.39 0 0 0 .91-.13l.44.99c.09.2.04.37 0 .45s-.14.23-.34.3l-2.43.71a6.58 6.58 0 0 1-4.48-.29l-.93-.41-3.53-1.55a.97.97 0 0 0-1.27.49c-.21.49.01 1.05.49 1.27l2.53 1.11c-1.35 2.82-1.31 7.07-1.31 7.27v.3l.18.25c1.88 2.57 2.47 5.3 2.64 6.33-.4.3-.77.62-1.11.97-.37.38-.36.99.02 1.36s.99.36 1.36-.02c1.85-1.91 4.87-2.88 8.09-2.61 2.99.25 5.64 1.57 6.91 3.44a.98.98 0 0 0 .8.42c.19 0 .38-.05.54-.17.44-.3.55-.9.26-1.33-.32-.47-.71-.91-1.14-1.32 1.94-2.86 4.67-4.64 8.13-5.29 2.8-.53 5.07-.08 5.12-.07a.96.96 0 0 0 1.14-.74c.09-.55-.24-1.05-.76-1.16z"/></svg>