<svg xmlns="http://www.w3.org/2000/svg" width="89.573" height="32.938" viewBox="0 0 89.573 32.938">
  <g id="IAMS_Puppy_lockup" data-name="IAMS Puppy lockup" transform="translate(0 0)">
    <g id="PUPPY" transform="translate(0 22.882)">
      <path id="Y" d="M72.711,49.539H69.423V45.533L65.735,39.76H69.7l1.547,2.873,1.478-2.873h3.867l-3.881,5.773Z" transform="translate(-27.904 -39.76)" fill="#fff"/>
      <path id="P" d="M55.064,46.39v3.149H51.791V39.76h4.2a6.761,6.761,0,0,1,1.464.159,3.726,3.726,0,0,1,1.285.539,2.835,2.835,0,0,1,.912,1.008,3.75,3.75,0,0,1,.007,3.128,2.968,2.968,0,0,1-.9,1.036,3.716,3.716,0,0,1-1.285.58,6.154,6.154,0,0,1-1.485.18Zm0-4.075V43.89h.691a1.3,1.3,0,0,0,.684-.186.674.674,0,0,0,.311-.628.762.762,0,0,0-.083-.38.6.6,0,0,0-.228-.228,1.048,1.048,0,0,0-.325-.117,1.9,1.9,0,0,0-.359-.035Z" transform="translate(-21.985 -39.76)" fill="#fff"/>
      <path id="P-2" data-name="P" d="M38.529,46.39v3.149H35.256V39.76h4.2a6.76,6.76,0,0,1,1.464.159,3.726,3.726,0,0,1,1.285.539,2.835,2.835,0,0,1,.912,1.008,3.75,3.75,0,0,1,.007,3.128,2.969,2.969,0,0,1-.9,1.036,3.716,3.716,0,0,1-1.285.58,6.155,6.155,0,0,1-1.485.18Zm0-4.075V43.89h.691A1.3,1.3,0,0,0,39.9,43.7a.674.674,0,0,0,.311-.628.762.762,0,0,0-.083-.38.6.6,0,0,0-.228-.228,1.048,1.048,0,0,0-.325-.117,1.9,1.9,0,0,0-.359-.035Z" transform="translate(-14.966 -39.76)" fill="#fff"/>
      <path id="U" d="M20.825,49.815a5.691,5.691,0,0,1-2-.318,4,4,0,0,1-1.416-.87,3.469,3.469,0,0,1-.843-1.305A4.675,4.675,0,0,1,16.3,45.7V39.76h3.287v5.58a1.632,1.632,0,0,0,.338,1.1,1.367,1.367,0,0,0,1.92,0,1.632,1.632,0,0,0,.338-1.1V39.76h3.273V45.7a4.383,4.383,0,0,1-.3,1.623,3.609,3.609,0,0,1-.877,1.305,4.128,4.128,0,0,1-1.443.87,5.808,5.808,0,0,1-2.01.318" transform="translate(-6.917 -39.76)" fill="#fff"/>
      <path id="P-3" data-name="P" d="M3.273,46.39v3.149H0V39.76H4.2a6.76,6.76,0,0,1,1.464.159,3.726,3.726,0,0,1,1.285.539,2.835,2.835,0,0,1,.912,1.008,3.75,3.75,0,0,1,.007,3.128,2.969,2.969,0,0,1-.9,1.036,3.716,3.716,0,0,1-1.285.58,6.155,6.155,0,0,1-1.485.18Zm0-4.075V43.89h.691a1.3,1.3,0,0,0,.684-.186.674.674,0,0,0,.311-.628.762.762,0,0,0-.083-.38.6.6,0,0,0-.228-.228,1.048,1.048,0,0,0-.325-.117,1.9,1.9,0,0,0-.359-.035Z" transform="translate(0 -39.76)" fill="#fff"/>
    </g>
    <g id="IAMS_lockup" data-name="IAMS lockup" transform="translate(0.021 0)">
      <path id="TM" d="M152.2,18.144v.2h.291v.779h.221v-.781H153v-.193Zm1.756,0-.257.411-.257-.411H153.2v.974h.209v-.661l.27.427h.018l.268-.427v.658h.209v-.972Z" transform="translate(-64.627 -7.702)" fill="#fff"/>
      <path id="paw_print" data-name="paw print" d="M144.166,21.167a3.112,3.112,0,1,0,3.07,3.153v-.041a3.094,3.094,0,0,0-3.07-3.112" transform="translate(-59.88 -8.985)" fill="#fff"/>
      <path id="paw_print-2" data-name="paw print" d="M145.132,11.946a3.047,3.047,0,1,0,0,.007v-.007" transform="translate(-59.074 -3.811)" fill="#fff"/>
      <path id="paw_print-3" data-name="paw print" d="M132.566,6.417a3.05,3.05,0,1,0-3.005-3.094c0,.016,0,.032,0,.048a3.03,3.03,0,0,0,3.006,3.046" transform="translate(-55.018 -0.134)" fill="#fff"/>
      <path id="paw_print-4" data-name="paw print" d="M119.7,6.224a3.112,3.112,0,1,0-3.072-3.153V3.11A3.1,3.1,0,0,0,119.7,6.224" transform="translate(-49.527 0)" fill="#fff"/>
      <path id="paw_print-5" data-name="paw print" d="M122.992,11.935a6.466,6.466,0,1,1-6.383,6.549c0-.028,0-.056,0-.084a6.427,6.427,0,0,1,6.383-6.465" transform="translate(-49.52 -5.066)" fill="#fff"/>
      <path id="S" d="M94.874,7.038c-.518-.2-1.17-.761-1-1.342a1.118,1.118,0,0,1,1.392-.734,4.9,4.9,0,0,1,1.663,1.065,2.713,2.713,0,0,0,3.012.394,2.359,2.359,0,0,0,.8-3.05A5.3,5.3,0,0,0,97.1.616c-2.348-.555-6.229-.769-8.313,2.44a6.544,6.544,0,0,0-.27,5.776c1.026,2.2,3.568,2.9,5.723,3.517.658.193,1.59.65,1.33,1.468a1.145,1.145,0,0,1-1.312.691,4.682,4.682,0,0,1-2.208-1.12,4.65,4.65,0,0,0-2.567-.851c-1.864.021-2.688,2.208-2.159,3.806a3.481,3.481,0,0,0,.761,1.287,10.744,10.744,0,0,0,1,.821c2.4,1.851,7.614,2.166,10.471-.037A6.2,6.2,0,0,0,101.7,14.1c.33-4.452-3.591-5.8-6.823-7.055" transform="translate(-37.021 -0.122)" fill="#fff"/>
      <path id="M" d="M68.028,15.41,66.162,3.541C65.939,2.147,65.4.28,63.074.264,61,.251,60.7.951,59.621,3.064L57.049,9.158l-2.577-6.1C53.389.952,53.091.251,51.019.263c-2.322.013-2.865,1.88-3.092,3.273l-1.868,11.87c-.048.3-.067.625-.115.947A3.107,3.107,0,0,0,48.8,19.695c.085.007.17.01.254.01a2.817,2.817,0,0,0,2.972-2.427l.793-3.941,1.466,3.82c.542,1.049,1.151,2.547,2.755,2.547s2.293-1.5,2.8-2.547l1.506-3.913.71,4.037a2.842,2.842,0,0,0,2.976,2.426,3.075,3.075,0,0,0,3.1-3.351c-.053-.322-.058-.645-.11-.947" transform="translate(-19.519 -0.111)" fill="#fff"/>
      <path id="A" d="M21.724,12.833a1.565,1.565,0,1,1,1.544-1.586v.018a1.554,1.554,0,0,1-1.54,1.568h0m8.669,2.757L25.722,4.459c-.8-2.045-1.455-4.171-3.957-4.171-2.563,0-3.206,2.187-4.05,4.193L13.135,15.59c-.722,1.893-.173,3.383,1.423,4.064a2.961,2.961,0,0,0,3.971-1.815l1-2.044h4.662l.849,2.044a2.878,2.878,0,0,0,3.573,1.949,2.951,2.951,0,0,0,.359-.132c1.593-.682,2.144-2.171,1.424-4.061" transform="translate(-5.464 -0.122)" fill="#fff"/>
      <path id="I" d="M3.106.193A2.976,2.976,0,0,0,.036,3.042V16.93a2.9,2.9,0,0,0,.915,2.06,2.724,2.724,0,0,0,2.155.834,3.1,3.1,0,0,0,3.042-2.886l0-13.87A2.992,2.992,0,0,0,3.106.191" transform="translate(-0.036 -0.08)" fill="#fff"/>
    </g>
  </g>
</svg>
