<svg id="IAMS_FOR_LIFE_lockup_-_linear" data-name="IAMS FOR LIFE lockup - linear" xmlns="http://www.w3.org/2000/svg" width="235.166" height="22.012" viewBox="0 0 235.166 22.012">
  <path id="FOR_LIFE" data-name="FOR LIFE" d="M468.657,81.549H483.4V75.756h-8.192V73.823h7.227V68.41h-7.227V66.626h7.7V60.832h-14.25Zm-9.8-14.894h7.168V60.832H452.041V81.549h6.847V74.526h6.291V68.821h-6.32ZM441.421,81.549h7.023V60.832h-7.023Zm-15.622,0h13.9v-6h-6.876V60.832H425.8Zm-20.946-15.3h1.655a6.046,6.046,0,0,1,.7.044,2.075,2.075,0,0,1,.7.2,1.318,1.318,0,0,1,.523.483,1.645,1.645,0,0,1,.2.879,1.468,1.468,0,0,1-.248.892,1.764,1.764,0,0,1-.609.527,2.376,2.376,0,0,1-.784.248,5.544,5.544,0,0,1-.77.059h-1.365Zm-6.7,15.3h6.759v-7.4h.2l3.969,7.4h8l-5.256-8.4a5.867,5.867,0,0,0,3.619-5.589,6.6,6.6,0,0,0-.732-3.262,5.85,5.85,0,0,0-1.916-2.078,7.676,7.676,0,0,0-2.691-1.083,15.2,15.2,0,0,0-3.029-.307h-8.925Zm-17.861-12.3a4.038,4.038,0,0,1,.848-1.4,3.829,3.829,0,0,1,1.3-.894,4.164,4.164,0,0,1,1.638-.321,4.014,4.014,0,0,1,2.927,1.215,3.94,3.94,0,0,1,.863,1.4,5.272,5.272,0,0,1,.307,1.828,5.479,5.479,0,0,1-.307,1.872,4.385,4.385,0,0,1-.863,1.463,3.874,3.874,0,0,1-2.927,1.288,4,4,0,0,1-1.638-.338,3.7,3.7,0,0,1-1.3-.951,4.5,4.5,0,0,1-.848-1.463,5.476,5.476,0,0,1-.307-1.872,5.269,5.269,0,0,1,.307-1.828m-6.832,6.364a10.332,10.332,0,0,0,2.414,3.5,10.745,10.745,0,0,0,3.644,2.238,13.565,13.565,0,0,0,9.129,0,10.911,10.911,0,0,0,3.658-2.238,10.244,10.244,0,0,0,2.429-3.5,11.4,11.4,0,0,0,.877-4.536,11.081,11.081,0,0,0-.877-4.492,9.9,9.9,0,0,0-2.429-3.409,10.915,10.915,0,0,0-3.658-2.166,14.084,14.084,0,0,0-9.129,0,10.748,10.748,0,0,0-3.644,2.166,9.987,9.987,0,0,0-2.414,3.409,11.082,11.082,0,0,0-.878,4.492,11.4,11.4,0,0,0,.878,4.536m-9.287-8.954h7.168V60.832H357.356V81.549H364.2V74.526h6.291V68.821h-6.32Z" transform="translate(-248.239 -60.123)" fill="#fff"/>
  <g id="IAMS_logo" data-name="IAMS logo" transform="translate(0)">
    <path id="Path_3372" data-name="Path 3372" d="M63.317,60.247A3.3,3.3,0,0,0,59.91,63.41V78.826a3.218,3.218,0,0,0,1.015,2.286,3.024,3.024,0,0,0,2.392.926,3.443,3.443,0,0,0,3.376-3.2l0-15.394a3.322,3.322,0,0,0-3.381-3.193" transform="translate(-59.91 -60.123)" fill="#fff"/>
    <path id="Path_3373" data-name="Path 3373" d="M164.345,77.179,162.274,64c-.248-1.55-.851-3.62-3.428-3.638-2.3-.015-2.632.763-3.836,3.108l-2.856,6.765L149.3,63.474c-1.2-2.343-1.53-3.121-3.834-3.108-2.577.015-3.18,2.087-3.432,3.633L139.96,77.175c-.053.33-.075.694-.125,1.051a3.452,3.452,0,0,0,3.451,3.721,3.127,3.127,0,0,0,3.3-2.694l.88-4.374,1.627,4.241c.6,1.164,1.278,2.828,3.058,2.828,1.764,0,2.546-1.663,3.108-2.828l1.671-4.343.788,4.481a3.154,3.154,0,0,0,3.3,2.693,3.413,3.413,0,0,0,3.445-3.72c-.059-.358-.066-.716-.122-1.051" transform="translate(-110.5 -60.198)" fill="#fff"/>
    <path id="Path_3374" data-name="Path 3374" d="M220.19,67.9c-.578-.223-1.3-.845-1.112-1.489a1.241,1.241,0,0,1,1.545-.814,5.435,5.435,0,0,1,1.846,1.183,3.011,3.011,0,0,0,3.343.437,2.62,2.62,0,0,0,.883-3.388,5.877,5.877,0,0,0-4.038-3.058c-2.6-.616-6.914-.854-9.227,2.709a7.265,7.265,0,0,0-.3,6.411c1.139,2.443,3.96,3.217,6.352,3.9.731.214,1.765.722,1.476,1.629a1.272,1.272,0,0,1-1.456.766,5.2,5.2,0,0,1-2.451-1.243A5.162,5.162,0,0,0,214.2,74c-2.069.023-2.983,2.451-2.4,4.225a3.868,3.868,0,0,0,.845,1.429,11.8,11.8,0,0,0,1.109.911c2.669,2.054,8.454,2.4,11.623-.041a6.873,6.873,0,0,0,2.379-4.794c.367-4.942-3.985-6.437-7.573-7.831" transform="translate(-155.974 -60.224)" fill="#fff"/>
    <path id="Path_3375" data-name="Path 3375" d="M269.994,80.692a7.178,7.178,0,1,1-7.086,7.176,7.134,7.134,0,0,1,7.086-7.176" transform="translate(-188.439 -73.068)" fill="#fff"/>
    <path id="Path_3376" data-name="Path 3376" d="M266.344,66.818a3.455,3.455,0,1,0-3.41-3.456,3.436,3.436,0,0,0,3.41,3.456" transform="translate(-188.455 -59.91)" fill="#fff"/>
    <path id="Path_3377" data-name="Path 3377" d="M288.8,67.228a3.386,3.386,0,1,0-3.337-3.381,3.363,3.363,0,0,0,3.337,3.381" transform="translate(-202.718 -60.256)" fill="#fff"/>
    <path id="Path_3378" data-name="Path 3378" d="M308.778,78.692a3.34,3.34,0,1,0-3.341,3.385,3.36,3.36,0,0,0,3.341-3.385" transform="translate(-213.252 -69.661)" fill="#fff"/>
    <path id="Path_3379" data-name="Path 3379" d="M309.049,96.768a3.454,3.454,0,1,0,3.407,3.456,3.434,3.434,0,0,0-3.407-3.456" transform="translate(-215.49 -83.247)" fill="#fff"/>
    <path id="Path_3380" data-name="Path 3380" d="M92.059,74.339a1.737,1.737,0,1,1,1.714-1.74,1.727,1.727,0,0,1-1.714,1.74m9.623,3.062L96.5,65.046c-.889-2.27-1.616-4.63-4.392-4.63-2.845,0-3.558,2.426-4.5,4.655L82.525,77.4c-.8,2.1-.191,3.755,1.579,4.511,1.8.756,3.554-.081,4.408-2.015l1.111-2.269H94.8l.942,2.269a3.193,3.193,0,0,0,4.364,2.016c1.768-.757,2.38-2.409,1.58-4.508" transform="translate(-74.009 -60.23)" fill="#fff"/>
    <path id="Path_3381" data-name="Path 3381" d="M324.881,91.5v.217h.321v.864h.246v-.864h.323V91.5Zm1.947,0-.283.456-.286-.456H326v1.081h.23v-.731l.3.474h.021l.3-.474v.731h.233V91.5Z" transform="translate(-227.677 -79.91)" fill="#fff"/>
  </g>
</svg>
