<svg xmlns="http://www.w3.org/2000/svg" viewBox="0 0 70 70" fill="#fff" xmlns:v="https://vecta.io/nano"><path d="M34.86 0C15.45 0 0 15.67 0 35s15.45 35 34.86 35S70 54.33 70 35 54.27 0 34.86 0zm23.06 57.97c-3 2.98-6.48 5.33-10.37 6.96-4.02 1.69-8.29 2.55-12.69 2.55-8.69 0-16.82-3.37-22.91-9.5a32.17 32.17 0 0 1-6.9-10.33c-1.67-4-2.52-8.26-2.52-12.65s.85-8.65 2.52-12.65c1.62-3.87 3.94-7.34 6.9-10.32 6.08-6.13 14.22-9.5 22.91-9.5 4.4 0 8.67.86 12.69 2.55 3.88 1.64 7.37 3.98 10.37 6.96a32.28 32.28 0 0 1 6.99 10.32A32.16 32.16 0 0 1 67.47 35a32.16 32.16 0 0 1-2.56 12.64c-1.64 3.87-4 7.34-6.99 10.33zM27.68 33.48c-.34 1.28-1.51 2.24-2.9 2.24a.84.84 0 0 0-.84.84c0 .46.38.84.84.84a4.69 4.69 0 0 0 4.62-3.89c1.36-.15 2.64-.72 3.67-1.64a.843.843 0 1 0-1.12-1.26 4.95 4.95 0 0 1-3.3 1.25c-2.73 0-4.95-2.21-4.95-4.93 0-.46-.38-.84-.84-.84s-.84.38-.84.84a6.61 6.61 0 0 0 5.66 6.55zm1.92 6.83a.84.84 0 0 0 .84-.84c0-.46-.38-.84-.84-.84-3.2 0-5.81 2.59-5.81 5.78l.01.32c-.38.07-.75.18-1.1.33-.43.19-.62.68-.43 1.11.19.42.69.62 1.11.43a2.88 2.88 0 0 1 .76-.22 5.8 5.8 0 0 0 1.13 1.89c.17.19.4.28.63.28a.85.85 0 0 0 .56-.21.84.84 0 0 0 .07-1.19c-.11-.12-.21-.25-.3-.38a3.05 3.05 0 0 1 1.21 1.28 3.1 3.1 0 0 1 .18 2.39c-.14.44.1.92.54 1.06.09.03.18.04.26.04.35 0 .69-.22.8-.58a4.78 4.78 0 0 0-.28-3.67 4.8 4.8 0 0 0-2.8-2.39c-.21-.07-.43-.12-.65-.16-.01-.11-.01-.21-.01-.32a4.12 4.12 0 0 1 4.12-4.11zm17.98 4.76a4.35 4.35 0 0 0-1.1-.33c.01-.11.01-.21.01-.32 0-3.19-2.6-5.78-5.81-5.78a.84.84 0 0 0-.84.84c0 .46.38.84.84.84 2.27 0 4.12 1.84 4.12 4.1l-.01.32c-.22.04-.43.09-.65.16a4.8 4.8 0 0 0-2.8 2.39c-.58 1.14-.68 2.45-.28 3.67.12.35.45.58.8.58.09 0 .18-.01.26-.04.44-.14.68-.62.54-1.06-.26-.79-.2-1.64.18-2.39.28-.54.7-.98 1.21-1.28-.09.13-.19.26-.3.38a.84.84 0 0 0 .07 1.19.85.85 0 0 0 .56.21c.23 0 .46-.09.63-.28a5.8 5.8 0 0 0 1.13-1.89 2.88 2.88 0 0 1 .76.22c.43.19.92-.01 1.11-.43s-.01-.92-.43-1.1zM45.5 37.4a.84.84 0 0 0 .84-.84c0-.46-.38-.84-.84-.84-1.39 0-2.56-.95-2.9-2.24 3.21-.47 5.67-3.22 5.67-6.54 0-.46-.38-.84-.84-.84a.84.84 0 0 0-.84.84c0 2.72-2.22 4.93-4.95 4.93a5 5 0 0 1-3.3-1.25.843.843 0 1 0-1.12 1.26c1.03.92 2.31 1.48 3.67 1.64.36 2.2 2.29 3.88 4.61 3.88zm7.57-8.23a6.14 6.14 0 0 0 .23-1.65c0-3.02-2.24-5.53-5.15-5.97.33-.63.51-1.33.51-2.05a4.41 4.41 0 0 0-3.58-4.32c-.03-.03-.06-.07-.1-.1-.35-.29-3.52-2.88-5.86-2.95-1.67-.05-2.94.34-3.76 1.16a2.85 2.85 0 0 0-.23.26c-.07-.09-.15-.17-.23-.26-.83-.82-2.09-1.21-3.76-1.16-2.34.07-5.5 2.65-5.85 2.95-.04.03-.07.06-.1.1a4.41 4.41 0 0 0-3.58 4.32c0 .73.18 1.43.51 2.05-2.91.44-5.15 2.95-5.15 5.97 0 .56.08 1.12.23 1.65a5.98 5.98 0 0 0-1.79 4.29c0 1.2.36 2.38 1.03 3.37-.67 1-1.03 2.15-1.03 3.37 0 2.27 1.3 4.35 3.29 5.37a6.99 6.99 0 0 0-.06.92c0 2.97 1.93 5.53 4.75 6.37a6.71 6.71 0 0 0 5.86 3.47 6.68 6.68 0 0 0 5.88-3.51 6.7 6.7 0 0 0 5.88 3.51 6.71 6.71 0 0 0 5.86-3.47c2.82-.84 4.75-3.4 4.75-6.37 0-.31-.02-.61-.06-.92a6.05 6.05 0 0 0 3.29-5.37c0-1.21-.36-2.37-1.03-3.37.67-.99 1.03-2.16 1.03-3.37.02-1.64-.63-3.16-1.78-4.29zM29.26 54.64a5.01 5.01 0 0 1-4.52-2.86l-.17-.37-.4-.09a4.95 4.95 0 0 1-3.69-6.04l.18-.73-.71-.26c-1.71-.63-2.85-2.28-2.85-4.09a4.25 4.25 0 0 1 .53-2.07 6.09 6.09 0 0 0 3.85 1.38.84.84 0 0 0 .84-.84c0-.46-.38-.84-.84-.84-1.29 0-2.5-.56-3.34-1.54-.67-.79-1.04-1.79-1.04-2.82 0-1.36.62-2.61 1.7-3.45.37-.28.43-.81.15-1.18-.03-.04-.07-.08-.11-.12-.11-.39-.17-.79-.17-1.19 0-2.4 1.96-4.36 4.38-4.36s4.38 1.96 4.38 4.36c0 .46.38.84.84.84s.84-.38.84-.84c0-2.94-2.11-5.39-4.9-5.93-.04-.08-.08-.15-.15-.22-.49-.51-.76-1.18-.76-1.88 0-1.5 1.22-2.72 2.73-2.72 1.1 0 2.09.65 2.51 1.66a.85.85 0 0 0 1.11.45.84.84 0 0 0 .45-1.1c-.47-1.11-1.36-1.95-2.44-2.37 1.1-.75 2.54-1.57 3.53-1.6 1.19-.03 2.04.19 2.52.68.61.6.58 1.56.57 2.13v.22 8.09a3.47 3.47 0 0 0-1.78-.49.84.84 0 0 0 0 1.68 1.78 1.78 0 0 1 1.78 1.79v15.96c-.97-.9-2.23-1.4-3.56-1.4a.84.84 0 0 0 0 1.68c.96 0 1.86.38 2.53 1.05a3.57 3.57 0 0 1 1.04 2.53v1.71c-.02.08-.04.16-.04.25 0 2.71-2.24 4.94-4.99 4.94zm21.06-10.36l-.71.26.18.73a4.95 4.95 0 0 1 .15 1.21c0 2.32-1.58 4.3-3.84 4.83l-.4.09-.17.37a5.01 5.01 0 0 1-4.52 2.86c-2.75 0-4.99-2.23-4.99-4.97a.69.69 0 0 0-.04-.25V47.7a3.59 3.59 0 0 1 1.04-2.53c.67-.68 1.57-1.05 2.53-1.05a.84.84 0 0 0 .84-.84c0-.46-.38-.84-.84-.84-1.33 0-2.59.5-3.56 1.4V24.93a2.16 2.16 0 0 1 2.14-2.15.84.84 0 0 0 .84-.84c0-.46-.38-.84-.84-.84a3.84 3.84 0 0 0-2.14.66v-4.94-.22c-.01-.57-.04-1.52.57-2.13.49-.48 1.33-.71 2.52-.68.99.03 2.44.85 3.53 1.6a4.43 4.43 0 0 0-2.44 2.37.84.84 0 0 0 .45 1.1c.43.18.92-.02 1.11-.45a2.73 2.73 0 0 1 2.51-1.66c1.5 0 2.73 1.22 2.73 2.72 0 .7-.27 1.37-.76 1.88-.06.06-.11.14-.15.22-2.79.54-4.9 2.99-4.9 5.93 0 .46.38.84.84.84a.84.84 0 0 0 .84-.84c0-2.4 1.96-4.36 4.38-4.36s4.38 1.96 4.38 4.36a4.28 4.28 0 0 1-.17 1.19l-.11.12c-.29.37-.22.89.15 1.18 1.08.83 1.7 2.09 1.7 3.45 0 1.03-.37 2.04-1.04 2.82-.83.98-2.05 1.54-3.34 1.54a.84.84 0 0 0-.84.84c0 .46.38.84.84.84 1.42 0 2.78-.49 3.85-1.38.34.63.53 1.34.53 2.07a4.37 4.37 0 0 1-2.85 4.11z"/></svg>