<svg xmlns="http://www.w3.org/2000/svg" viewBox="0 0 62 62" fill="#fff" xmlns:v="https://vecta.io/nano"><path d="M30.88 0C13.69 0 0 13.88 0 31s13.69 31 30.88 31S62 48.12 62 31 48.07 0 30.88 0zM51.3 51.34a28.82 28.82 0 0 1-9.18 6.17c-3.56 1.5-7.34 2.26-11.24 2.26-7.7 0-14.9-2.99-20.29-8.42-2.62-2.64-4.68-5.71-6.11-9.14C2.99 38.66 2.24 34.89 2.24 31s.75-7.66 2.23-11.21c1.43-3.43 3.49-6.5 6.11-9.14 5.39-5.43 12.6-8.42 20.29-8.42 3.9 0 7.68.76 11.24 2.26 3.44 1.45 6.53 3.52 9.18 6.17 2.65 2.64 4.74 5.72 6.19 9.14A28.42 28.42 0 0 1 59.75 31c0 3.88-.76 7.65-2.27 11.2-1.44 3.42-3.53 6.5-6.18 9.14zM33.12 41.31c-2.13.69-6.46.27-7.79-.53a.44.44 0 0 0-.6.15.44.44 0 0 0 .15.6c1.05.63 3.29 1 5.36 1 1.19 0 2.33-.12 3.15-.39.23-.07.35-.32.28-.55-.08-.23-.32-.36-.55-.28zm15.56-14.05c-.08-.02-2.02-.41-4.49.04-2.16.39-5.11 1.53-7.27 4.67-1.23-.76-2.74-1.25-4.39-1.39-1.89-.16-3.72.17-5.24.9a13.26 13.26 0 0 0-2.06-4.76c.01-1.08.19-3.37.89-4.78l.13.06c.84.37 1.74.55 2.64.55a6.59 6.59 0 0 0 1.86-.27l1.88-.55c.53-.16.97-.53 1.2-1.03s.24-1.08.01-1.58l-.45-1.01a2.49 2.49 0 0 0 .35-.62l.29-.73c.38-.96.01-2.05-.88-2.59l-2.98-1.82a3.36 3.36 0 0 0-1.77-.5h-4.64a3.87 3.87 0 0 0-3.61 2.49l-3.25 8.57c-.75 1.99-1.25 4.07-1.46 6.19l-.81 7.97a3.96 3.96 0 0 0 2.04 3.87l4.6 2.51a18.37 18.37 0 0 0 8.8 2.25c1.28 0 2.56-.13 3.83-.4l6.26-1.34c.21.54.35 1.18.38 1.95a.75.75 0 0 0 .75.71h.03c.41-.02.73-.36.72-.77-.18-4.29-3.2-5.79-4.78-5.99-.41-.05-.78.24-.83.64-.05.41.23.78.64.83.08.01 1.3.2 2.28 1.28l-5.76 1.23a16.89 16.89 0 0 1-11.6-1.69l-4.6-2.51c-.87-.48-1.38-1.43-1.27-2.42l.81-7.97c.2-1.99.66-3.95 1.37-5.82l3.25-8.57c.35-.91 1.24-1.53 2.22-1.53h4.64c.35 0 .69.1.99.28l2.98 1.82c.27.16.38.49.26.78l-.29.73c-.15.38-.51.63-.92.63h-1.57c-.25 0-.46-.21-.46-.46v-.77a.74.74 0 0 0-.75-.74.74.74 0 0 0-.75.74v.77a1.96 1.96 0 0 0 1.95 1.95h1.57a2.83 2.83 0 0 0 .71-.1l.34.76c.07.15.03.28 0 .35a.4.4 0 0 1-.27.23l-1.88.55c-1.15.34-2.38.26-3.48-.22l-.72-.32-2.73-1.2c-.38-.17-.82 0-.98.38-.17.38 0 .82.38.98l1.96.86c-1.05 2.19-1.02 5.48-1.02 5.63v.24l.14.19c1.45 1.99 1.92 4.11 2.05 4.91a6.9 6.9 0 0 0-.86.75c-.29.3-.28.77.02 1.05.3.29.77.28 1.06-.02 1.43-1.48 3.78-2.23 6.27-2.02 2.32.2 4.37 1.22 5.36 2.67a.75.75 0 0 0 .62.33.74.74 0 0 0 .62-1.16c-.25-.37-.55-.71-.88-1.02 1.5-2.22 3.62-3.59 6.3-4.1 2.17-.41 3.93-.06 3.97-.06.4.08.8-.17.88-.58.06-.4-.2-.79-.6-.88z"/></svg>