<svg id="IAMS_FOR_LIFE_lockup" data-name="IAMS FOR LIFE lockup" xmlns="http://www.w3.org/2000/svg" width="119.259" height="48.39" viewBox="0 0 119.259 48.39">
  <path id="FOR_LIFE" data-name="FOR LIFE" d="M165.216,159.816h13.953v-5.483h-7.751v-1.827h6.838v-5.122h-6.838V145.7H178.7v-5.481H165.216Zm-9.271-14.092h6.784v-5.509H149.494v19.6h6.478v-6.645h5.953v-5.4h-5.981Zm-16.5,14.092h6.645v-19.6h-6.645Zm-14.781,0h13.151V154.14h-6.506V140.215h-6.645ZM104.85,145.337h1.566a5.741,5.741,0,0,1,.659.042,1.974,1.974,0,0,1,.659.193,1.246,1.246,0,0,1,.494.457,1.556,1.556,0,0,1,.192.832,1.4,1.4,0,0,1-.233.844,1.681,1.681,0,0,1-.576.5,2.243,2.243,0,0,1-.743.235,5.22,5.22,0,0,1-.728.056H104.85Zm-6.339,14.479h6.395v-7h.193l3.756,7h7.568l-4.973-7.946a5.551,5.551,0,0,0,3.424-5.288,6.239,6.239,0,0,0-.693-3.086,5.547,5.547,0,0,0-1.813-1.966,7.259,7.259,0,0,0-2.548-1.025,14.352,14.352,0,0,0-2.864-.29H98.511Zm-16.9-11.641a3.822,3.822,0,0,1,.8-1.329A3.62,3.62,0,0,1,83.647,146a3.939,3.939,0,0,1,1.549-.3,3.844,3.844,0,0,1,1.537.3,3.8,3.8,0,0,1,1.231.846,3.711,3.711,0,0,1,.818,1.329,4.987,4.987,0,0,1,.29,1.73,5.182,5.182,0,0,1-.29,1.772,4.128,4.128,0,0,1-.818,1.384,3.66,3.66,0,0,1-2.768,1.219,3.783,3.783,0,0,1-1.549-.319,3.5,3.5,0,0,1-1.233-.9,4.263,4.263,0,0,1-.8-1.384,5.182,5.182,0,0,1-.29-1.772,4.987,4.987,0,0,1,.29-1.73M75.147,154.2a9.79,9.79,0,0,0,2.284,3.308,10.166,10.166,0,0,0,3.447,2.117,12.835,12.835,0,0,0,8.637,0,10.323,10.323,0,0,0,3.461-2.117,9.708,9.708,0,0,0,2.3-3.308,10.783,10.783,0,0,0,.83-4.291,10.484,10.484,0,0,0-.83-4.25,9.373,9.373,0,0,0-2.3-3.225,10.327,10.327,0,0,0-3.461-2.049,13.326,13.326,0,0,0-8.637,0,10.169,10.169,0,0,0-3.447,2.049,9.449,9.449,0,0,0-2.284,3.225,10.484,10.484,0,0,0-.83,4.25,10.783,10.783,0,0,0,.83,4.291m-8.787-8.472h6.782v-5.509H59.91v19.6h6.478v-6.645H72.34v-5.4H66.36Z" transform="translate(-59.91 -111.98)" fill="#fff"/>
  <g id="IAMS_logo" data-name="IAMS logo" transform="translate(13.758 0)">
    <path id="Path_3361" data-name="Path 3361" d="M102.773,60.246a3.125,3.125,0,0,0-3.224,2.992V77.825a3.045,3.045,0,0,0,.961,2.163,2.861,2.861,0,0,0,2.263.876,3.258,3.258,0,0,0,3.195-3.031l0-14.565a3.143,3.143,0,0,0-3.2-3.021" transform="translate(-99.549 -60.129)" fill="#fff"/>
    <path id="Path_3362" data-name="Path 3362" d="M202.662,76.274,200.7,63.809c-.235-1.465-.805-3.425-3.243-3.442-2.177-.014-2.491.722-3.629,2.941l-2.7,6.4-2.7-6.4c-1.138-2.217-1.448-2.953-3.628-2.941-2.438.014-3.009,1.974-3.247,3.438L179.59,76.269c-.05.312-.071.657-.118.994a3.266,3.266,0,0,0,3.265,3.521,2.958,2.958,0,0,0,3.121-2.549l.833-4.139,1.54,4.012c.569,1.1,1.209,2.675,2.893,2.675,1.669,0,2.409-1.573,2.941-2.675L195.646,74l.746,4.24a2.984,2.984,0,0,0,3.125,2.548,3.229,3.229,0,0,0,3.26-3.52c-.056-.339-.062-.678-.115-.994" transform="translate(-151.717 -60.207)" fill="#fff"/>
    <path id="Path_3363" data-name="Path 3363" d="M259.368,67.5c-.547-.211-1.229-.8-1.052-1.409a1.175,1.175,0,0,1,1.462-.771,5.141,5.141,0,0,1,1.747,1.119,2.848,2.848,0,0,0,3.163.414,2.479,2.479,0,0,0,.836-3.206A5.561,5.561,0,0,0,261.7,60.75c-2.466-.583-6.542-.808-8.73,2.563a6.874,6.874,0,0,0-.283,6.066c1.077,2.312,3.747,3.043,6.01,3.694.691.2,1.67.683,1.4,1.541a1.2,1.2,0,0,1-1.377.725,4.92,4.92,0,0,1-2.319-1.176,4.884,4.884,0,0,0-2.7-.894c-1.958.022-2.822,2.319-2.267,4a3.661,3.661,0,0,0,.8,1.352,11.176,11.176,0,0,0,1.05.862c2.525,1.944,8,2.274,11-.039a6.509,6.509,0,0,0,2.251-4.536c.347-4.676-3.771-6.091-7.165-7.41" transform="translate(-198.609 -60.234)" fill="#fff"/>
    <path id="Path_3364" data-name="Path 3364" d="M309.249,80.692a6.791,6.791,0,1,1-6.7,6.789,6.75,6.75,0,0,1,6.7-6.789" transform="translate(-232.087 -73.479)" fill="#fff"/>
    <path id="Path_3365" data-name="Path 3365" d="M305.8,66.446a3.268,3.268,0,1,0-3.227-3.27,3.251,3.251,0,0,0,3.227,3.27" transform="translate(-232.105 -59.91)" fill="#fff"/>
    <path id="Path_3366" data-name="Path 3366" d="M328.255,66.863a3.2,3.2,0,1,0-3.157-3.2,3.182,3.182,0,0,0,3.157,3.2" transform="translate(-246.812 -60.266)" fill="#fff"/>
    <path id="Path_3367" data-name="Path 3367" d="M348.055,78.51a3.16,3.16,0,1,0-3.161,3.2,3.179,3.179,0,0,0,3.161-3.2" transform="translate(-257.674 -69.965)" fill="#fff"/>
    <path id="Path_3368" data-name="Path 3368" d="M348.5,96.768a3.268,3.268,0,1,0,3.224,3.268,3.249,3.249,0,0,0-3.224-3.268" transform="translate(-259.982 -83.975)" fill="#fff"/>
    <path id="Path_3369" data-name="Path 3369" d="M131.164,73.589a1.643,1.643,0,1,1,1.622-1.647,1.634,1.634,0,0,1-1.622,1.647m9.1,2.9L135.363,64.8c-.841-2.148-1.529-4.38-4.155-4.38-2.692,0-3.367,2.295-4.254,4.4l-4.809,11.662c-.758,1.988-.181,3.553,1.494,4.268a3.11,3.11,0,0,0,4.171-1.906L128.86,76.7h4.894l.891,2.146a3.021,3.021,0,0,0,4.129,1.908c1.673-.716,2.252-2.28,1.5-4.265" transform="translate(-114.087 -60.24)" fill="#fff"/>
    <path id="Path_3370" data-name="Path 3370" d="M364.516,91.5V91.7h.305v.818h.232V91.7h.307V91.5Zm1.844,0-.269.432-.269-.432h-.246v1.023h.219v-.691l.283.448h.019l.282-.448v.691h.219V91.5Z" transform="translate(-272.548 -80.533)" fill="#fff"/>
  </g>
</svg>
