<svg xmlns="http://www.w3.org/2000/svg" viewBox="0 0 62 62" fill="#fff" xmlns:v="https://vecta.io/nano"><path d="M31 0C13.88 0 0 13.88 0 31s13.88 31 31 31 31-13.88 31-31S48.12 0 31 0zm20.34 51.34a28.76 28.76 0 0 1-9.14 6.17c-3.55 1.5-7.31 2.26-11.2 2.26-3.88 0-7.65-.76-11.2-2.26-3.43-1.45-6.5-3.52-9.14-6.17a28.76 28.76 0 0 1-6.17-9.14c-1.5-3.55-2.26-7.31-2.26-11.2 0-3.88.76-7.65 2.26-11.2 1.45-3.43 3.52-6.5 6.17-9.14a28.76 28.76 0 0 1 9.14-6.17c3.55-1.5 7.31-2.26 11.2-2.26 3.88 0 7.65.76 11.2 2.26 3.43 1.45 6.5 3.52 9.14 6.17a28.76 28.76 0 0 1 6.17 9.14c1.5 3.55 2.26 7.31 2.26 11.2 0 3.88-.76 7.65-2.26 11.2a28.76 28.76 0 0 1-6.17 9.14zM39.78 14.42l-4.63 8.02h-8.34l-4.1-7.09L25 11.34a2.39 2.39 0 0 0 .71.1 2.48 2.48 0 1 0-2.48-2.48c0 .58.2 1.11.54 1.54l-2.2 3.84h-9.56L6.95 23.1l4.65 8.06-4.65 8.06 5.06 8.76h10.12l4.63-8.02h8.39a.99.99 0 0 0 .09.24l2.56 4.24c.14.23.39.36.64.36a.67.67 0 0 0 .38-.11c.35-.21.47-.67.25-1.02l-2.56-4.24a1.15 1.15 0 0 0-.14-.17l4.23-7.33h9.29l5.06-8.76-5.06-8.76H39.78zM25.71 7.97c.55 0 .99.45.99.99 0 .55-.45.99-.99.99-.55 0-.99-.45-.99-.99s.44-.99.99-.99zm-12.84 7.86h8.4l4.2 7.28-4.2 7.28h-8.4l-4.2-7.28 4.2-7.28zm8.4 30.67h-8.4l-4.2-7.28 4.2-7.28h8.36l4.22 7.31-4.18 7.25zm13.85-8.02h-8.36l-4.22-7.31 4.18-7.24h8.4l4.2 7.28-4.2 7.27zm13.92-8.02h-8.4l-4.2-7.28 4.2-7.28h8.4l4.2 7.28-4.2 7.28zM14.08 17.67a.75.75 0 0 0-1.02.28l-2.46 4.3a.75.75 0 0 0 .28 1.02.71.71 0 0 0 .37.1c.26 0 .51-.13.65-.37l2.46-4.3c.2-.38.08-.83-.28-1.03zm19.9 19.27a.71.71 0 0 0 .37.1c.26 0 .51-.13.65-.37l2.46-4.3a.75.75 0 0 0-.28-1.02.75.75 0 0 0-1.02.28l-2.46 4.3c-.2.35-.08.8.28 1.01zm-22.14 2.04c-.21-.35-.67-.47-1.02-.25-.35.21-.47.67-.25 1.02l2.56 4.24c.14.23.39.36.64.36a.67.67 0 0 0 .38-.11c.35-.21.47-.67.25-1.02l-2.56-4.24zM48.05 17.7c-.35.21-.47.67-.25 1.02l2.56 4.24c.14.23.39.36.64.36a.67.67 0 0 0 .38-.11c.35-.21.47-.67.25-1.02l-2.56-4.24c-.21-.35-.67-.46-1.02-.25z"/></svg>