<svg xmlns="http://www.w3.org/2000/svg" viewBox="0 0 70 70" fill="#fff" xmlns:v="https://vecta.io/nano"><path d="M34.86 0C15.45 0 0 15.67 0 35s15.45 35 34.86 35S70 54.33 70 35 54.27 0 34.86 0zm23.06 57.97c-3 2.98-6.48 5.33-10.37 6.96-4.02 1.69-8.29 2.55-12.69 2.55-8.69 0-16.82-3.37-22.91-9.5a32.17 32.17 0 0 1-6.9-10.33c-1.67-4-2.52-8.26-2.52-12.65s.85-8.65 2.52-12.65c1.62-3.87 3.94-7.34 6.9-10.32 6.08-6.13 14.22-9.5 22.91-9.5 4.4 0 8.67.86 12.69 2.55 3.88 1.64 7.37 3.98 10.37 6.96a32.28 32.28 0 0 1 6.99 10.32A32.16 32.16 0 0 1 67.47 35c0 4.39-.86 8.64-2.56 12.64-1.64 3.87-4 7.34-6.99 10.33zM37.39 46.64c-2.4.77-7.29.3-8.79-.6-.23-.14-.53-.07-.68.17a.47.47 0 0 0 .17.67c1.19.72 3.72 1.13 6.05 1.13 1.35 0 2.63-.14 3.56-.44.26-.08.4-.36.32-.62-.09-.25-.37-.39-.63-.31zm17.57-15.86c-.09-.02-2.29-.46-5.07.04-2.43.45-5.77 1.73-8.21 5.27-1.38-.85-3.1-1.41-4.96-1.57-2.13-.18-4.19.19-5.92 1.01-.27-1.25-.9-3.33-2.33-5.38.01-1.22.21-3.81 1-5.4l.15.07a7.35 7.35 0 0 0 2.99.62 7.56 7.56 0 0 0 2.1-.3l2.13-.62c.6-.18 1.09-.6 1.35-1.17a2.13 2.13 0 0 0 .01-1.78l-.51-1.14a2.83 2.83 0 0 0 .4-.7l.32-.83c.43-1.09.01-2.32-.99-2.93l-3.37-2.06c-.6-.37-1.3-.56-2-.56h-5.24a4.39 4.39 0 0 0-4.08 2.81l-3.66 9.67a27.59 27.59 0 0 0-1.65 6.99l-.91 9c-.18 1.79.72 3.5 2.31 4.37l5.19 2.84c3.06 1.67 6.48 2.54 9.93 2.54 1.44 0 2.89-.15 4.32-.46l7.07-1.51c.23.61.39 1.33.43 2.21.02.45.39.81.84.81h.04a.84.84 0 0 0 .81-.87c-.2-4.84-3.62-6.54-5.4-6.77-.46-.06-.88.27-.94.72-.06.46.26.88.72.94.09.01 1.47.22 2.57 1.44l-6.5 1.39a19.03 19.03 0 0 1-13.09-1.91l-5.19-2.84c-.99-.54-1.55-1.61-1.44-2.73l.91-9a26.09 26.09 0 0 1 1.55-6.57l3.66-9.67a2.69 2.69 0 0 1 2.5-1.72h5.24a2.11 2.11 0 0 1 1.12.32l3.37 2.06c.3.18.43.56.3.88l-.32.83c-.17.43-.58.71-1.04.71h-1.78c-.29 0-.52-.23-.52-.52v-.87c0-.46-.38-.84-.84-.84a.84.84 0 0 0-.84.84v.87a2.21 2.21 0 0 0 2.21 2.2h1.78c.28 0 .54-.04.8-.12l.39.86c.08.17.03.32 0 .4a.47.47 0 0 1-.3.26l-2.13.62a5.75 5.75 0 0 1-3.92-.25l-.82-.36-3.09-1.35c-.43-.19-.92.01-1.11.43s.01.92.43 1.11l2.21.97c-1.18 2.47-1.15 6.18-1.15 6.36v.27l.16.22c1.64 2.25 2.16 4.64 2.31 5.54a7.2 7.2 0 0 0-.97.85.85.85 0 0 0 .02 1.19c.34.32.87.31 1.19-.02 1.62-1.67 4.26-2.52 7.08-2.28 2.62.22 4.93 1.38 6.05 3.01.16.24.43.37.7.37a.82.82 0 0 0 .47-.15.83.83 0 0 0 .22-1.17c-.28-.41-.62-.8-1-1.15 1.7-2.5 4.09-4.06 7.11-4.63 2.45-.46 4.44-.07 4.48-.06.46.09.9-.2 1-.65.09-.46-.2-.91-.65-1z"/></svg>