<svg xmlns="http://www.w3.org/2000/svg" width="176.924" height="71.788" fill="#fff" xmlns:v="https://vecta.io/nano"><path d="M156.225 70.967h20.7v-8.134h-11.5v-2.71h10.144v-7.6h-10.144v-2.5h10.8v-8.132h-20zM142.47 50.061h10.064v-8.173h-19.633v29.079h9.61v-9.862h8.832v-8h-8.873zm-24.473 20.906h9.858V41.888h-9.858zm-21.927 0h19.509v-8.42h-9.652V41.888H96.07zm-29.4-21.481h2.32c.327.002.653.023.978.062a2.93 2.93 0 0 1 .978.286 1.85 1.85 0 0 1 .733.678 2.31 2.31 0 0 1 .284 1.234c.022.444-.1.882-.346 1.252-.225.309-.517.561-.855.739a3.33 3.33 0 0 1-1.1.348 7.74 7.74 0 0 1-1.079.082H66.67zm-9.4 21.481h9.487V60.575h.286l5.571 10.391h11.227l-7.378-11.788c3.157-1.308 5.177-4.43 5.079-7.845.056-1.589-.298-3.166-1.028-4.579a8.23 8.23 0 0 0-2.69-2.917 10.77 10.77 0 0 0-3.779-1.52 21.29 21.29 0 0 0-4.249-.43H57.265zM32.19 53.696a5.67 5.67 0 0 1 1.2-1.971 5.37 5.37 0 0 1 1.829-1.254c.728-.304 1.511-.458 2.3-.451a5.7 5.7 0 0 1 2.28.451c.686.293 1.307.719 1.827 1.254a5.5 5.5 0 0 1 1.213 1.971 7.4 7.4 0 0 1 .43 2.566 7.69 7.69 0 0 1-.43 2.628 6.13 6.13 0 0 1-1.213 2.054 5.43 5.43 0 0 1-4.107 1.808 5.62 5.62 0 0 1-2.3-.474 5.2 5.2 0 0 1-1.829-1.335c-.523-.603-.927-1.3-1.191-2.054a7.69 7.69 0 0 1-.43-2.628 7.4 7.4 0 0 1 .43-2.566m-9.59 8.933a14.52 14.52 0 0 0 3.388 4.908 15.08 15.08 0 0 0 5.114 3.141 19.04 19.04 0 0 0 12.813 0c1.903-.697 3.648-1.765 5.135-3.141a14.4 14.4 0 0 0 3.409-4.908 16 16 0 0 0 1.232-6.367c.032-2.163-.388-4.309-1.232-6.3a13.9 13.9 0 0 0-3.409-4.785 15.32 15.32 0 0 0-5.135-3.04 19.77 19.77 0 0 0-12.813 0 15.08 15.08 0 0 0-5.114 3.04 14.02 14.02 0 0 0-3.388 4.785c-.844 1.991-1.264 4.137-1.232 6.3a16 16 0 0 0 1.232 6.367M9.569 50.061h10.062v-8.173H0v29.079h9.61v-9.862h8.83v-8H9.569zM25.194.174a4.64 4.64 0 0 0-4.783 4.439v21.638a4.52 4.52 0 0 0 1.425 3.209c.871.91 2.101 1.386 3.357 1.3 2.508-.043 4.567-1.997 4.739-4.5l.006-21.608C29.84 2.115 27.731.123 25.193.17M95.99 23.835L93.084 5.343C92.736 3.17 91.889.262 88.273.237c-3.23-.021-3.7 1.071-5.384 4.362l-4.008 9.5-4.008-9.5C73.184 1.31 72.725.218 69.491.237c-3.617.021-4.463 2.929-4.818 5.1l-2.91 18.494-.175 1.475c-.106 1.349.358 2.681 1.278 3.673s2.213 1.554 3.566 1.55a4.39 4.39 0 0 0 4.63-3.782l1.236-6.14 2.284 5.952c.845 1.633 1.794 3.969 4.292 3.969 2.476 0 3.574-2.334 4.362-3.969l2.346-6.1 1.106 6.29a4.43 4.43 0 0 0 4.636 3.78 4.79 4.79 0 0 0 4.836-5.221l-.171-1.475m14.559-13.06c-.811-.313-1.823-1.186-1.561-2.091a1.74 1.74 0 0 1 2.169-1.143 7.63 7.63 0 0 1 2.591 1.66c1.292 1.143 3.149 1.386 4.692.614a3.68 3.68 0 0 0 1.24-4.756 8.25 8.25 0 0 0-5.668-4.292c-3.658-.865-9.705-1.2-12.951 3.8a10.2 10.2 0 0 0-.42 9c1.6 3.429 5.559 4.515 8.916 5.481 1.026.3 2.478 1.013 2.072 2.286-.326.81-1.191 1.265-2.043 1.075-1.364-.105-2.362-1.009-3.44-1.745-1.173-.829-2.565-1.29-4-1.326-2.9.033-4.187 3.44-3.363 5.93a5.43 5.43 0 0 0 1.186 2.006 16.71 16.71 0 0 0 1.557 1.279c3.747 2.884 11.864 3.374 16.315-.058 1.976-1.7 3.18-4.127 3.339-6.729.515-6.937-5.594-9.036-10.63-10.992m24.335-.071c4.087-.052 7.8 2.369 9.4 6.13s.77 8.115-2.102 11.023-7.215 3.793-10.996 2.241-6.249-5.235-6.248-9.322c-.032-5.527 4.419-10.035 9.946-10.072"/><path d="M129.739 9.697a4.85 4.85 0 0 0 3.513-8.255 4.85 4.85 0 0 0-8.3 3.404c-.016 2.661 2.126 4.831 4.787 4.851m11.496.089c1.929.028 3.684-1.113 4.441-2.887s.366-3.831-.989-5.204a4.75 4.75 0 0 0-5.19-1.057c-1.784.734-2.948 2.473-2.946 4.402a4.72 4.72 0 0 0 4.684 4.746m13.258 2.892a4.69 4.69 0 0 0-4.729-4.624 4.69 4.69 0 0 0-4.646 4.708 4.69 4.69 0 0 0 4.686 4.668 4.72 4.72 0 0 0 3.331-1.403 4.71 4.71 0 0 0 1.359-3.349m-2.761 6.301a4.85 4.85 0 1 0 4.783 4.848 4.82 4.82 0 0 0-4.783-4.848m-105.987.824a2.44 2.44 0 1 1 2.406-2.443c.01 1.339-1.067 2.433-2.406 2.443m13.507 4.3L51.974 6.76c-1.248-3.186-2.268-6.5-6.165-6.5-3.994 0-4.995 3.4-6.311 6.533l-7.135 17.3c-1.125 2.949-.268 5.271 2.216 6.331 2.525 1.061 4.989-.113 6.187-2.828l1.559-3.184h7.26l1.322 3.184a4.48 4.48 0 0 0 6.126 2.83c2.482-1.063 3.341-3.382 2.218-6.327m97.597-7.831v.3h.453v1.213h.344v-1.213h.455v-.3zm2.735 0l-.4.641-.4-.641h-.364v1.518h.325v-1.03l.42.665h.029l.418-.665v1.026h.325v-1.514z"/></svg>