<svg xmlns="http://www.w3.org/2000/svg" xmlns:xlink="http://www.w3.org/1999/xlink" viewBox="0 0 72 72" xmlns:v="https://vecta.io/nano"><path d="M36 2.59a33.18 33.18 0 0 1 13 2.62c3.98 1.68 7.55 4.09 10.62 7.16s5.48 6.64 7.16 10.62c1.74 4.12 2.62 8.49 2.62 13a33.18 33.18 0 0 1-2.62 13c-1.68 3.98-4.09 7.55-7.16 10.62S52.98 65.09 49 66.77c-4.12 1.74-8.49 2.62-13 2.62a33.18 33.18 0 0 1-13-2.62c-3.98-1.68-7.55-4.09-10.62-7.16C9.31 56.55 6.9 52.98 5.22 49 3.48 44.88 2.6 40.51 2.6 36a33.18 33.18 0 0 1 2.62-13c1.68-3.98 4.09-7.55 7.16-10.62S19.02 6.9 23 5.22c4.11-1.75 8.49-2.63 13-2.63M36 0C16.12 0 0 16.12 0 36s16.12 36 36 36 36-16.12 36-36S55.88 0 36 0h0z" fill="#fff"/><defs><path id="A" d="M27.67 31.87l1.29 4.93 1.8 3.74 3.81 3.44 5.61 2.74 2.87.65 16.09.81-17.83 12.2c-.27.05-9.7.6-10.25.6-.54 0-7.1.7-7.91.65s-7.75-1.03-8.08-1.25-1.95.05-3.2-1.03-7.32-15.72-7.32-16.1 1.14-13.11 1.14-13.33 3.69-9.38 4.07-9.71 10.95-2.17 10.95-2.17l6.96 13.83z"/></defs><clipPath id="B"><use xlink:href="#A"/></clipPath><g clip-path="url(#B)"><path d="M44.02 43.87a8.4 8.4 0 0 0-5-3.97c-.34-.08-.67.13-.75.46a.62.62 0 0 0 .39.73c5.18 1.61 5.99 6.76 3.75 10.5-.93 1.6-2.88 3.08-4.15 3.9l.22-1.43c.33-3.13.97-6.51-.93-9.31-.19-.26-3.58-4.11-5.1-5.54a36.24 36.24 0 0 1-6.09-6.94c-2.15-3.09-3.2-5.18-5.36-7.63-.83-1.08-2.41-1.08-3.66-1.16-1-.09-2 .27-2.7.99-.76.72-1.6 1.35-2.5 1.88l-2.58 1.43a1.89 1.89 0 0 0-.83 2.4l.59 1.37c.64 1.38 2.09 2.19 3.6 2.01l1.25-.17a.78.78 0 0 1 .85.59c.33 1.03-.13 2.34-.38 3.33a7.3 7.3 0 0 0 1.14 6.08l1.52 2.11c.66 1.77.91 3.67.76 5.56l-.23 2.5c0 .4-.53.79-.76 1.06-.44.35-1.16.68-1.16 1.36v.67c0 .35.28.63.63.63h2.93c.31.04.88-.54 1.13-.69.55-.41.92-1.02 1.02-1.7l1.3-8.26 1.51 2.94c-.1 1.55.58 3.08 1.31 4.42H24.1a1.51 1.51 0 0 0-1.51 1.51v.02l.04 1.19c0 .35.28.63.63.63h14.2c.09 0 .17-.02.25-.05.85-.37 4.32-2.5 5.79-5 .6-1.11 2.42-4.81.52-8.42zM19.84 25.29l-1.01 3.83a4.82 4.82 0 0 1-.83 1.35 4.06 4.06 0 0 1-.43-1.11c-.5-1.25-.42-2.88-.15-4.65.7.11 1.92.02 2.42.58zm3.97 30.19c0-.15.12-.26.26-.26l2.62.04a.62.62 0 0 0 .63-.62.67.67 0 0 0-.06-.28l-1.06-2.14c-1.29-2.4-.43-6.13 2.58-6.56l2.88-.46c.34-.05.57-.37.52-.71s-.37-.57-.71-.52l-2.88.46c-1.75.28-3.21 1.47-3.82 3.13l-1.65-3.25a.63.63 0 0 0-.84-.28c-.18.09-.3.26-.34.46l-1.57 10.29c-.05.63-.67.99-1.11 1.32h-2.01a5.62 5.62 0 0 0 1.25-1.08 2.11 2.11 0 0 0 .58-1.25l.23-2.5a14.5 14.5 0 0 0-.85-6.19c-.54-1.71-.58-3.53-.13-5.27.09-.33-.11-.68-.45-.76-.33-.09-.68.11-.76.45a10.96 10.96 0 0 0-.33 3.23 6.05 6.05 0 0 1-.93-5c.29-1.14.75-2.54.43-3.72-.15-1.11-1.16-1.9-2.28-1.76l-1.25.17c-.98.1-1.91-.44-2.3-1.34l-.59-1.38c-.13-.3-.01-.65.28-.81l2.59-1.43c1.25-.63 2.36-1.88 3.39-2.5a9.88 9.88 0 0 0 .26 4.8c.23 1.2 1.11 2.66 2.36 1.76.56-.56.98-1.24 1.25-1.99l.83-3.13c3.02 4.03 5.89 9.48 9.95 12.99 1.55 1.31 5.19 5.46 5.76 6.11 1.6 2.34 1.01 5.5.71 8.42l-.33 2.14H23.86l-.05-.58z" fill="#fff"/></g><g fill="#fff"><path d="M44.91 13.39c4.48 0 8.69 1.74 11.85 4.91a16.63 16.63 0 0 1 4.91 11.85c0 4.48-1.74 8.69-4.91 11.85a16.63 16.63 0 0 1-11.85 4.91c-4.48 0-8.69-1.74-11.85-4.91a16.63 16.63 0 0 1-4.91-11.85c0-4.48 1.74-8.69 4.91-11.85s7.37-4.91 11.85-4.91m0-1c-9.81 0-17.77 7.95-17.77 17.77s7.95 17.77 17.77 17.77 17.77-7.95 17.77-17.77-7.96-17.77-17.77-17.77h0zm-.9 26.71c-.43 0-1.54-.11-2.44-1.13-.85-.96-1.05-2.5-.59-4.58-.48.04-.85-.01-1.54-.14.3 1.71-.3 2.55-.37 2.65-.94 1.22-2.57 1.3-3.69.74-1.25-.61-1.51-2.23-1.46-3.27l-.67.2c-.64.21-1.2.39-2.48.37-.2 0-.36-.17-.36-.36 0-.2.17-.35.36-.36 1.16.01 1.64-.14 2.25-.33.33-.11.71-.23 1.24-.33a.37.37 0 0 1 .33.1.4.4 0 0 1 .1.33c-.13.61-.13 2.45 1.01 3.01 1.27.62 2.37.02 2.81-.54.49-.63.26-2.07.13-2.57-.03-.12 0-.25.09-.34.08-.09.21-.13.33-.11 1.3.25 1.54.29 2.36.17.12-.02.24.03.32.12a.36.36 0 0 1 .08.33c-.53 2.06-.42 3.6.31 4.43.71.8 1.56.89 1.9.89l.21-.01h.02c.94-.09 1.65-.47 2.17-1.14.66-.85.43-2.63 0-4.01-.04-.13-.01-.26.09-.36.09-.09.23-.13.36-.09.78.23 1.15.17 1.72.08l.5-.07c.12-.01.24.03.32.13a.35.35 0 0 1 .06.34c0 .01-.2.62-.17 1.22.09 1.53.78 2.28 2.11 2.28h.03c1.09-.01 2.04-.9 2.04-1.92 0-.65-.13-1.3-.28-1.96-.02-.1 0-.21.06-.29s.15-.14.25-.15l.42-.05c1.56-.17 2.34-.26 3.99.2a.36.36 0 0 1 .25.44.36.36 0 0 1-.44.25c-1.51-.42-2.2-.34-3.72-.18H54c.12.57.21 1.13.21 1.72 0 1.42-1.26 2.62-2.76 2.64h-.03c-1.71 0-2.71-1.05-2.83-2.95-.02-.34.02-.67.07-.94-.43.07-.82.12-1.38.03.29 1.14.56 2.98-.28 4.07-.64.83-1.54 1.31-2.67 1.42h-.02l-.3.02zm-.02-1.4c-.49 0-.95-.22-1.3-.63-.5-.59-.7-1.5-.54-2.49.88-5.49 1.78-8.13 2.58-10.46.52-1.51 1.01-2.93 1.41-4.94.04-.18.2-.31.39-.29s.32.18.32.36c-.05 2.41-.41 4.28-.77 6.1-.57 2.94-1.07 5.47-.1 9.52.25 1.04-.04 1.68-.32 2.05-.45.58-1.16.78-1.67.78zm1.7-14.17l-.28.82c-.79 2.3-1.68 4.91-2.55 10.34-.13.78.01 1.48.38 1.91.21.24.47.38.75.38.32 0 .81-.13 1.11-.51.27-.34.33-.83.19-1.43-1.01-4.2-.47-6.93.09-9.82l.31-1.69zm5.61 12.7c-.39 0-.75-.18-1.03-.5-.39-.46-.54-1.15-.42-1.91.65-4.05 1.31-6 1.9-7.72.38-1.1.74-2.15 1.03-3.61.04-.19.21-.31.4-.29s.32.19.31.38L53 27.26c-.32 2.4-.57 4.29-.14 6.79.15.84-.1 1.34-.33 1.62a1.64 1.64 0 0 1-1.23.56zm1.07-9.72c-.56 1.65-1.2 3.57-1.81 7.43-.09.55.01 1.03.26 1.33a.61.61 0 0 0 .48.24c.21 0 .49-.08.68-.3.2-.23.25-.58.18-1.03-.45-2.61-.19-4.55.14-7.01.01-.22.04-.43.07-.66zm-15.71 9.31c-.39 0-.75-.18-1.03-.5-.39-.46-.54-1.15-.42-1.91.6-3.75 1.26-5.6 1.84-7.24.45-1.26.84-2.35 1.09-4.08a.37.37 0 0 1 .38-.31.36.36 0 0 1 .34.35c.08 2.58-.19 4.4-.43 6.01-.26 1.79-.49 3.34-.2 5.5.12.86-.14 1.37-.38 1.64a1.55 1.55 0 0 1-1.19.54zm1.37-10.26l-.3.86c-.57 1.6-1.22 3.42-1.81 7.11-.09.55.01 1.03.26 1.33a.61.61 0 0 0 .48.24c.09 0 .42-.02.64-.28.2-.23.27-.6.21-1.07-.31-2.27-.07-3.86.2-5.7l.32-2.49z"/><circle cx="36.3" cy="38.05" r=".48"/><circle cx="32.7" cy="36.14" r=".48"/><circle cx="53.54" cy="37.51" r=".48"/><circle cx="55.88" cy="34.47" r=".48"/></g></svg>