<svg xmlns="http://www.w3.org/2000/svg" viewBox="0 0 72 72" fill="#fff" xmlns:v="https://vecta.io/nano"><path d="M35.86 0C15.89 0 0 16.12 0 36s15.89 36 35.86 36C55.82 72 72 55.88 72 36S55.82 0 35.86 0zm23.71 59.62a33.4 33.4 0 0 1-10.66 7.16c-4.13 1.74-8.53 2.62-13.06 2.62-8.94 0-17.3-3.47-23.56-9.77C9.25 56.57 6.86 53 5.2 49.02A33.62 33.62 0 0 1 2.6 36c0-4.52.87-8.9 2.6-13.02 1.67-3.98 4.05-7.55 7.09-10.62 6.26-6.3 14.63-9.77 23.56-9.77a33.51 33.51 0 0 1 13.06 2.62 33.4 33.4 0 0 1 10.66 7.16c3.08 3.07 5.5 6.64 7.19 10.62 1.75 4.12 2.63 8.49 2.63 13a33.19 33.19 0 0 1-2.63 13c-1.69 3.99-4.11 7.56-7.19 10.63zM38.46 47.97c-2.47.8-7.5.31-9.04-.62-.24-.14-.55-.07-.69.17s-.07.55.17.69c1.23.74 3.82 1.16 6.22 1.16 1.39 0 2.71-.14 3.66-.45.27-.09.41-.37.33-.63a.53.53 0 0 0-.65-.32zm18.07-16.31c-.09-.02-2.35-.48-5.21.05-2.5.46-5.93 1.78-8.44 5.42-1.42-.88-3.18-1.45-5.1-1.61-2.19-.19-4.31.19-6.09 1.04-.28-1.28-.92-3.43-2.39-5.53.01-1.26.22-3.92 1.03-5.56l.16.07a7.58 7.58 0 0 0 3.07.64c.72 0 1.45-.1 2.16-.31l2.19-.64c.62-.18 1.12-.62 1.39-1.2s.27-1.25.01-1.83l-.53-1.18a2.69 2.69 0 0 0 .41-.72l.33-.85c.44-1.12.01-2.38-1.02-3.01l-3.46-2.11c-.62-.38-1.33-.58-2.06-.58H27.6a4.52 4.52 0 0 0-4.2 2.89l-3.77 9.95c-.88 2.31-1.45 4.73-1.7 7.19l-.94 9.26a4.57 4.57 0 0 0 2.37 4.49l5.34 2.92c3.15 1.72 6.67 2.61 10.22 2.61a21.56 21.56 0 0 0 4.45-.47l7.27-1.55c.24.62.4 1.37.44 2.27a.87.87 0 0 0 .87.83h.04c.48-.02.85-.42.83-.9-.21-4.98-3.72-6.73-5.55-6.96-.47-.06-.9.27-.97.74-.06.47.27.9.74.97.1.01 1.51.23 2.65 1.48L39 50.9a19.59 19.59 0 0 1-13.47-1.96l-5.34-2.92c-1.02-.56-1.6-1.66-1.48-2.8l.94-9.26a26.55 26.55 0 0 1 1.59-6.75l3.77-9.95c.4-1.06 1.44-1.77 2.57-1.77h5.38a2.19 2.19 0 0 1 1.15.32l3.46 2.11a.75.75 0 0 1 .31.91l-.33.85a1.14 1.14 0 0 1-1.07.73h-1.83c-.29 0-.53-.24-.53-.53v-.9c0-.48-.39-.86-.87-.86a.87.87 0 0 0-.87.86v.9c0 1.25 1.02 2.26 2.27 2.26h1.83c.28 0 .56-.04.82-.12l.4.89c.08.18.03.33 0 .41a.5.5 0 0 1-.31.27l-2.19.64a5.92 5.92 0 0 1-4.04-.26l-.84-.37-3.17-1.39a.87.87 0 0 0-1.14.44.87.87 0 0 0 .44 1.14l2.27 1c-1.22 2.54-1.18 6.36-1.18 6.54v.27l.16.22c1.69 2.31 2.22 4.77 2.38 5.7a8.43 8.43 0 0 0-1 .87c-.33.34-.32.89.02 1.22a.88.88 0 0 0 1.23-.02c1.66-1.72 4.39-2.59 7.28-2.35 2.69.23 5.07 1.42 6.22 3.1a.86.86 0 0 0 .72.38.88.88 0 0 0 .49-.15.86.86 0 0 0 .23-1.2 7.64 7.64 0 0 0-1.03-1.19c1.74-2.57 4.2-4.17 7.31-4.76 2.52-.47 4.56-.07 4.61-.07a.87.87 0 0 0 1.03-.67c.11-.47-.19-.92-.66-1.02z"/></svg>