<svg xmlns="http://www.w3.org/2000/svg" viewBox="0 0 70 70" fill="#fff" xmlns:v="https://vecta.io/nano"><path d="M35 0C15.67 0 0 15.67 0 35s15.67 35 35 35 35-15.67 35-35S54.33 0 35 0zm22.97 57.97c-2.98 2.98-6.46 5.33-10.32 6.96-4 1.69-8.26 2.55-12.64 2.55-4.39 0-8.64-.86-12.64-2.55a32.41 32.41 0 0 1-10.32-6.96c-2.98-2.98-5.33-6.46-6.96-10.32-1.69-4-2.55-8.26-2.55-12.64 0-4.39.86-8.64 2.55-12.64a32.41 32.41 0 0 1 6.96-10.32c2.98-2.98 6.46-5.33 10.32-6.96 4-1.69 8.26-2.55 12.64-2.55 4.39 0 8.64.86 12.64 2.55a32.41 32.41 0 0 1 10.32 6.96c2.98 2.98 5.33 6.46 6.96 10.32 1.69 4 2.55 8.26 2.55 12.64 0 4.39-.86 8.64-2.55 12.64a32.63 32.63 0 0 1-6.96 10.32zM44.91 16.28l-5.23 9.05h-9.42l-4.62-8.01 2.59-4.52c.25.08.52.12.8.12a2.81 2.81 0 0 0 2.8-2.8 2.81 2.81 0 0 0-2.8-2.8 2.81 2.81 0 0 0-2.8 2.8c0 .66.23 1.26.61 1.74l-2.48 4.33h-10.8l-5.71 9.89 5.25 9.1-5.25 9.1 5.71 9.89h11.43l5.23-9.05h9.47a.88.88 0 0 0 .1.27l2.89 4.79c.16.26.44.41.72.41a.82.82 0 0 0 .43-.12c.4-.24.53-.76.29-1.15l-2.89-4.79c-.04-.07-.1-.14-.16-.19l4.78-8.27h10.49l5.71-9.89-5.71-9.89H44.91zM29.03 9a1.12 1.12 0 1 1 0 2.24 1.12 1.12 0 1 1 0-2.24zm-14.5 8.87h9.49l4.74 8.21-4.74 8.21h-9.49l-4.74-8.21 4.74-8.21zm9.48 34.63h-9.49l-4.74-8.21 4.74-8.21h9.43l4.77 8.26-4.71 8.16zm15.64-9.05h-9.43l-4.77-8.26 4.72-8.17h9.49l4.74 8.21-4.75 8.22zm15.71-9.06h-9.49l-4.74-8.21 4.74-8.21h9.49l4.74 8.21-4.74 8.21zM15.9 19.94a.85.85 0 0 0-1.15.31l-2.78 4.86a.85.85 0 0 0 .31 1.15c.13.08.27.11.42.11.29 0 .57-.15.73-.42l2.78-4.86a.85.85 0 0 0-.31-1.15zM38.36 41.7c.13.08.27.11.42.11.29 0 .57-.15.73-.42l2.78-4.86a.85.85 0 0 0-.31-1.15.85.85 0 0 0-1.15.31l-2.78 4.86c-.23.41-.09.92.31 1.15zm-24.99 2.31c-.24-.4-.76-.53-1.15-.29-.4.24-.53.76-.29 1.15l2.89 4.79c.16.26.44.41.72.41a.82.82 0 0 0 .43-.12c.4-.24.53-.76.29-1.15l-2.89-4.79zm40.88-24.02c-.4.24-.53.76-.29 1.15l2.89 4.79c.16.26.44.41.72.41a.82.82 0 0 0 .43-.12c.4-.24.53-.76.29-1.15l-2.89-4.79c-.23-.4-.75-.53-1.15-.29z"/></svg>