<svg xmlns="http://www.w3.org/2000/svg" viewBox="0 0 62 62" fill="#fff" xmlns:v="https://vecta.io/nano"><path d="M31 0C13.88 0 0 13.88 0 31s13.88 31 31 31 31-13.88 31-31S48.12 0 31 0zm20.34 51.34a28.76 28.76 0 0 1-9.14 6.17c-3.55 1.5-7.31 2.26-11.2 2.26-3.88 0-7.65-.76-11.2-2.26-3.43-1.45-6.5-3.52-9.14-6.17a28.76 28.76 0 0 1-6.17-9.14c-1.5-3.55-2.26-7.31-2.26-11.2 0-3.88.76-7.65 2.26-11.2 1.45-3.43 3.52-6.5 6.17-9.14a28.76 28.76 0 0 1 9.14-6.17c3.55-1.5 7.31-2.26 11.2-2.26 3.88 0 7.65.76 11.2 2.26 3.43 1.45 6.5 3.52 9.14 6.17a28.76 28.76 0 0 1 6.17 9.14c1.5 3.55 2.26 7.31 2.26 11.2 0 3.88-.76 7.65-2.26 11.2a28.76 28.76 0 0 1-6.17 9.14zM33.6 34.36a.54.54 0 0 0-.65.4c-.06.26.08.53.34.63 4.46 1.39 5.16 5.82 3.23 9.05-.8 1.38-2.48 2.66-3.57 3.36l.19-1.23c.29-2.69.84-5.6-.8-8.02-.17-.22-3.09-3.54-4.39-4.77a31.16 31.16 0 0 1-5.25-5.98c-1.85-2.66-2.76-4.46-4.61-6.57-.72-.93-2.07-.93-3.15-1a2.9 2.9 0 0 0-2.33.85c-.65.62-1.38 1.16-2.15 1.62l-2.22 1.23c-.74.4-1.04 1.3-.71 2.06l.51 1.18a3.01 3.01 0 0 0 3.1 1.73l1.08-.15c.34-.04.66.18.73.51.29.88-.11 2.01-.33 2.87-.47 1.81-.1 3.72.99 5.24l1.31 1.82c.56 1.53.79 3.16.65 4.78l-.2 2.15c0 .34-.46.68-.66.91-.38.3-1 .58-1 1.17v.58a.54.54 0 0 0 .54.54h2.53c.27.03.76-.47.97-.59.47-.35.79-.88.88-1.46l1.12-7.11 1.3 2.53c-.09 1.33.5 2.65 1.13 3.8h-1.39a1.3 1.3 0 0 0-1.3 1.3v.02l.03 1.03a.54.54 0 0 0 .54.54h12.22a.57.57 0 0 0 .22-.04c.73-.32 3.72-2.15 4.99-4.31.52-.95 2.1-4.14.46-7.25-.97-1.66-2.52-2.89-4.35-3.42zM15.01 21.27c.59.1 1.64.03 2.07.5l-.87 3.3c-.17.43-.41.82-.71 1.16-.17-.3-.29-.62-.37-.96-.42-1.07-.35-2.48-.12-4zm17.06 25.15l-.28 1.84H20.54l-.04-.48c0-.12.1-.23.23-.23l2.26.03c.3 0 .54-.23.55-.53 0-.08-.02-.17-.05-.24l-.92-1.84c-1.11-2.06-.37-5.28 2.22-5.65l2.48-.39c.29-.05.49-.32.45-.61-.05-.29-.32-.49-.61-.45l-2.48.39c-1.5.24-2.76 1.27-3.29 2.69l-1.42-2.8c-.13-.27-.46-.37-.72-.24-.15.08-.26.22-.29.39l-1.35 8.86c-.04.54-.58.85-.96 1.14h-1.73a5.06 5.06 0 0 0 1.08-.93 1.81 1.81 0 0 0 .5-1.08l.2-2.15c.15-1.81-.1-3.63-.73-5.33-.46-1.47-.5-3.04-.11-4.54a.55.55 0 0 0-.39-.66.55.55 0 0 0-.66.39c-.23.91-.33 1.84-.29 2.78-.89-1.25-1.18-2.83-.8-4.31.25-.99.65-2.19.37-3.2a1.77 1.77 0 0 0-1.96-1.52L11 27.9c-.84.09-1.64-.38-1.98-1.15l-.52-1.19c-.11-.26-.01-.56.24-.69l2.23-1.23c1.08-.54 2.04-1.62 2.92-2.15-.26 1.38-.19 2.8.22 4.14.2 1.03.96 2.29 2.04 1.52.48-.49.85-1.07 1.08-1.71l.71-2.69c2.6 3.47 5.07 8.16 8.57 11.18 1.33 1.13 4.47 4.7 4.96 5.26 1.36 1.99.86 4.71.6 7.23zm12.08-35.73c-.13-.13-.31-.2-.5-.18-.13.02-.26.08-.35.18L32.66 22.57l-3.79-3.79a.61.61 0 0 0-.85 0l-2.9 2.9a.61.61 0 0 0 0 .85l7.12 7.12a.61.61 0 0 0 .85 0l13.97-15.21a.61.61 0 0 0 0-.85l-2.91-2.9zM32.66 28.37l-6.26-6.26 2.05-2.05 3.78 3.78a.6.6 0 0 0 .85.01l10.65-11.88 2.04 2.04-13.11 14.36z"/></svg>