<svg xmlns="http://www.w3.org/2000/svg" width="119.259" height="48.39" fill="#fff" xmlns:v="https://vecta.io/nano"><path d="M105.306 47.836h13.953v-5.483h-7.751v-1.827h6.838v-5.122h-6.838V33.72h7.282v-5.481h-13.484zm-9.271-14.092h6.784v-5.509H89.584v19.6h6.478V41.19h5.953v-5.4h-5.981zm-16.5 14.092h6.645v-19.6h-6.645zm-14.781 0h13.151V42.16h-6.506V28.235h-6.645zM44.94 33.357h1.566a5.74 5.74 0 0 1 .659.042 1.98 1.98 0 0 1 .659.193 1.21 1.21 0 0 1 .494.457c.14.254.207.542.192.832a1.4 1.4 0 0 1-.233.844 1.68 1.68 0 0 1-.576.5 2.24 2.24 0 0 1-.743.235 5.22 5.22 0 0 1-.728.056h-1.29zm-6.339 14.479h6.395v-7h.193l3.756 7h7.568L51.54 39.89a5.55 5.55 0 0 0 3.424-5.288 6.24 6.24 0 0 0-.693-3.086 5.55 5.55 0 0 0-1.813-1.966 7.26 7.26 0 0 0-2.548-1.025 14.35 14.35 0 0 0-2.864-.29h-8.445zm-16.9-11.641a3.82 3.82 0 0 1 .8-1.329 3.62 3.62 0 0 1 1.236-.846 3.94 3.94 0 0 1 1.549-.3c.527-.007 1.051.096 1.537.3a3.8 3.8 0 0 1 1.231.846 3.71 3.71 0 0 1 .818 1.329 5 5 0 0 1 .29 1.73 5.18 5.18 0 0 1-.29 1.772 4.13 4.13 0 0 1-.818 1.384 3.66 3.66 0 0 1-2.768 1.219c-.533.004-1.061-.105-1.549-.319a3.5 3.5 0 0 1-1.233-.9c-.352-.407-.623-.876-.8-1.384a5.18 5.18 0 0 1-.29-1.772 5 5 0 0 1 .29-1.73m-6.467 6.025a9.79 9.79 0 0 0 2.284 3.308c.996.929 2.168 1.649 3.447 2.117a12.83 12.83 0 0 0 8.637 0 10.32 10.32 0 0 0 3.461-2.117 9.71 9.71 0 0 0 2.3-3.308 10.78 10.78 0 0 0 .83-4.291 10.49 10.49 0 0 0-.83-4.25c-.528-1.227-1.312-2.326-2.3-3.225-1.008-.903-2.184-1.599-3.461-2.049-2.799-.959-5.838-.959-8.637 0a10.17 10.17 0 0 0-3.447 2.049 9.45 9.45 0 0 0-2.284 3.225 10.49 10.49 0 0 0-.83 4.25 10.78 10.78 0 0 0 .83 4.291M6.45 33.748h6.782v-5.509H0v19.6h6.478v-6.645h5.952v-5.4H6.45zM16.982.117c-1.713-.056-3.152 1.279-3.224 2.992v14.587c.016.821.362 1.601.961 2.163a2.86 2.86 0 0 0 2.263.876 3.26 3.26 0 0 0 3.195-3.031V3.139c-.066-1.71-1.489-3.053-3.2-3.021m47.726 15.949L62.741 3.602C62.506 2.137 61.936.177 59.498.16c-2.177-.014-2.491.722-3.629 2.941l-2.7 6.4-2.7-6.4C49.331.884 49.021.148 46.841.16c-2.438.014-3.009 1.974-3.247 3.438l-1.963 12.464-.118.994a3.27 3.27 0 0 0 .861 2.476c.62.669 1.492 1.048 2.404 1.045a2.96 2.96 0 0 0 3.121-2.549l.833-4.139 1.54 4.012c.569 1.1 1.209 2.675 2.893 2.675 1.669 0 2.409-1.573 2.941-2.675l1.581-4.108.746 4.24c.224 1.531 1.58 2.637 3.125 2.548a3.23 3.23 0 0 0 3.26-3.52l-.115-.994m9.814-8.801c-.547-.211-1.229-.8-1.052-1.409.194-.614.846-.958 1.462-.771a5.14 5.14 0 0 1 1.747 1.119 2.85 2.85 0 0 0 3.163.414 2.48 2.48 0 0 0 .836-3.206A5.56 5.56 0 0 0 76.849.516c-2.466-.583-6.542-.808-8.73 2.563-1.031 1.868-1.135 4.11-.283 6.066 1.077 2.312 3.747 3.043 6.01 3.694.691.2 1.67.683 1.4 1.541a1.2 1.2 0 0 1-1.377.725 4.92 4.92 0 0 1-2.319-1.176 4.89 4.89 0 0 0-2.7-.894c-1.958.022-2.822 2.319-2.267 4a3.66 3.66 0 0 0 .8 1.352c.332.308.683.596 1.05.862 2.525 1.944 8 2.274 11-.039a6.51 6.51 0 0 0 2.251-4.536c.347-4.676-3.771-6.091-7.165-7.41m16.401-.051a6.79 6.79 0 1 1-6.7 6.789 6.75 6.75 0 0 1 6.7-6.789"/><path d="M87.453 6.536A3.27 3.27 0 0 0 89.82.973a3.27 3.27 0 0 0-3.566-.728 3.27 3.27 0 0 0-2.028 3.022 3.25 3.25 0 0 0 3.227 3.27m7.748.06a3.2 3.2 0 1 0-3.157-3.2c-.01 1.755 1.402 3.186 3.157 3.2m8.938 1.948a3.16 3.16 0 0 0-6.32.052 3.16 3.16 0 0 0 3.159 3.148 3.18 3.18 0 0 0 3.161-3.2m-1.863 4.248a3.27 3.27 0 1 0 3.224 3.268 3.25 3.25 0 0 0-3.224-3.268m-71.441.556a1.64 1.64 0 0 1-1.191-2.796c.468-.474 1.175-.62 1.792-.368s1.02.851 1.022 1.517c.003.434-.166.851-.47 1.16a1.63 1.63 0 0 1-1.152.487m9.1 2.9L35.034 4.56C34.193 2.412 33.505.18 30.879.18c-2.692 0-3.367 2.295-4.254 4.4l-4.809 11.662c-.758 1.988-.181 3.553 1.494 4.268a3.11 3.11 0 0 0 4.171-1.906l1.05-2.144h4.894l.891 2.146a3.02 3.02 0 0 0 4.129 1.908c1.673-.716 2.252-2.28 1.5-4.265m65.781-5.282v.2h.305v.818h.232v-.818h.307v-.2zm1.844 0l-.269.432-.269-.432h-.246v1.023h.219v-.691l.283.448h.019l.282-.448v.691h.219v-1.023z"/></svg>