<svg xmlns="http://www.w3.org/2000/svg" xmlns:xlink="http://www.w3.org/1999/xlink" viewBox="0 0 80 80" xmlns:v="https://vecta.io/nano"><path d="M40 2.88c5.01 0 9.87.98 14.45 2.92 4.42 1.87 8.39 4.55 11.8 7.96s6.09 7.38 7.96 11.8c1.93 4.57 2.92 9.44 2.92 14.45s-.98 9.87-2.92 14.45c-1.87 4.42-4.55 8.39-7.96 11.8s-7.38 6.09-11.8 7.96c-4.57 1.93-9.44 2.92-14.45 2.92s-9.87-.98-14.45-2.92c-4.42-1.87-8.39-4.55-11.8-7.96s-6.09-7.38-7.96-11.8A37.09 37.09 0 0 1 2.88 40c0-5.01.98-9.87 2.92-14.45 1.87-4.42 4.55-8.39 7.96-11.8s7.38-6.09 11.8-7.96A36.92 36.92 0 0 1 40 2.88M40 0C17.91 0 0 17.91 0 40s17.91 40 40 40 40-17.91 40-40S62.09 0 40 0h0z" fill="#fff"/><defs><path id="A" d="M30.75 35.41l1.44 5.48 2 4.16 4.23 3.83 6.24 3.04 3.19.72 17.88.9-19.81 13.55c-.3.06-10.78.66-11.38.66s-7.89.78-8.79.72-8.61-1.14-8.98-1.39c-.36-.24-2.17.06-3.55-1.14-1.39-1.2-8.13-17.47-8.13-17.89s1.26-14.57 1.26-14.82 4.1-10.42 4.52-10.78 12.17-2.41 12.17-2.41l7.71 15.37z"/></defs><clipPath id="B"><use xlink:href="#A"/></clipPath><g clip-path="url(#B)"><path d="M48.91 48.75c-1.2-2.15-3.2-3.73-5.56-4.41-.37-.09-.75.14-.84.52a.7.7 0 0 0 .43.81c5.76 1.79 6.65 7.51 4.17 11.67-1.04 1.78-3.2 3.43-4.61 4.33l.24-1.59c.37-3.48 1.08-7.23-1.04-10.34-.22-.29-3.98-4.57-5.67-6.15-2.58-2.27-4.85-4.87-6.77-7.72-2.38-3.43-3.56-5.76-5.95-8.48-.92-1.2-2.68-1.2-4.07-1.29a3.73 3.73 0 0 0-3 1.1c-.84.8-1.78 1.5-2.78 2.09l-2.86 1.58c-.95.52-1.35 1.67-.92 2.66l.65 1.52c.71 1.53 2.32 2.43 4 2.23l1.39-.19a.87.87 0 0 1 .95.66c.37 1.14-.14 2.6-.42 3.71-.6 2.33-.14 4.81 1.27 6.76l1.69 2.34c.73 1.97 1.02 4.08.84 6.17l-.26 2.78c0 .44-.59.88-.85 1.17-.49.39-1.29.75-1.29 1.52v.74c0 .38.31.7.7.7h3.26c.35.04.98-.6 1.25-.76A2.86 2.86 0 0 0 23.99 61l1.44-9.18 1.68 3.27c-.11 1.72.65 3.42 1.45 4.91h-1.79c-.93 0-1.68.75-1.68 1.68v.02l.04 1.33c0 .38.31.7.7.7H41.6a.67.67 0 0 0 .28-.06c.95-.41 4.8-2.78 6.44-5.56.68-1.24 2.71-5.35.59-9.36zM22.05 28.09l-1.12 4.25c-.22.55-.53 1.06-.92 1.5-.22-.39-.38-.8-.47-1.24-.56-1.39-.47-3.2-.17-5.16.76.14 2.12.04 2.68.65zm4.41 33.56a.29.29 0 0 1 .29-.29l2.91.04c.38 0 .7-.3.7-.69 0-.11-.02-.22-.07-.31l-1.18-2.38c-1.43-2.66-.48-6.81 2.86-7.29l3.2-.51a.69.69 0 1 0-.21-1.37l-3.2.51a5.46 5.46 0 0 0-4.25 3.48l-1.84-3.61c-.17-.34-.59-.48-.93-.31-.2.1-.34.29-.37.51l-1.74 11.43c-.06.7-.74 1.1-1.24 1.47h-2.23a6.13 6.13 0 0 0 1.39-1.2c.36-.38.59-.87.65-1.39l.26-2.78c.19-2.33-.13-4.68-.95-6.87a10.58 10.58 0 0 1-.15-5.85.7.7 0 0 0-.5-.85.7.7 0 0 0-.85.5c-.3 1.17-.43 2.38-.37 3.59-1.15-1.61-1.52-3.65-1.03-5.56.33-1.27.83-2.82.48-4.13-.17-1.24-1.29-2.11-2.53-1.96l-1.39.19c-1.09.12-2.12-.49-2.56-1.49L10.96 33a.7.7 0 0 1 .31-.9l2.88-1.59c1.39-.7 2.63-2.09 3.77-2.78-.34 1.78-.24 3.61.29 5.34.26 1.33 1.24 2.95 2.63 1.96a6.09 6.09 0 0 0 1.39-2.21l.92-3.48c3.36 4.48 6.55 10.53 11.05 14.43 1.72 1.45 5.77 6.06 6.4 6.79 1.77 2.6 1.13 6.11.79 9.36l-.36 2.38H26.51l-.05-.65z" fill="#fff"/></g><g fill="#fff"><path d="M49.9 14.88a18.54 18.54 0 0 1 13.17 5.45c3.52 3.52 5.45 8.19 5.45 13.17a18.54 18.54 0 0 1-5.45 13.17c-3.52 3.52-8.19 5.45-13.17 5.45a18.54 18.54 0 0 1-13.17-5.45c-3.52-3.52-5.45-8.19-5.45-13.17a18.54 18.54 0 0 1 5.45-13.17 18.54 18.54 0 0 1 13.17-5.45m0-1.12c-10.9 0-19.74 8.84-19.74 19.74S39 53.25 49.9 53.25s19.74-8.84 19.74-19.74S60.8 13.76 49.9 13.76h0zm-1 29.68c-.48 0-1.71-.12-2.71-1.26-.94-1.07-1.16-2.78-.66-5.09-.53.04-.94-.01-1.71-.15.33 1.9-.33 2.83-.42 2.94-1.05 1.35-2.86 1.44-4.1.83-1.39-.68-1.68-2.48-1.62-3.63l-.75.22c-.72.23-1.33.43-2.75.41a.39.39 0 0 1-.39-.41c0-.22.19-.39.41-.39 1.29.02 1.82-.15 2.5-.37.37-.12.79-.25 1.38-.37.13-.03.27.02.36.11.09.1.13.23.11.36-.15.67-.15 2.72 1.12 3.34 1.41.69 2.64.02 3.12-.6.55-.7.29-2.3.14-2.85-.03-.13 0-.27.1-.38a.39.39 0 0 1 .37-.12c1.44.28 1.71.32 2.62.19a.41.41 0 0 1 .36.13c.09.1.12.24.09.37-.59 2.29-.47 4 .35 4.93.79.89 1.74.99 2.11.99l.23-.01h.03c1.04-.1 1.83-.52 2.41-1.27.73-.95.48-2.92-.01-4.45a.4.4 0 0 1 .1-.4c.1-.11.26-.15.4-.1.86.25 1.28.19 1.91.09l.55-.08c.14-.01.27.04.36.14.09.11.11.25.07.38 0 .01-.22.69-.18 1.35.1 1.7.87 2.53 2.34 2.53h.03c1.21-.01 2.27-1.01 2.27-2.13 0-.73-.15-1.44-.31-2.18-.03-.11 0-.23.06-.32a.46.46 0 0 1 .28-.17l.47-.05c1.73-.19 2.6-.28 4.43.22.21.06.34.28.28.49s-.28.34-.49.28c-1.68-.46-2.45-.38-4.13-.19h-.02c.13.63.24 1.26.24 1.91 0 1.57-1.4 2.92-3.06 2.93h-.04c-1.9 0-3.01-1.16-3.14-3.28a4.31 4.31 0 0 1 .08-1.05c-.48.07-.91.13-1.53.04.32 1.27.62 3.31-.31 4.52-.72.93-1.71 1.46-2.97 1.58h-.02l-.36.02zm-.02-1.55c-.54 0-1.06-.25-1.44-.7-.56-.66-.78-1.67-.6-2.77.97-6.1 1.98-9.03 2.87-11.62.57-1.68 1.12-3.26 1.56-5.49.04-.2.23-.34.44-.32s.36.2.36.41c-.05 2.67-.46 4.76-.85 6.78-.64 3.26-1.19 6.08-.11 10.57.28 1.15-.04 1.87-.36 2.27-.52.64-1.3.87-1.87.87zm1.89-15.75l-.31.92c-.88 2.56-1.87 5.45-2.83 11.49-.14.87.02 1.64.42 2.12.23.27.53.42.83.42.36 0 .9-.15 1.23-.57.3-.38.37-.92.21-1.59-1.12-4.67-.53-7.7.1-10.91l.35-1.88zm6.22 14.11c-.43 0-.84-.2-1.14-.55-.43-.51-.6-1.28-.47-2.12.72-4.5 1.46-6.67 2.12-8.58.42-1.23.82-2.39 1.14-4.01.04-.21.24-.35.44-.32.21.03.36.21.35.42l-.55 5.2c-.36 2.66-.64 4.77-.16 7.54.16.93-.11 1.49-.37 1.8-.31.39-.83.62-1.36.62zm1.2-10.79c-.63 1.83-1.33 3.97-2.02 8.25-.1.61.01 1.15.29 1.48.15.17.34.27.53.27.23 0 .55-.09.76-.33.22-.26.28-.64.2-1.15-.5-2.9-.21-5.05.15-7.79l.09-.73zM40.73 39.81c-.43 0-.84-.2-1.14-.55-.43-.51-.6-1.28-.47-2.12.67-4.17 1.4-6.23 2.04-8.04.5-1.4.93-2.61 1.21-4.53.03-.21.21-.35.42-.34s.37.18.38.39c.08 2.87-.21 4.89-.48 6.68-.29 1.99-.55 3.71-.22 6.11.13.96-.16 1.52-.42 1.82-.32.36-.8.58-1.32.58zm1.53-11.41l-.34.96c-.63 1.78-1.35 3.8-2.01 7.9-.1.61.01 1.15.29 1.48.15.17.34.27.53.27a.99.99 0 0 0 .72-.31c.22-.26.3-.67.23-1.19-.34-2.52-.08-4.29.22-6.34l.36-2.77z"/><circle cx="40.33" cy="42.28" r=".53"/><circle cx="36.34" cy="40.16" r=".53"/><circle cx="59.49" cy="41.68" r=".53"/><circle cx="62.09" cy="38.31" r=".53"/></g></svg>