<svg xmlns="http://www.w3.org/2000/svg" xmlns:xlink="http://www.w3.org/1999/xlink" viewBox="0 0 70 70" xmlns:v="https://vecta.io/nano"><path d="M35 2.52c4.39 0 8.64.86 12.64 2.55a32.41 32.41 0 0 1 10.32 6.96c2.98 2.98 5.33 6.46 6.96 10.32 1.69 4 2.55 8.26 2.55 12.64s-.86 8.64-2.55 12.64a32.41 32.41 0 0 1-6.96 10.32c-2.98 2.98-6.46 5.33-10.32 6.96-4 1.69-8.26 2.55-12.64 2.55s-8.64-.86-12.64-2.55a32.41 32.41 0 0 1-10.32-6.96c-2.98-2.98-5.33-6.46-6.96-10.32-1.69-4-2.55-8.26-2.55-12.64s.86-8.64 2.55-12.64a32.41 32.41 0 0 1 6.96-10.32c2.98-2.98 6.46-5.33 10.32-6.96 4-1.69 8.25-2.55 12.64-2.55M35 0C15.67 0 0 15.67 0 35s15.67 35 35 35 35-15.67 35-35S54.33 0 35 0h0z" fill="#fff"/><defs><path id="A" d="M26.91 30.98l1.26 4.8 1.75 3.64 3.7 3.35 5.46 2.66 2.79.63 15.65.79-17.33 11.86c-.26.05-9.43.58-9.96.58s-6.9.69-7.7.63c-.79-.05-7.54-1-7.85-1.21-.32-.21-1.9.05-3.11-1S4.45 42.42 4.45 42.05 5.56 29.3 5.56 29.09s3.58-9.12 3.95-9.44 10.65-2.11 10.65-2.11l6.75 13.44z"/></defs><clipPath id="B"><use xlink:href="#A"/></clipPath><g clip-path="url(#B)"><path d="M42.8 42.65c-1.05-1.88-2.8-3.27-4.87-3.86a.6.6 0 0 0-.73.45c-.07.3.09.6.38.71 5.04 1.57 5.82 6.58 3.65 10.21-.91 1.56-2.8 3-4.03 3.79l.21-1.39c.32-3.04.94-6.33-.91-9.05-.19-.25-3.49-4-4.96-5.38a35.58 35.58 0 0 1-5.92-6.75c-2.09-3-3.11-5.04-5.21-7.42-.81-1.05-2.34-1.05-3.56-1.13-.98-.09-1.94.26-2.63.96-.74.7-1.55 1.31-2.43 1.82L9.29 27a1.82 1.82 0 0 0-.8 2.33l.57 1.33a3.4 3.4 0 0 0 3.5 1.95l1.22-.16c.38-.05.74.2.83.58.32 1-.12 2.27-.37 3.24-.53 2.04-.12 4.2 1.11 5.91l1.48 2.05c.64 1.73.89 3.57.74 5.4l-.23 2.43c0 .39-.52.77-.74 1.03-.43.34-1.13.66-1.13 1.33v.65c0 .34.27.61.61.61h2.85c.3.04.86-.53 1.09-.67a2.51 2.51 0 0 0 .99-1.65l1.26-8.03 1.47 2.86c-.1 1.5.57 2.99 1.27 4.29h-1.57c-.81 0-1.47.66-1.47 1.47v.02l.03 1.17c0 .34.27.61.61.61h13.8c.08 0 .17-.02.24-.05.83-.36 4.2-2.43 5.63-4.87.59-1.07 2.37-4.67.52-8.18zM19.29 24.58l-.98 3.72c-.19.48-.46.92-.8 1.31-.19-.34-.33-.7-.41-1.08-.49-1.22-.41-2.8-.15-4.52.66.12 1.85.04 2.34.57zm3.86 29.36c0-.14.11-.26.26-.26l2.55.04a.61.61 0 0 0 .62-.6c0-.1-.02-.19-.06-.27l-1.03-2.08c-1.25-2.33-.42-5.96 2.51-6.38l2.8-.44c.33-.05.56-.36.5-.69-.05-.33-.36-.56-.69-.5l-2.8.44c-1.7.27-3.12 1.43-3.72 3.04l-1.61-3.16c-.15-.3-.52-.42-.82-.27-.17.09-.3.25-.33.45l-1.53 10c-.05.61-.65.96-1.08 1.28h-1.95a5.34 5.34 0 0 0 1.22-1.05c.32-.33.52-.76.57-1.22l.23-2.43c.17-2.04-.11-4.1-.83-6.02-.52-1.66-.57-3.44-.13-5.12.08-.33-.11-.66-.44-.74s-.66.11-.74.44c-.26 1.02-.37 2.08-.32 3.14a5.89 5.89 0 0 1-.9-4.87c.29-1.11.73-2.47.42-3.61-.15-1.08-1.13-1.84-2.21-1.72l-1.22.16a2.2 2.2 0 0 1-2.24-1.3l-.58-1.35c-.13-.29-.01-.64.27-.78l2.52-1.39c1.22-.61 2.3-1.82 3.3-2.43-.3 1.55-.21 3.16.25 4.67.23 1.17 1.08 2.59 2.3 1.72.54-.55.96-1.21 1.22-1.93l.8-3.04c2.94 3.92 5.73 9.21 9.67 12.63 1.5 1.27 5.05 5.3 5.6 5.94 1.55 2.27.99 5.35.69 8.19l-.32 2.08H23.2l-.05-.57z" fill="#fff"/></g><g fill="#fff"><path d="M43.66 13.02c4.35 0 8.44 1.69 11.52 4.77s4.77 7.17 4.77 11.52-1.69 8.44-4.77 11.52-7.17 4.77-11.52 4.77-8.44-1.69-11.52-4.77-4.77-7.17-4.77-11.52 1.69-8.44 4.77-11.52a16.22 16.22 0 0 1 11.52-4.77m0-.98a17.27 17.27 0 1 0 0 34.54 17.27 17.27 0 1 0 0-34.54h0zm-.87 25.97c-.42 0-1.49-.11-2.37-1.1-.82-.93-1.02-2.43-.58-4.46-.47.03-.82-.01-1.5-.13.29 1.66-.29 2.48-.36 2.57-.92 1.18-2.5 1.26-3.59.72-1.21-.6-1.47-2.17-1.42-3.18l-.65.19c-.63.2-1.16.38-2.41.36-.19 0-.35-.16-.35-.35s.16-.34.35-.35c1.13.01 1.59-.14 2.19-.32l1.21-.32a.35.35 0 0 1 .32.1c.08.08.12.2.09.32-.13.59-.13 2.38.98 2.93 1.23.61 2.31.02 2.73-.52.48-.62.25-2.01.12-2.5a.36.36 0 0 1 .08-.33.32.32 0 0 1 .32-.1c1.26.25 1.5.28 2.29.17.12-.02.23.03.31.11.08.09.11.21.08.32-.52 2.01-.41 3.5.31 4.31.69.78 1.52.86 1.85.86.07 0 .14 0 .2-.01h.02c.91-.09 1.6-.45 2.11-1.11.64-.83.42-2.56 0-3.9-.04-.12-.01-.26.08-.35s.22-.13.35-.09c.76.22 1.12.16 1.67.08l.48-.07c.12-.01.24.03.31.13a.33.33 0 0 1 .06.33c0 .01-.2.61-.16 1.18.09 1.49.76 2.22 2.05 2.22h.03c1.06-.01 1.99-.88 1.99-1.86 0-.64-.13-1.26-.27-1.9-.02-.1 0-.2.06-.28s.15-.13.25-.14l.41-.04c1.52-.17 2.28-.25 3.88.19.19.05.3.24.24.43-.05.19-.24.3-.43.24-1.47-.41-2.14-.33-3.61-.17h-.02c.12.55.21 1.1.21 1.68 0 1.38-1.23 2.55-2.68 2.56h-.03c-1.66 0-2.64-1.02-2.75-2.87-.02-.33.02-.66.07-.91-.42.06-.8.12-1.34.03.28 1.11.55 2.9-.27 3.96-.63.81-1.5 1.27-2.6 1.38h-.02c-.1-.02-.19-.01-.29-.01zm-.02-1.36c-.48 0-.92-.22-1.26-.61-.49-.57-.68-1.46-.53-2.42.85-5.34 1.73-7.91 2.51-10.17.5-1.47.98-2.85 1.37-4.8a.35.35 0 0 1 .38-.28.34.34 0 0 1 .31.35c-.04 2.34-.4 4.16-.75 5.93-.56 2.85-1.04 5.32-.09 9.25.24 1.01-.04 1.64-.31 1.99-.45.56-1.14.76-1.63.76zm1.65-13.77l-.27.8c-.77 2.24-1.64 4.77-2.48 10.05-.12.76.01 1.44.37 1.86.2.24.46.37.73.37.32 0 .79-.13 1.08-.5.26-.33.33-.8.18-1.39-.98-4.08-.46-6.74.09-9.55l.3-1.64zm5.45 12.34c-.38 0-.73-.17-1-.48-.38-.44-.53-1.12-.41-1.86.63-3.94 1.28-5.83 1.85-7.51.37-1.07.72-2.09 1-3.51a.36.36 0 0 1 .39-.28c.18.02.32.18.3.37l-.48 4.55c-.31 2.33-.56 4.17-.14 6.6.14.81-.1 1.31-.32 1.57-.28.35-.73.55-1.19.55zm1.05-9.45c-.55 1.6-1.17 3.47-1.76 7.22-.09.53.01 1 .25 1.29.13.15.3.24.46.24a.9.9 0 0 0 .66-.29c.19-.23.25-.56.17-1-.44-2.53-.19-4.42.13-6.81l.09-.65zm-15.28 9.06c-.38 0-.73-.17-1-.48-.38-.44-.53-1.12-.41-1.86.58-3.65 1.22-5.45 1.79-7.04.44-1.23.81-2.28 1.06-3.96a.35.35 0 0 1 .37-.3c.18.01.32.16.33.34.07 2.51-.19 4.28-.42 5.84-.26 1.74-.48 3.25-.19 5.35.11.84-.14 1.33-.37 1.59a1.54 1.54 0 0 1-1.16.52zm1.34-9.98l-.29.84c-.55 1.56-1.18 3.33-1.76 6.91-.09.53.01 1 .25 1.29.13.15.3.24.46.24.09 0 .41-.02.63-.27.2-.22.27-.58.2-1.04-.3-2.2-.07-3.75.2-5.55l.31-2.42z"/><circle cx="35.29" cy="36.99" r=".47"/><circle cx="31.79" cy="35.14" r=".47"/><circle cx="52.05" cy="36.47" r=".47"/><circle cx="54.33" cy="33.52" r=".47"/></g></svg>