<svg xmlns="http://www.w3.org/2000/svg" viewBox="0 0 72 72" fill="#fff" xmlns:v="https://vecta.io/nano"><path d="M36 0C16.12 0 0 16.12 0 36s16.12 36 36 36 36-16.12 36-36S55.88 0 36 0zm23.62 59.62c-3.07 3.07-6.64 5.48-10.62 7.16-4.12 1.74-8.49 2.62-13 2.62a33.18 33.18 0 0 1-13-2.62c-3.98-1.68-7.55-4.09-10.62-7.16S6.9 52.98 5.22 49C3.48 44.88 2.6 40.51 2.6 36a33.18 33.18 0 0 1 2.62-13c1.68-3.98 4.09-7.55 7.16-10.62S19.02 6.9 23 5.22c4.12-1.74 8.49-2.62 13-2.62a33.18 33.18 0 0 1 13 2.62c3.98 1.68 7.55 4.09 10.62 7.16S65.1 19.02 66.78 23c1.74 4.12 2.62 8.49 2.62 13a33.18 33.18 0 0 1-2.62 13c-1.68 3.98-4.09 7.55-7.16 10.62zM46.19 16.75l-5.38 9.31h-9.69l-4.76-8.24 2.66-4.65c.26.08.54.12.83.12a2.88 2.88 0 1 0-2.88-2.88 2.85 2.85 0 0 0 .62 1.78l-2.55 4.46h-11.1L8.07 26.83l5.4 9.36-5.4 9.36 5.88 10.18H25.7l5.38-9.31h9.74c.02.1.05.19.11.28l2.97 4.93c.16.27.45.42.74.42.15 0 .31-.04.44-.12.41-.25.54-.78.29-1.19l-2.97-4.93c-.04-.07-.1-.14-.16-.19l4.91-8.51h10.79l5.88-10.18-5.88-10.18H46.19zM29.86 9.26a1.15 1.15 0 1 1-1.15 1.15c-.01-.64.51-1.15 1.15-1.15zm-14.92 9.12h9.76l4.88 8.45-4.88 8.45h-9.76l-4.88-8.45 4.88-8.45zM24.7 54h-9.76l-4.88-8.45 4.88-8.45h9.7l4.9 8.49L24.7 54zm16.08-9.31h-9.7l-4.9-8.49 4.85-8.4h9.76l4.88 8.45-4.89 8.44zm16.17-9.32h-9.76l-4.88-8.45 4.88-8.45h9.76l4.88 8.45-4.88 8.45zm-40.6-14.86c-.41-.24-.94-.09-1.18.32l-2.86 4.99c-.24.41-.09.94.32 1.18.14.08.28.11.43.11.3 0 .59-.16.75-.44l2.86-4.99a.85.85 0 0 0-.32-1.17zm23.11 22.38c.14.08.28.11.43.11.3 0 .59-.16.75-.44l2.86-4.99c.24-.41.09-.94-.32-1.18s-.94-.09-1.18.32l-2.86 4.99c-.24.43-.1.96.32 1.19zm-25.71 2.38c-.25-.41-.78-.54-1.19-.29s-.54.78-.29 1.19l2.97 4.93c.16.27.45.42.74.42.15 0 .31-.04.44-.12.41-.25.54-.78.29-1.19l-2.96-4.94zM55.8 20.56c-.41.25-.54.78-.29 1.19l2.97 4.93c.16.27.45.42.74.42.15 0 .31-.04.44-.12.41-.25.54-.78.29-1.19l-2.97-4.93c-.24-.42-.77-.55-1.18-.3z"/></svg>