<svg xmlns="http://www.w3.org/2000/svg" viewBox="0 0 70 70" fill="#fff" xmlns:v="https://vecta.io/nano"><path d="M35 2.52c4.39 0 8.64.86 12.64 2.55a32.41 32.41 0 0 1 10.32 6.96c2.98 2.98 5.33 6.46 6.96 10.32 1.69 4 2.55 8.26 2.55 12.64s-.86 8.64-2.55 12.64a32.41 32.41 0 0 1-6.96 10.32c-2.98 2.98-6.46 5.33-10.32 6.96-4 1.69-8.26 2.55-12.64 2.55s-8.64-.86-12.64-2.55a32.41 32.41 0 0 1-10.32-6.96c-2.98-2.98-5.33-6.46-6.96-10.32-1.69-4-2.55-8.26-2.55-12.64s.86-8.64 2.55-12.64a32.41 32.41 0 0 1 6.96-10.32c2.98-2.98 6.46-5.33 10.32-6.96 4-1.69 8.25-2.55 12.64-2.55M35 0C15.67 0 0 15.67 0 35s15.67 35 35 35 35-15.67 35-35S54.33 0 35 0h0zm0 14.64a2.96 2.96 0 0 1 .72.09l14.76 3.66c.5.12.84.57.84 1.08V36.7A23.15 23.15 0 0 1 48 46.26c-1.81 2.91-4.29 5.42-7.18 7.26l-4.99 3.18a1.55 1.55 0 0 1-.84.24 1.55 1.55 0 0 1-.84-.24l-4.99-3.18c-2.89-1.84-5.37-4.35-7.18-7.26a23.15 23.15 0 0 1-3.32-9.56V19.47c0-.51.35-.95.84-1.08l14.76-3.66a3.25 3.25 0 0 1 .74-.09m0-1.68c-.38 0-.76.05-1.12.14l-14.76 3.66A2.78 2.78 0 0 0 17 19.47V36.8h0c.82 7.44 4.96 14.12 11.28 18.14l4.99 3.18c.53.34 1.13.51 1.74.51a3.23 3.23 0 0 0 1.74-.51l4.99-3.18c6.31-4.03 10.46-10.7 11.28-18.14h0V19.47a2.79 2.79 0 0 0-2.12-2.71L36.14 13.1a4.45 4.45 0 0 0-1.14-.14h0zm-14.62 7.78a.5.5 0 0 1-.48-.37c-.07-.26.09-.53.36-.59l9.99-2.48c.26-.07.53.09.59.36.07.26-.09.53-.36.59l-9.99 2.48c-.03.01-.07.01-.11.01zm0 2.48a.5.5 0 0 1-.48-.37c-.07-.26.09-.53.36-.59l7.01-1.74c.26-.06.53.09.59.36.07.26-.09.53-.36.59l-7.01 1.74c-.03.01-.07.01-.11.01zm0 2.48a.5.5 0 0 1-.48-.37c-.07-.26.09-.53.36-.59l4.28-1.06c.26-.07.53.09.59.36.07.26-.09.53-.36.59l-4.28 1.06c-.03.01-.07.01-.11.01zm16.66-1.05c.08 0 .15.07.15.15v5.61 1.68h1.68 5.61c.08 0 .15.07.15.15v4.08c0 .08-.07.15-.15.15h-5.61-1.68v1.68 5.61c0 .08-.07.15-.15.15h-4.08c-.08 0-.15-.07-.15-.15v-5.61-1.68h-1.68-5.61c-.08 0-.15-.07-.15-.15v-4.08c0-.08.07-.15.15-.15h5.61 1.68v-1.68-5.61c0-.08.07-.15.15-.15h4.08m0-1.68h-4.08a1.84 1.84 0 0 0-1.83 1.83v5.61h-5.61a1.84 1.84 0 0 0-1.83 1.83v4.08a1.84 1.84 0 0 0 1.83 1.83h5.61v5.61a1.84 1.84 0 0 0 1.83 1.83h4.08a1.84 1.84 0 0 0 1.83-1.83v-5.61h5.61a1.84 1.84 0 0 0 1.83-1.83v-4.08a1.84 1.84 0 0 0-1.83-1.83h-5.61V24.8a1.83 1.83 0 0 0-1.83-1.83h0z"/></svg>