<svg xmlns="http://www.w3.org/2000/svg" viewBox="0 0 70 70" fill="#fff" xmlns:v="https://vecta.io/nano"><path d="M35 0C15.67 0 0 15.67 0 35s15.67 35 35 35 35-15.67 35-35S54.33 0 35 0zm22.97 57.97c-2.98 2.98-6.46 5.33-10.32 6.96-4 1.69-8.26 2.55-12.64 2.55-4.39 0-8.64-.86-12.64-2.55a32.41 32.41 0 0 1-10.32-6.96c-2.98-2.98-5.33-6.46-6.96-10.32-1.69-4-2.55-8.26-2.55-12.64 0-4.39.86-8.64 2.55-12.64a32.41 32.41 0 0 1 6.96-10.32c2.98-2.98 6.46-5.33 10.32-6.96 4-1.69 8.26-2.55 12.64-2.55 4.39 0 8.64.86 12.64 2.55a32.41 32.41 0 0 1 10.32 6.96c2.98 2.98 5.33 6.46 6.96 10.32 1.69 4 2.55 8.26 2.55 12.64 0 4.39-.86 8.64-2.55 12.64a32.63 32.63 0 0 1-6.96 10.32zM37.93 38.79a.6.6 0 0 0-.73.45c-.07.3.09.6.38.71 5.04 1.57 5.82 6.58 3.65 10.21-.91 1.56-2.8 3-4.03 3.79l.21-1.39c.32-3.04.94-6.33-.91-9.05-.19-.25-3.49-4-4.96-5.38a35.58 35.58 0 0 1-5.92-6.75c-2.09-3-3.11-5.04-5.21-7.42-.81-1.05-2.34-1.05-3.56-1.13-.98-.09-1.94.26-2.63.96-.74.7-1.55 1.31-2.43 1.82L9.29 27a1.82 1.82 0 0 0-.8 2.33l.57 1.33a3.4 3.4 0 0 0 3.5 1.95l1.22-.16c.38-.05.74.2.83.58.32 1-.12 2.27-.37 3.24-.53 2.04-.12 4.2 1.11 5.91l1.48 2.05c.64 1.73.89 3.57.74 5.4l-.23 2.43c0 .39-.52.77-.74 1.03-.43.34-1.13.66-1.13 1.33v.65c0 .34.27.61.61.61h2.85c.3.04.86-.53 1.09-.67a2.51 2.51 0 0 0 .99-1.65l1.26-8.03 1.47 2.86c-.1 1.5.57 2.99 1.27 4.29h-1.57c-.81 0-1.47.66-1.47 1.47v.02l.03 1.17c0 .34.27.61.61.61h13.8c.08 0 .17-.02.24-.05.83-.36 4.2-2.43 5.63-4.87.59-1.08 2.37-4.67.52-8.18a8.21 8.21 0 0 0-4.87-3.86zM16.95 24.02c.66.12 1.86.03 2.34.57l-.98 3.72c-.19.48-.46.92-.8 1.31-.19-.34-.33-.7-.41-1.08-.49-1.22-.41-2.81-.15-4.52zm19.26 28.39l-.32 2.08H23.2l-.04-.55c0-.14.11-.26.26-.26l2.55.04a.61.61 0 0 0 .62-.6c0-.1-.02-.19-.06-.27l-1.03-2.08c-1.25-2.33-.42-5.96 2.51-6.38l2.8-.44c.33-.05.56-.36.5-.69-.05-.33-.36-.56-.69-.5l-2.8.44c-1.7.27-3.12 1.43-3.72 3.04l-1.61-3.16c-.15-.3-.52-.42-.82-.27-.17.09-.3.25-.33.45l-1.53 10c-.05.61-.65.96-1.08 1.28h-1.95A5.34 5.34 0 0 0 18 53.49c.32-.33.52-.76.57-1.22l.23-2.43c.17-2.04-.11-4.1-.83-6.02-.52-1.66-.57-3.44-.13-5.12.08-.33-.11-.66-.44-.74s-.66.11-.74.44c-.26 1.02-.37 2.08-.32 3.14a5.89 5.89 0 0 1-.9-4.87c.29-1.11.73-2.47.42-3.61-.15-1.08-1.13-1.84-2.21-1.72l-1.22.16a2.2 2.2 0 0 1-2.24-1.3l-.59-1.35c-.13-.29-.01-.64.27-.78l2.52-1.39c1.22-.61 2.3-1.82 3.3-2.43-.3 1.55-.21 3.16.25 4.67.23 1.17 1.08 2.59 2.3 1.72.54-.55.96-1.21 1.22-1.93l.8-3.04c2.94 3.92 5.73 9.21 9.67 12.63 1.5 1.27 5.05 5.3 5.6 5.94 1.54 2.26.97 5.33.68 8.17zm13.63-40.34a.7.7 0 0 0-.56-.2c-.15.02-.29.09-.4.2L36.87 25.48l-4.28-4.28a.69.69 0 0 0-.96 0l-3.28 3.28a.69.69 0 0 0 0 .96l8.03 8.03a.69.69 0 0 0 .96 0L53.12 16.3a.69.69 0 0 0 0-.96l-3.28-3.27zM36.87 32.03l-7.07-7.07 2.31-2.31 4.27 4.27a.68.68 0 0 0 .96.01l12.02-13.41 2.31 2.31-14.8 16.2z"/></svg>