<svg xmlns="http://www.w3.org/2000/svg" viewBox="0 0 62 62" fill="#fff" xmlns:v="https://vecta.io/nano"><path d="M31 2.23c3.88 0 7.65.76 11.2 2.26 3.43 1.45 6.5 3.52 9.14 6.17a28.76 28.76 0 0 1 6.17 9.14c1.5 3.55 2.26 7.31 2.26 11.2s-.76 7.65-2.26 11.2c-1.45 3.43-3.52 6.5-6.17 9.14a28.76 28.76 0 0 1-9.14 6.17c-3.55 1.5-7.31 2.26-11.2 2.26s-7.65-.76-11.2-2.26c-3.43-1.45-6.5-3.52-9.14-6.17a28.76 28.76 0 0 1-6.17-9.14c-1.5-3.55-2.26-7.31-2.26-11.2s.76-7.65 2.26-11.2c1.45-3.43 3.52-6.5 6.17-9.14a28.76 28.76 0 0 1 9.14-6.17c3.55-1.5 7.32-2.26 11.2-2.26M31 0C13.88 0 0 13.88 0 31s13.88 31 31 31 31-13.88 31-31S48.12 0 31 0h0zm0 12.96c.21 0 .43.03.64.08l13.07 3.25c.44.11.75.5.75.95V32.5c-.34 2.99-1.36 5.91-2.94 8.47a20.44 20.44 0 0 1-6.36 6.43l-4.42 2.82a1.39 1.39 0 0 1-.74.22 1.31 1.31 0 0 1-.74-.22l-4.42-2.82a20.44 20.44 0 0 1-6.36-6.43 20.47 20.47 0 0 1-2.94-8.47V17.24c0-.45.31-.85.75-.95l13.07-3.25c.21-.05.43-.08.64-.08m0-1.48a4.27 4.27 0 0 0-1 .12l-13.07 3.25c-1.1.27-1.88 1.26-1.88 2.4V32.6h0c.72 6.59 4.4 12.5 9.99 16.07l4.42 2.82a2.87 2.87 0 0 0 1.54.45c.54 0 1.07-.15 1.54-.45l4.42-2.82c5.59-3.57 9.27-9.48 9.99-16.07h0V17.24a2.46 2.46 0 0 0-1.88-2.4L32 11.6a4.27 4.27 0 0 0-1-.12h0zm-12.95 6.89c-.19 0-.37-.13-.42-.33-.06-.23.08-.47.32-.53l8.85-2.2c.23-.06.47.08.53.32.06.23-.08.47-.32.53l-8.85 2.2c-.04.01-.07.01-.11.01zm0 2.2c-.19 0-.37-.13-.42-.33-.06-.23.08-.47.32-.53l6.21-1.54c.23-.06.47.08.53.32.06.23-.08.47-.32.53l-6.21 1.54c-.04 0-.07.01-.11.01zm0 2.19c-.19 0-.37-.13-.42-.33-.06-.23.08-.47.32-.53l3.79-.94c.23-.06.47.08.53.32.06.23-.08.47-.32.53l-3.79.94c-.04.01-.07.01-.11.01zm14.76-.93c.07 0 .13.06.13.13v4.97 1.49h1.49 4.97c.07 0 .13.06.13.13v3.62c0 .07-.06.13-.13.13h-4.97-1.49v1.49 4.97c0 .07-.06.13-.13.13h-3.62c-.07 0-.13-.06-.13-.13v-4.97-1.49h-1.49-4.97c-.07 0-.13-.06-.13-.13v-3.62c0-.07.06-.13.13-.13h4.97 1.49v-1.49-4.97c0-.07.06-.13.13-.13h3.62m0-1.48h-3.62c-.89 0-1.62.73-1.62 1.62v4.97H22.6c-.89 0-1.62.73-1.62 1.62v3.62c0 .89.73 1.62 1.62 1.62h4.97v4.97c0 .89.73 1.62 1.62 1.62h3.62c.89 0 1.62-.73 1.62-1.62V33.8h4.97c.89 0 1.62-.73 1.62-1.62v-3.62c0-.89-.73-1.62-1.62-1.62h-4.97v-4.97a1.62 1.62 0 0 0-1.62-1.62h0z"/></svg>