<svg xmlns="http://www.w3.org/2000/svg" viewBox="0 0 80 80" fill="#fff" xmlns:v="https://vecta.io/nano"><path d="M40 0C17.91 0 0 17.91 0 40s17.91 40 40 40 40-17.91 40-40S62.09 0 40 0zm26.25 66.25c-3.41 3.41-7.38 6.09-11.8 7.96-4.57 1.93-9.44 2.92-14.45 2.92s-9.87-.98-14.45-2.92c-4.42-1.87-8.39-4.55-11.8-7.96s-6.09-7.38-7.96-11.8C3.86 49.87 2.88 45.01 2.88 40s.98-9.87 2.92-14.45c1.87-4.42 4.55-8.39 7.96-11.8s7.38-6.09 11.8-7.96A36.92 36.92 0 0 1 40 2.88c5.01 0 9.87.98 14.45 2.92 4.42 1.87 8.39 4.55 11.8 7.96s6.09 7.38 7.96 11.8c1.93 4.57 2.92 9.44 2.92 14.45s-.98 9.87-2.92 14.45a37.25 37.25 0 0 1-7.96 11.79zM51.64 18.93l-5.97 10.35H34.91l-6.03-10.45H15.82l-6.53 11.3 6 10.4-6 10.4 6.53 11.31h13.06l5.97-10.35h11.89l5.97-10.35H64.7l6.53-11.31-6.53-11.3H51.64zm-34.72 1.81h10.84l5.42 9.39-5.42 9.39H16.92l-5.42-9.39 5.42-9.39zm10.84 39.58H16.92l-5.42-9.39 5.42-9.39H27.7l5.45 9.44-5.39 9.34zm17.87-10.35H34.85l-5.45-9.44 5.39-9.34h10.84l5.42 9.39-5.42 9.39zm17.96-10.35H52.75l-5.42-9.39 5.42-9.39h10.84l5.42 9.39-5.42 9.39z"/></svg>