<svg xmlns="http://www.w3.org/2000/svg" viewBox="0 0 80 80" fill="#fff" xmlns:v="https://vecta.io/nano"><path d="M40 2.88c5.01 0 9.87.98 14.45 2.92 4.42 1.87 8.39 4.55 11.8 7.96s6.09 7.38 7.96 11.8c1.93 4.57 2.92 9.44 2.92 14.45s-.98 9.87-2.92 14.45c-1.87 4.42-4.55 8.39-7.96 11.8s-7.38 6.09-11.8 7.96c-4.57 1.93-9.44 2.92-14.45 2.92s-9.87-.98-14.45-2.92c-4.42-1.87-8.39-4.55-11.8-7.96s-6.09-7.38-7.96-11.8A37.09 37.09 0 0 1 2.88 40c0-5.01.98-9.87 2.92-14.45 1.87-4.42 4.55-8.39 7.96-11.8s7.38-6.09 11.8-7.96A36.92 36.92 0 0 1 40 2.88M40 0C17.91 0 0 17.91 0 40s17.91 40 40 40 40-17.91 40-40S62.09 0 40 0h0zm0 16.73a3.23 3.23 0 0 1 .82.1l16.87 4.19a1.26 1.26 0 0 1 .96 1.23v19.7c-.44 3.85-1.75 7.63-3.8 10.93-2.07 3.32-4.9 6.19-8.2 8.3l-5.7 3.63a1.82 1.82 0 0 1-.96.28 1.82 1.82 0 0 1-.96-.28l-5.7-3.63a26.31 26.31 0 0 1-8.2-8.3c-2.05-3.29-3.36-7.07-3.8-10.93v-19.7c0-.58.4-1.09.96-1.23l16.87-4.19c.29-.07.56-.1.84-.1m0-1.92c-.43 0-.86.05-1.28.16l-16.87 4.19a3.19 3.19 0 0 0-2.42 3.1v19.8h0c.93 8.51 5.67 16.13 12.89 20.74l5.7 3.63A3.7 3.7 0 0 0 40 67c.69 0 1.38-.19 1.99-.58l5.7-3.63c7.22-4.6 11.96-12.23 12.89-20.74h0v-19.8a3.2 3.2 0 0 0-2.42-3.1l-16.87-4.19a5.68 5.68 0 0 0-1.29-.15h0zM23.3 23.7c-.25 0-.48-.17-.54-.43a.57.57 0 0 1 .41-.68l11.41-2.83a.57.57 0 0 1 .68.41c.08.3-.11.6-.41.68l-11.41 2.83c-.05.02-.1.02-.14.02zm0 2.84c-.25 0-.48-.17-.54-.43a.57.57 0 0 1 .41-.68l8.01-1.99a.57.57 0 0 1 .68.41c.08.3-.11.6-.41.68l-8.01 1.99c-.05.01-.1.02-.14.02zm0 2.83c-.25 0-.48-.17-.54-.43a.57.57 0 0 1 .41-.68l4.89-1.21a.57.57 0 0 1 .68.41.57.57 0 0 1-.41.68l-4.89 1.21c-.05.02-.1.02-.14.02zm19.03-1.2c.09 0 .17.08.17.17v6.41 1.92h1.92 6.41c.09 0 .17.08.17.17v4.67c0 .09-.08.17-.17.17h-6.41-1.92v1.92 6.41c0 .09-.08.17-.17.17h-4.67c-.09 0-.17-.08-.17-.17V43.6v-1.92h-1.92-6.41c-.09 0-.17-.08-.17-.17v-4.67c0-.09.08-.17.17-.17h6.41 1.92v-1.92-6.41c0-.09.08-.17.17-.17h4.67m0-1.92h-4.67c-1.15 0-2.09.94-2.09 2.09v6.41h-6.41c-1.15 0-2.09.94-2.09 2.09v4.67c0 1.15.94 2.09 2.09 2.09h6.41v6.41c0 1.15.94 2.09 2.09 2.09h4.67c1.15 0 2.09-.94 2.09-2.09V43.6h6.41c1.15 0 2.09-.94 2.09-2.09v-4.67c0-1.15-.94-2.09-2.09-2.09h-6.41v-6.41c0-1.15-.94-2.09-2.09-2.09h0z"/></svg>