<svg xmlns="http://www.w3.org/2000/svg" viewBox="0 0 80 80" fill="#fff" xmlns:v="https://vecta.io/nano"><path d="M40 0C17.91 0 0 17.91 0 40s17.91 40 40 40 40-17.91 40-40S62.09 0 40 0zm26.25 66.25c-3.41 3.41-7.38 6.09-11.8 7.96-4.57 1.93-9.44 2.92-14.45 2.92s-9.87-.98-14.45-2.92c-4.42-1.87-8.39-4.55-11.8-7.96s-6.09-7.38-7.96-11.8C3.86 49.87 2.88 45.01 2.88 40s.98-9.87 2.92-14.45c1.87-4.42 4.55-8.39 7.96-11.8s7.38-6.09 11.8-7.96A36.92 36.92 0 0 1 40 2.88c5.01 0 9.87.98 14.45 2.92 4.42 1.87 8.39 4.55 11.8 7.96s6.09 7.38 7.96 11.8c1.93 4.57 2.92 9.44 2.92 14.45s-.98 9.87-2.92 14.45a37.25 37.25 0 0 1-7.96 11.79zm-22.9-21.92c-.37-.09-.75.14-.84.52a.69.69 0 0 0 .43.81c5.76 1.79 6.65 7.51 4.17 11.67-1.04 1.78-3.2 3.43-4.61 4.33l.24-1.59c.37-3.48 1.08-7.23-1.04-10.34-.22-.28-3.98-4.57-5.67-6.15-2.58-2.27-4.85-4.87-6.77-7.72-2.38-3.43-3.56-5.76-5.95-8.48-.92-1.2-2.68-1.2-4.07-1.29a3.73 3.73 0 0 0-3 1.1c-.84.8-1.78 1.5-2.78 2.09l-2.86 1.58c-.95.52-1.35 1.67-.92 2.66l.65 1.52c.71 1.53 2.32 2.43 4 2.23l1.39-.19a.87.87 0 0 1 .95.66c.37 1.14-.14 2.6-.42 3.71-.6 2.33-.14 4.81 1.27 6.76l1.69 2.34c.73 1.97 1.02 4.08.84 6.17l-.26 2.78c0 .44-.59.88-.85 1.17-.49.39-1.29.75-1.29 1.52v.74c0 .38.31.7.7.7h3.26c.35.04.98-.6 1.25-.76a2.86 2.86 0 0 0 1.13-1.88l1.44-9.18 1.68 3.27c-.11 1.72.65 3.42 1.45 4.91h-1.79c-.93 0-1.68.75-1.68 1.68v.02l.04 1.33c0 .38.31.7.7.7H41.6a.67.67 0 0 0 .28-.06c.95-.41 4.8-2.78 6.44-5.56.67-1.23 2.7-5.34.59-9.35-1.2-2.15-3.19-3.74-5.56-4.42zM19.37 27.45c.76.13 2.12.03 2.68.65l-1.12 4.25c-.22.55-.53 1.06-.92 1.5-.22-.39-.38-.8-.47-1.24-.56-1.39-.47-3.2-.17-5.16zM41.38 59.9l-.36 2.38H26.51l-.05-.63a.29.29 0 0 1 .29-.29l2.91.04c.38 0 .7-.3.7-.69 0-.11-.02-.22-.07-.31l-1.18-2.38c-1.43-2.66-.48-6.81 2.86-7.29l3.2-.51a.693.693 0 1 0-.21-1.37l-3.2.51a5.46 5.46 0 0 0-4.25 3.48l-1.84-3.61c-.17-.34-.59-.48-.93-.31-.2.1-.34.29-.37.51l-1.74 11.43c-.06.7-.74 1.1-1.24 1.47h-2.23a6.13 6.13 0 0 0 1.39-1.2c.36-.38.59-.87.65-1.39l.26-2.78c.19-2.33-.13-4.68-.95-6.87a10.58 10.58 0 0 1-.15-5.85.7.7 0 0 0-.5-.85.7.7 0 0 0-.85.5c-.3 1.17-.43 2.38-.37 3.59-1.15-1.61-1.52-3.65-1.03-5.56.33-1.27.83-2.82.48-4.13-.17-1.24-1.29-2.11-2.53-1.96l-1.39.19c-1.09.12-2.12-.49-2.56-1.49L10.96 33a.7.7 0 0 1 .31-.9l2.88-1.59c1.39-.7 2.63-2.09 3.77-2.78-.34 1.78-.24 3.61.28 5.34.26 1.33 1.24 2.95 2.63 1.96a6.09 6.09 0 0 0 1.39-2.21l.92-3.48c3.36 4.48 6.55 10.53 11.05 14.43 1.72 1.45 5.77 6.06 6.4 6.79 1.78 2.58 1.13 6.09.79 9.34zm15.59-46.11c-.17-.17-.41-.26-.64-.23a.78.78 0 0 0-.46.23L42.14 29.12l-4.89-4.89c-.31-.3-.8-.3-1.1 0l-3.75 3.75c-.3.31-.3.8 0 1.1l9.18 9.18c.31.3.8.3 1.1 0l18.03-19.63c.3-.31.3-.8 0-1.1l-3.74-3.74zM42.14 36.61l-8.08-8.08 2.64-2.64 4.88 4.88c.3.3.79.31 1.1.01l13.74-15.33 2.64 2.64-16.92 18.52z"/></svg>