<svg xmlns="http://www.w3.org/2000/svg" viewBox="0 0 80 80" fill="#fff" xmlns:v="https://vecta.io/nano"><path d="M39.84 0C17.66 0 0 17.91 0 40s17.66 40 39.84 40S80 62.09 80 40 62.02 0 39.84 0zm26.35 66.25a37.12 37.12 0 0 1-11.85 7.96c-4.59 1.93-9.47 2.92-14.51 2.92-9.93 0-19.23-3.86-26.18-10.86a36.73 36.73 0 0 1-7.88-11.8C3.86 49.89 2.89 45.02 2.89 40s.97-9.89 2.88-14.46a36.95 36.95 0 0 1 7.88-11.8c6.95-7 16.25-10.86 26.18-10.86 5.03 0 9.91.98 14.51 2.92a37.23 37.23 0 0 1 11.85 7.96c3.42 3.41 6.11 7.38 7.99 11.8 1.94 4.57 2.93 9.44 2.93 14.45s-.98 9.87-2.93 14.45a37.01 37.01 0 0 1-7.99 11.79zM31.64 38.27c-.38 1.47-1.72 2.56-3.31 2.56a.96.96 0 1 0 0 1.92c2.65 0 4.85-1.93 5.28-4.45a7.57 7.57 0 0 0 4.19-1.87c.4-.35.43-.96.08-1.36s-.96-.43-1.36-.08a5.69 5.69 0 0 1-3.77 1.43c-3.12 0-5.66-2.53-5.66-5.64a.96.96 0 1 0-1.92 0c-.02 3.8 2.8 6.95 6.47 7.49zm2.19 7.8a.96.96 0 1 0 0-1.92c-3.66 0-6.64 2.97-6.64 6.61l.01.36c-.43.08-.85.2-1.26.38-.49.21-.71.78-.49 1.26.21.49.78.71 1.27.49a3.33 3.33 0 0 1 .87-.25 6.71 6.71 0 0 0 1.29 2.16c.19.21.45.32.72.32a.96.96 0 0 0 .64-.24c.4-.35.43-.96.08-1.36l-.35-.44c.59.34 1.07.84 1.39 1.47a3.55 3.55 0 0 1 .21 2.73c-.17.5.11 1.05.62 1.21.1.03.2.05.3.05.41 0 .78-.26.92-.66.46-1.39.34-2.88-.32-4.19a5.49 5.49 0 0 0-3.2-2.74c-.24-.08-.49-.14-.74-.19l-.02-.37c-.01-2.57 2.1-4.68 4.7-4.68zm20.54 5.43c-.41-.18-.83-.3-1.26-.38.01-.12.01-.24.01-.36 0-3.64-2.98-6.61-6.64-6.61a.96.96 0 1 0 0 1.92c2.6 0 4.71 2.1 4.71 4.69 0 .12-.01.24-.02.37-.25.04-.5.11-.74.19a5.46 5.46 0 0 0-3.2 2.74 5.41 5.41 0 0 0-.32 4.19c.13.4.51.66.92.66.1 0 .2-.02.3-.05a.96.96 0 0 0 .62-1.21 3.55 3.55 0 0 1 .21-2.73c.32-.62.8-1.12 1.39-1.47l-.35.44c-.35.4-.32 1 .08 1.36a.96.96 0 0 0 .64.24.98.98 0 0 0 .72-.32c.57-.64 1.01-1.37 1.29-2.16.3.05.59.13.87.25a.97.97 0 0 0 1.27-.49.97.97 0 0 0-.5-1.27zM52 42.74a.96.96 0 1 0 0-1.92c-1.59 0-2.93-1.09-3.31-2.56 3.66-.53 6.49-3.68 6.49-7.48a.96.96 0 1 0-1.92 0c0 3.11-2.54 5.64-5.66 5.64a5.69 5.69 0 0 1-3.77-1.43c-.4-.35-1.01-.32-1.36.08-.36.4-.32 1 .08 1.36a7.53 7.53 0 0 0 4.19 1.87c.4 2.52 2.61 4.44 5.26 4.44zm8.65-9.41c.17-.61.26-1.25.26-1.89 0-3.45-2.56-6.32-5.88-6.83.38-.72.58-1.52.58-2.35 0-2.45-1.76-4.49-4.09-4.93-.03-.04-.07-.08-.11-.11-.4-.34-4.02-3.29-6.69-3.37-1.91-.05-3.35.39-4.3 1.33-.1.1-.18.19-.26.29-.08-.1-.17-.2-.26-.29-.94-.94-2.39-1.38-4.3-1.33-2.67.08-6.29 3.03-6.69 3.37-.04.03-.08.07-.11.11-2.33.45-4.09 2.49-4.09 4.93 0 .83.2 1.63.58 2.35-3.33.51-5.88 3.37-5.88 6.83 0 .64.09 1.28.26 1.89-1.31 1.29-2.05 3.03-2.05 4.9a6.83 6.83 0 0 0 1.18 3.85 6.83 6.83 0 0 0-1.18 3.85c0 2.6 1.48 4.97 3.76 6.14a7.41 7.41 0 0 0-.07 1.05 7.57 7.57 0 0 0 5.43 7.28c1.33 2.42 3.91 3.97 6.7 3.97 2.9 0 5.43-1.62 6.72-4.01 1.29 2.38 3.82 4.01 6.72 4.01 2.79 0 5.37-1.54 6.7-3.97a7.57 7.57 0 0 0 5.43-7.28 7.41 7.41 0 0 0-.07-1.05c2.28-1.17 3.76-3.55 3.76-6.14a6.83 6.83 0 0 0-1.18-3.85c.76-1.13 1.18-2.47 1.18-3.85a6.85 6.85 0 0 0-2.05-4.9zM33.44 62.44c-2.2 0-4.23-1.28-5.16-3.27l-.2-.42-.45-.11c-2.58-.61-4.39-2.88-4.39-5.53 0-.47.06-.93.17-1.38l.21-.83-.81-.3c-1.95-.72-3.26-2.6-3.26-4.67 0-.84.21-1.64.6-2.37 1.23 1.01 2.78 1.57 4.4 1.57a.96.96 0 1 0 0-1.92c-1.47 0-2.86-.64-3.81-1.76-.77-.9-1.19-2.04-1.19-3.23 0-1.55.71-2.99 1.94-3.94a.96.96 0 0 0 .17-1.35c-.04-.05-.08-.1-.13-.14-.13-.44-.19-.9-.19-1.36a5 5 0 0 1 5-4.98c2.75 0 5 2.24 5 4.98a.96.96 0 0 0 1.92 0c0-3.35-2.41-6.16-5.6-6.78-.04-.09-.1-.17-.17-.25-.56-.58-.87-1.34-.87-2.15 0-1.71 1.4-3.11 3.12-3.11 1.26 0 2.38.74 2.87 1.9a.961.961 0 1 0 1.77-.75 4.98 4.98 0 0 0-2.79-2.71c1.25-.86 2.9-1.79 4.04-1.82 1.36-.04 2.33.22 2.88.77.69.69.67 1.78.65 2.43v.25 9.24c-.59-.36-1.29-.56-2.03-.57a.96.96 0 1 0 0 1.92c1.13 0 2.04.92 2.04 2.04v18.24a5.96 5.96 0 0 0-4.07-1.6.96.96 0 1 0 0 1.92 4.07 4.07 0 0 1 2.89 1.2 4.06 4.06 0 0 1 1.19 2.89v1.96c-.03.09-.04.18-.04.28 0 3.16-2.56 5.71-5.7 5.71zM57.51 50.6l-.81.3.21.83a5.86 5.86 0 0 1 .17 1.38c0 2.65-1.81 4.92-4.39 5.53l-.45.11-.2.42c-.94 1.99-2.96 3.27-5.16 3.27-3.14 0-5.7-2.55-5.7-5.68 0-.1-.02-.19-.04-.28v-1.95a4.08 4.08 0 0 1 1.19-2.89 4.07 4.07 0 0 1 2.89-1.2.96.96 0 1 0 0-1.92c-1.53.01-2.96.57-4.07 1.6V28.51c-.01-1.35 1.09-2.45 2.45-2.46a.96.96 0 1 0 0-1.92 4.37 4.37 0 0 0-2.44.75v-5.64-.25c-.02-.65-.04-1.74.65-2.43.56-.55 1.52-.81 2.88-.77 1.14.03 2.78.97 4.04 1.82-1.23.49-2.25 1.45-2.79 2.71a.96.96 0 0 0 .51 1.26c.49.21 1.06-.02 1.26-.51.49-1.15 1.62-1.9 2.87-1.9 1.72 0 3.12 1.39 3.12 3.11 0 .8-.31 1.57-.87 2.15-.07.07-.12.16-.17.25a6.92 6.92 0 0 0-5.6 6.78.96.96 0 1 0 1.92 0 5 5 0 1 1 10 0 5.19 5.19 0 0 1-.19 1.36c-.05.04-.09.09-.13.14a.96.96 0 0 0 .17 1.35c1.23.95 1.94 2.39 1.94 3.94 0 1.18-.42 2.33-1.19 3.23-.95 1.12-2.34 1.76-3.81 1.76a.96.96 0 1 0 0 1.92c1.62 0 3.17-.56 4.4-1.57.39.72.6 1.53.6 2.37.01 2.04-1.31 3.92-3.26 4.64z"/></svg>