<svg xmlns="http://www.w3.org/2000/svg" viewBox="0 0 72 72" fill="#fff" xmlns:v="https://vecta.io/nano"><path d="M35.86 0C15.89 0 0 16.12 0 36s15.89 36 35.86 36S72 55.88 72 36 55.82 0 35.86 0zm23.71 59.62a33.4 33.4 0 0 1-10.66 7.16c-4.13 1.74-8.53 2.62-13.06 2.62-8.94 0-17.3-3.47-23.56-9.77C9.25 56.57 6.86 53 5.2 49.02A33.62 33.62 0 0 1 2.6 36c0-4.52.87-8.9 2.6-13.02 1.67-3.98 4.05-7.55 7.09-10.62 6.26-6.3 14.63-9.77 23.56-9.77a33.51 33.51 0 0 1 13.06 2.62 33.4 33.4 0 0 1 10.66 7.16c3.08 3.07 5.5 6.64 7.19 10.62 1.75 4.12 2.63 8.49 2.63 13a33.19 33.19 0 0 1-2.63 13c-1.69 3.99-4.11 7.56-7.19 10.63zm-31.1-25.18a3.08 3.08 0 0 1-2.98 2.3.87.87 0 0 0-.87.86c0 .48.39.86.87.86 2.38 0 4.37-1.73 4.75-4 1.4-.16 2.72-.74 3.77-1.68a.864.864 0 1 0-1.15-1.29c-.93.83-2.14 1.29-3.39 1.29a5.09 5.09 0 0 1-5.09-5.07c0-.48-.39-.86-.87-.86a.87.87 0 0 0-.87.86c0 3.42 2.54 6.25 5.83 6.73zm1.98 7.03a.87.87 0 0 0 .87-.86c0-.48-.39-.86-.87-.86a5.97 5.97 0 0 0-5.97 5.95l.01.33c-.39.07-.77.18-1.13.34-.44.19-.64.7-.45 1.14s.7.64 1.14.44a3.5 3.5 0 0 1 .78-.23 6 6 0 0 0 1.16 1.94c.17.19.41.29.65.29a.86.86 0 0 0 .65-1.44c-.11-.12-.22-.26-.31-.39.53.31.96.76 1.25 1.32.39.77.46 1.64.19 2.45-.15.45.1.94.56 1.09.09.03.18.04.27.04.37 0 .7-.23.82-.6.41-1.25.31-2.59-.29-3.77s-1.62-2.05-2.88-2.46c-.22-.07-.44-.13-.67-.17-.01-.11-.01-.22-.01-.33-.01-2.33 1.89-4.22 4.23-4.22zm18.49 4.88c-.37-.16-.75-.27-1.13-.34.01-.11.01-.22.01-.33a5.97 5.97 0 0 0-5.97-5.95.87.87 0 0 0-.87.86c0 .48.39.86.87.86 2.34 0 4.24 1.89 4.24 4.22l-.01.33c-.22.04-.45.1-.67.17-1.26.41-2.28 1.28-2.88 2.46s-.7 2.52-.29 3.77c.12.36.46.6.82.6.09 0 .18-.01.27-.04.46-.15.7-.64.56-1.09a3.16 3.16 0 0 1 .19-2.45c.28-.56.72-1.01 1.25-1.32-.1.14-.2.27-.31.39a.86.86 0 0 0 .65 1.44c.24 0 .48-.1.65-.29.51-.57.91-1.23 1.16-1.94a3.04 3.04 0 0 1 .78.23.87.87 0 0 0 1.14-.44c.17-.43-.03-.94-.46-1.14zm-2.14-7.88a.87.87 0 0 0 .87-.86c0-.48-.39-.86-.87-.86a3.08 3.08 0 0 1-2.98-2.3c3.3-.48 5.84-3.31 5.84-6.73 0-.48-.39-.86-.87-.86a.87.87 0 0 0-.87.86c0 2.8-2.29 5.07-5.09 5.07-1.25 0-2.46-.46-3.39-1.29-.36-.32-.91-.29-1.22.07a.86.86 0 0 0 .07 1.22c1.06.94 2.38 1.53 3.77 1.68.37 2.27 2.35 4 4.74 4zM54.59 30a6.07 6.07 0 0 0 .24-1.7c0-3.11-2.3-5.69-5.29-6.14.34-.64.52-1.36.52-2.11 0-2.2-1.59-4.04-3.68-4.44-.03-.04-.06-.07-.1-.1-.36-.3-3.62-2.96-6.02-3.03-1.72-.05-3.02.35-3.87 1.2l-.24.26c-.07-.09-.15-.18-.24-.26-.85-.84-2.15-1.25-3.87-1.2-2.4.07-5.66 2.73-6.02 3.03-.04.03-.07.06-.1.1-2.09.4-3.68 2.24-3.68 4.44 0 .75.18 1.47.52 2.11-2.99.45-5.29 3.04-5.29 6.14a6.07 6.07 0 0 0 .24 1.7c-1.18 1.16-1.84 2.73-1.84 4.41 0 1.24.37 2.44 1.06 3.46-.69 1.03-1.06 2.22-1.06 3.46 0 2.34 1.33 4.47 3.39 5.53-.04.31-.07.63-.07.94a6.81 6.81 0 0 0 4.89 6.55c1.2 2.18 3.52 3.57 6.03 3.57 2.61 0 4.89-1.46 6.05-3.61 1.16 2.14 3.44 3.61 6.05 3.61 2.51 0 4.84-1.39 6.03-3.57a6.81 6.81 0 0 0 4.89-6.55 5.86 5.86 0 0 0-.07-.94c2.05-1.05 3.39-3.19 3.39-5.53a6.14 6.14 0 0 0-1.06-3.46c.69-1.02 1.06-2.22 1.06-3.46-.02-1.68-.68-3.25-1.86-4.41zM30.1 56.2a5.18 5.18 0 0 1-4.65-2.94l-.18-.38-.41-.1a5.09 5.09 0 0 1-3.95-4.97c0-.42.05-.84.15-1.24l.19-.75-.73-.27c-1.76-.65-2.94-2.34-2.94-4.21 0-.76.19-1.48.54-2.13 1.11.91 2.5 1.42 3.96 1.42a.87.87 0 0 0 .87-.86c0-.48-.39-.86-.87-.86-1.32 0-2.57-.58-3.43-1.58-.69-.81-1.07-1.84-1.07-2.9a4.48 4.48 0 0 1 1.74-3.55c.38-.29.45-.84.15-1.21a.68.68 0 0 0-.12-.12 4.62 4.62 0 0 1-.17-1.23c0-2.47 2.02-4.49 4.5-4.49a4.5 4.5 0 0 1 4.5 4.49c0 .48.39.86.87.86a.87.87 0 0 0 .87-.86c0-3.02-2.17-5.54-5.04-6.1a1.07 1.07 0 0 0-.15-.22c-.5-.52-.78-1.21-.78-1.93a2.81 2.81 0 0 1 2.81-2.8c1.13 0 2.15.67 2.59 1.71a.88.88 0 0 0 1.14.46.86.86 0 0 0 .46-1.13c-.48-1.14-1.4-2-2.51-2.44 1.13-.77 2.61-1.61 3.63-1.64 1.22-.03 2.1.2 2.6.7.62.62.6 1.6.59 2.19v.23 8.32a3.54 3.54 0 0 0-1.83-.51c-.48 0-.87.38-.87.86a.87.87 0 0 0 .86.87c1.01 0 1.84.83 1.83 1.84V45.1a5.34 5.34 0 0 0-3.66-1.44c-.48 0-.87.38-.87.86a.87.87 0 0 0 .86.87 3.67 3.67 0 0 1 2.6 1.08c.69.7 1.07 1.62 1.07 2.6v1.76c-.02.08-.04.17-.04.25.02 2.82-2.28 5.12-5.11 5.12zm21.66-10.66l-.73.27.19.75c.1.41.15.83.15 1.24a5.08 5.08 0 0 1-3.95 4.97l-.41.1-.18.38c-.84 1.79-2.67 2.94-4.65 2.94-2.83 0-5.13-2.29-5.13-5.11a.69.69 0 0 0-.04-.25v-1.76c0-.98.38-1.9 1.07-2.6a3.63 3.63 0 0 1 2.6-1.08c.48 0 .87-.39.86-.87 0-.48-.39-.86-.87-.86-1.37.01-2.67.52-3.66 1.44V25.65a2.21 2.21 0 0 1 2.2-2.21c.48 0 .87-.39.86-.87 0-.48-.39-.86-.87-.86-.81 0-1.57.25-2.2.68v-5.08-.23c-.01-.59-.04-1.57.59-2.19.5-.5 1.37-.73 2.6-.7 1.02.03 2.51.87 3.63 1.64-1.11.44-2.02 1.3-2.51 2.44-.19.44.02.95.46 1.13a.87.87 0 0 0 1.14-.46c.44-1.04 1.46-1.71 2.59-1.71 1.55 0 2.81 1.25 2.81 2.8 0 .72-.28 1.41-.78 1.93a1.07 1.07 0 0 0-.15.22c-2.87.56-5.04 3.08-5.04 6.1 0 .48.39.86.87.86a.87.87 0 0 0 .87-.86c0-2.47 2.02-4.49 4.5-4.49a4.5 4.5 0 0 1 4.5 4.49 4.62 4.62 0 0 1-.17 1.23l-.12.12a.86.86 0 0 0 .15 1.21 4.45 4.45 0 0 1 1.74 3.55c0 1.06-.38 2.1-1.07 2.9a4.49 4.49 0 0 1-3.43 1.58.87.87 0 0 0-.87.86c0 .48.39.86.87.86 1.46 0 2.86-.51 3.96-1.42a4.49 4.49 0 0 1 .54 2.13 4.47 4.47 0 0 1-2.92 4.24z"/></svg>