<svg xmlns="http://www.w3.org/2000/svg" width="49.671" height="18.265" viewBox="0 0 49.671 18.265">
  <g id="IAMS_Puppy_lockup" data-name="IAMS Puppy lockup" transform="translate(0 0)">
    <g id="PUPPY" transform="translate(0 12.689)">
      <path id="Y" d="M69.6,45.183H67.781V42.962l-2.045-3.2h2.2l.858,1.593.82-1.593h2.145l-2.152,3.2Z" transform="translate(-44.757 -39.76)" fill="#fff"/>
      <path id="P" d="M53.606,43.436v1.746H51.791V39.76h2.328a3.749,3.749,0,0,1,.812.088,2.066,2.066,0,0,1,.712.3,1.572,1.572,0,0,1,.506.559,2.079,2.079,0,0,1,0,1.735,1.646,1.646,0,0,1-.5.574,2.061,2.061,0,0,1-.712.322,3.413,3.413,0,0,1-.823.1Zm0-2.26v.873h.383a.723.723,0,0,0,.379-.1.374.374,0,0,0,.172-.348.422.422,0,0,0-.046-.211.334.334,0,0,0-.126-.126.581.581,0,0,0-.18-.065,1.052,1.052,0,0,0-.2-.019Z" transform="translate(-35.262 -39.76)" fill="#fff"/>
      <path id="P-2" data-name="P" d="M37.071,43.436v1.746H35.256V39.76h2.328a3.749,3.749,0,0,1,.812.088,2.066,2.066,0,0,1,.712.3,1.572,1.572,0,0,1,.506.559,2.079,2.079,0,0,1,0,1.735,1.646,1.646,0,0,1-.5.574,2.061,2.061,0,0,1-.712.322,3.413,3.413,0,0,1-.823.1Zm0-2.26v.873h.383a.723.723,0,0,0,.379-.1.374.374,0,0,0,.172-.348.422.422,0,0,0-.046-.211.334.334,0,0,0-.126-.126.581.581,0,0,0-.18-.065,1.052,1.052,0,0,0-.2-.019Z" transform="translate(-24.004 -39.76)" fill="#fff"/>
      <path id="U" d="M18.807,45.336A3.156,3.156,0,0,1,17.7,45.16a2.22,2.22,0,0,1-.785-.483,1.924,1.924,0,0,1-.467-.724,2.592,2.592,0,0,1-.153-.9V39.76h1.823v3.094a.9.9,0,0,0,.188.609.758.758,0,0,0,1.065,0,.9.9,0,0,0,.188-.609V39.76h1.815v3.294a2.43,2.43,0,0,1-.165.9,2,2,0,0,1-.486.724,2.289,2.289,0,0,1-.8.483,3.221,3.221,0,0,1-1.114.176" transform="translate(-11.095 -39.76)" fill="#fff"/>
      <path id="P-3" data-name="P" d="M1.815,43.436v1.746H0V39.76H2.328a3.749,3.749,0,0,1,.812.088,2.066,2.066,0,0,1,.712.3,1.572,1.572,0,0,1,.506.559,2.079,2.079,0,0,1,0,1.735,1.646,1.646,0,0,1-.5.574,2.061,2.061,0,0,1-.712.322,3.413,3.413,0,0,1-.823.1Zm0-2.26v.873H2.2a.723.723,0,0,0,.379-.1A.374.374,0,0,0,2.75,41.6a.422.422,0,0,0-.046-.211.334.334,0,0,0-.126-.126A.581.581,0,0,0,2.4,41.2a1.052,1.052,0,0,0-.2-.019Z" transform="translate(0 -39.76)" fill="#fff"/>
    </g>
    <g id="IAMS_lockup" data-name="IAMS lockup" transform="translate(0.011 0)">
      <path id="TM" d="M152.2,18.144v.109h.161v.432h.123v-.433h.162v-.107Zm.974,0-.142.228-.142-.228h-.13v.54h.116v-.366l.15.237h.01l.149-.237v.365h.116v-.539Z" transform="translate(-103.636 -12.353)" fill="#fff"/>
      <path id="paw_print" data-name="paw print" d="M142.761,21.167a1.726,1.726,0,1,0,1.7,1.749v-.023a1.716,1.716,0,0,0-1.7-1.726" transform="translate(-96.021 -14.411)" fill="#fff"/>
      <path id="paw_print-2" data-name="paw print" d="M142.451,10.624a1.668,1.668,0,1,0-1.669,1.691,1.669,1.669,0,0,0,1.669-1.691v0" transform="translate(-94.729 -6.113)" fill="#fff"/>
      <path id="paw_print-3" data-name="paw print" d="M131.227,3.7a1.691,1.691,0,1,0-1.667-1.716c0,.009,0,.018,0,.027A1.68,1.68,0,0,0,131.227,3.7" transform="translate(-88.224 -0.215)" fill="#fff"/>
      <path id="paw_print-4" data-name="paw print" d="M118.328,3.451a1.726,1.726,0,1,0-1.7-1.748v.022a1.716,1.716,0,0,0,1.7,1.727" transform="translate(-79.416 0)" fill="#fff"/>
      <path id="paw_print-5" data-name="paw print" d="M120.149,11.934a3.586,3.586,0,1,1-3.54,3.631c0-.016,0-.031,0-.047a3.564,3.564,0,0,1,3.54-3.585" transform="translate(-79.406 -8.125)" fill="#fff"/>
      <path id="S" d="M91.439,4.031c-.287-.111-.649-.422-.556-.744a.62.62,0,0,1,.772-.407,2.715,2.715,0,0,1,.922.591,1.5,1.5,0,0,0,1.67.219A1.308,1.308,0,0,0,94.689,2,2.936,2.936,0,0,0,92.672.47c-1.3-.308-3.454-.427-4.61,1.353a3.629,3.629,0,0,0-.15,3.2c.569,1.221,1.979,1.607,3.174,1.951.365.107.882.361.738.814a.635.635,0,0,1-.727.383,2.6,2.6,0,0,1-1.224-.621,2.579,2.579,0,0,0-1.424-.472c-1.034.012-1.49,1.224-1.2,2.11a1.93,1.93,0,0,0,.422.714,5.955,5.955,0,0,0,.554.455,5.419,5.419,0,0,0,5.807-.02,3.437,3.437,0,0,0,1.188-2.394c.183-2.469-1.991-3.216-3.783-3.912" transform="translate(-59.358 -0.197)" fill="#fff"/>
      <path id="M" d="M58.186,8.662,57.151,2.081c-.124-.773-.425-1.809-1.713-1.817C54.29.256,54.124.645,53.524,1.816L52.1,5.2l-1.429-3.38C50.068.645,49.9.256,48.754.263c-1.287.007-1.589,1.042-1.715,1.815L46,8.66c-.026.165-.037.347-.064.525a1.723,1.723,0,0,0,1.582,1.854c.047,0,.094.005.141.005A1.562,1.562,0,0,0,49.311,9.7l.44-2.185.813,2.118c.3.581.638,1.413,1.528,1.413s1.272-.83,1.553-1.413l.835-2.17L54.873,9.7a1.576,1.576,0,0,0,1.65,1.345,1.705,1.705,0,0,0,1.721-1.858c-.029-.179-.032-.358-.061-.525" transform="translate(-31.286 -0.179)" fill="#fff"/>
      <path id="A" d="M17.759,7.245a.868.868,0,1,1,.856-.879v.01a.862.862,0,0,1-.854.869h0m4.808,1.529L19.976,2.6C19.531,1.467,19.168.288,17.781.288,16.36.288,16,1.5,15.535,2.613L13,8.773a1.59,1.59,0,0,0,.789,2.253,1.642,1.642,0,0,0,2.2-1.007l.555-1.133h2.585L19.6,10.02A1.6,1.6,0,0,0,21.579,11.1a1.637,1.637,0,0,0,.2-.073,1.59,1.59,0,0,0,.79-2.252" transform="translate(-8.742 -0.196)" fill="#fff"/>
      <path id="I" d="M1.738.192a1.65,1.65,0,0,0-1.7,1.58v7.7a1.608,1.608,0,0,0,.507,1.142,1.51,1.51,0,0,0,1.195.462,1.72,1.72,0,0,0,1.687-1.6l0-7.691A1.659,1.659,0,0,0,1.739.19" transform="translate(-0.036 -0.129)" fill="#fff"/>
    </g>
  </g>
</svg>
